<svg id="Layer_1" data-name="Layer 1" xmlns="http://www.w3.org/2000/svg" viewBox="0 0 235 62.25"><defs><style>.cls-1{fill:#1d1d1b;}.cls-2{fill:#e63338;}.cls-3{fill:#f18c00;}.cls-4{fill:#4fae47;}.cls-5{fill:#0078be;}</style></defs><title>encore-logo</title><path class="cls-1" d="M69.09,61.12v7.46H82.17V78.4H69.09v7.68H82.88V95.9H57.5V51.31H82.88v9.81Z" transform="translate(-57.5 -50.12)"/><path class="cls-1" d="M89,51.31h11.59l21.24,27.26h.11V51.31h11.6V95.9H121.9L100.67,68.58h-.12V95.9H89Z" transform="translate(-57.5 -50.12)"/><path class="cls-1" d="M171.88,66.27a12.6,12.6,0,0,0-10.18-4.91c-7.1,0-11.89,5.44-11.89,12.36s4.85,12.13,12.07,12.13a13.37,13.37,0,0,0,10-4.73V95c-3.85,1.18-6.63,2.07-10.24,2.07a24.85,24.85,0,0,1-16.74-6.57c-4.91-4.44-7.15-10.23-7.15-16.86a23.33,23.33,0,0,1,6.56-16.32,24.17,24.17,0,0,1,17-7.22,27.19,27.19,0,0,1,10.59,2.25Z" transform="translate(-57.5 -50.12)"/><path class="cls-1" d="M265.45,95.9H251L240.08,78.75H240V95.9h-11.6V51.31H245.7c8.81,0,15.49,4.19,15.49,13.72,0,6.15-3.43,11.47-9.76,12.6ZM240,71.3h1.12c3.79,0,8-.71,8-5.56s-4.26-5.56-8-5.56H240Z" transform="translate(-57.5 -50.12)"/><path class="cls-1" d="M278.72,61.12v7.46h13.07V78.4H278.72v7.68H292.5V95.9H267.12V51.3H292.5v9.82Z" transform="translate(-57.5 -50.12)"/><path class="cls-1" d="M58.73,103.58v8.65H57.6v-8.65Z" transform="translate(-57.5 -50.12)"/><path class="cls-1" d="M61.19,112.23v-8.65h1.23L65.18,108a23.73,23.73,0,0,1,1.54,2.81h0c-.11-1.16-.13-2.21-.13-3.55v-3.63h1.05v8.65H66.55l-2.75-4.39A24.63,24.63,0,0,1,62.2,105l0,0c.07,1.09.08,2.13.08,3.57v3.69Z" transform="translate(-57.5 -50.12)"/><path class="cls-1" d="M70,110.87a3.89,3.89,0,0,0,2,.55c1.14,0,1.81-.59,1.81-1.46s-.46-1.28-1.63-1.72c-1.41-.49-2.28-1.23-2.28-2.44s1.11-2.35,2.8-2.35a4.07,4.07,0,0,1,1.89.41l-.3.93a3.18,3.18,0,0,0-1.63-.41c-1.18,0-1.63.7-1.63,1.29,0,.8.52,1.2,1.72,1.66,1.46.58,2.19,1.27,2.19,2.54s-1,2.49-3,2.49a4.54,4.54,0,0,1-2.21-.56Z" transform="translate(-57.5 -50.12)"/><path class="cls-1" d="M78.61,104.53H76v-1h6.4v1H79.74v7.7H78.61Z" transform="translate(-57.5 -50.12)"/><path class="cls-1" d="M84.28,109.51l-.9,2.72H82.23l2.94-8.65h1.34l3,8.65h-1.2l-.92-2.72Zm2.84-.87-.86-2.49c-.18-.57-.31-1.08-.44-1.58h0c-.11.5-.25,1-.42,1.57l-.85,2.5Z" transform="translate(-57.5 -50.12)"/><path class="cls-1" d="M91.23,103.58h1.13v7.72h3.69v.93H91.23Z" transform="translate(-57.5 -50.12)"/><path class="cls-1" d="M97.79,103.58h1.13v7.72h3.69v.93H97.79Z" transform="translate(-57.5 -50.12)"/><path class="cls-1" d="M105.76,109.51l-.9,2.72H103.7l2.94-8.65H108l3,8.65h-1.19l-.92-2.72Zm2.84-.87-.86-2.49c-.18-.57-.31-1.08-.44-1.58h0c-.12.5-.26,1-.42,1.57l-.85,2.5Z" transform="translate(-57.5 -50.12)"/><path class="cls-1" d="M113.37,104.53h-2.63v-1h6.41v1H114.5v7.7h-1.13Z" transform="translate(-57.5 -50.12)"/><path class="cls-1" d="M119.73,103.58v8.65H118.6v-8.65Z" transform="translate(-57.5 -50.12)"/><path class="cls-1" d="M125.55,112.37c-2.29,0-3.88-1.77-3.88-4.39s1.69-4.54,4-4.54,3.9,1.81,3.9,4.38c0,3-1.81,4.55-4,4.55Zm.07-.91c1.77,0,2.77-1.63,2.77-3.59,0-1.72-.9-3.52-2.76-3.52s-2.78,1.73-2.78,3.61,1,3.5,2.76,3.5Z" transform="translate(-57.5 -50.12)"/><path class="cls-1" d="M131.52,112.23v-8.65h1.24l2.76,4.38a23.73,23.73,0,0,1,1.54,2.81h0c-.11-1.16-.13-2.21-.13-3.55v-3.63H138v8.65h-1.13l-2.75-4.39a24.63,24.63,0,0,1-1.6-2.89l0,0c.06,1.09.08,2.13.08,3.57v3.69Z" transform="translate(-57.5 -50.12)"/><path class="cls-1" d="M144.52,110.22a1.35,1.35,0,1,1,1.36-1.35,1.36,1.36,0,0,1-1.35,1.35Z" transform="translate(-57.5 -50.12)"/><path class="cls-1" d="M158.33,108.43c-.07-1.19-.14-2.67-.14-3.73h0c-.31,1-.65,2.1-1.09,3.28l-1.53,4.2h-.84l-1.42-4.12c-.41-1.22-.74-2.34-1-3.36h0c0,1.08-.09,2.53-.17,3.82l-.23,3.71h-1.06l.6-8.65h1.43l1.47,4.19c.36,1.06.64,2,.87,2.92h0c.23-.87.54-1.83.92-2.92l1.54-4.19h1.43l.54,8.65h-1.11Z" transform="translate(-57.5 -50.12)"/><path class="cls-1" d="M163.13,109.51l-.9,2.72h-1.15l2.94-8.65h1.34l3,8.65h-1.2l-.92-2.72Zm2.84-.87-.86-2.49c-.18-.57-.31-1.08-.44-1.58h0c-.11.5-.25,1-.42,1.57l-.85,2.5Z" transform="translate(-57.5 -50.12)"/><path class="cls-1" d="M171.21,103.58v8.65h-1.13v-8.65Z" transform="translate(-57.5 -50.12)"/><path class="cls-1" d="M173.66,112.23v-8.65h1.23l2.76,4.38a23.73,23.73,0,0,1,1.54,2.81h0c-.1-1.16-.13-2.21-.13-3.55v-3.63h1.05v8.65H179l-2.74-4.39a24.74,24.74,0,0,1-1.61-2.89l0,0c.07,1.09.08,2.13.08,3.57v3.69Z" transform="translate(-57.5 -50.12)"/><path class="cls-1" d="M184.25,104.53h-2.63v-1H188v1h-2.64v7.7h-1.13Z" transform="translate(-57.5 -50.12)"/><path class="cls-1" d="M194,108.18h-3.35v3.12h3.74v.93h-4.87v-8.65h4.68v.94h-3.55v2.73H194Z" transform="translate(-57.5 -50.12)"/><path class="cls-1" d="M196.31,112.23v-8.65h1.23L200.3,108a23.73,23.73,0,0,1,1.54,2.81h0c-.11-1.16-.13-2.21-.13-3.55v-3.63h1.05v8.65h-1.13l-2.75-4.39a24.63,24.63,0,0,1-1.6-2.89l0,0c.07,1.09.08,2.13.08,3.57v3.69Z" transform="translate(-57.5 -50.12)"/><path class="cls-1" d="M206.65,109.51l-.9,2.72H204.6l2.94-8.65h1.35l3,8.65h-1.2l-.92-2.72Zm2.84-.87-.86-2.49c-.18-.57-.31-1.08-.44-1.58h0c-.11.5-.25,1-.42,1.57l-.85,2.5Z" transform="translate(-57.5 -50.12)"/><path class="cls-1" d="M213.61,112.23v-8.65h1.23L217.6,108a23.73,23.73,0,0,1,1.54,2.81h0c-.1-1.16-.13-2.21-.13-3.55v-3.63h1.06v8.65H219l-2.75-4.39a26.3,26.3,0,0,1-1.61-2.89l0,0c.06,1.09.07,2.13.07,3.57v3.69Z" transform="translate(-57.5 -50.12)"/><path class="cls-1" d="M228.59,112a5.41,5.41,0,0,1-2.28.41,4,4,0,0,1-4.26-4.38,4.29,4.29,0,0,1,4.51-4.53,4.81,4.81,0,0,1,2.06.38l-.28.92a4,4,0,0,0-1.74-.36,3.21,3.21,0,0,0-3.37,3.56,3.13,3.13,0,0,0,3.31,3.46,4.45,4.45,0,0,0,1.83-.36Z" transform="translate(-57.5 -50.12)"/><path class="cls-1" d="M235,108.18h-3.35v3.12h3.75v.93h-4.88v-8.65h4.69v.94h-3.56v2.73H235Z" transform="translate(-57.5 -50.12)"/><path class="cls-1" d="M241.37,110.22a1.35,1.35,0,1,1,1.36-1.35,1.36,1.36,0,0,1-1.35,1.35Z" transform="translate(-57.5 -50.12)"/><path class="cls-1" d="M247.89,103.71a11.19,11.19,0,0,1,2.14-.19,3.56,3.56,0,0,1,2.52.72,2.16,2.16,0,0,1,.68,1.64,2.27,2.27,0,0,1-1.63,2.19v0a2.22,2.22,0,0,1,1.27,1.75,16.38,16.38,0,0,0,.65,2.37h-1.15a10.63,10.63,0,0,1-.57-2.06c-.25-1.2-.73-1.65-1.74-1.69H249v3.75h-1.11Zm1.11,3.93h1.15c1.19,0,1.95-.66,1.95-1.65s-.81-1.6-2-1.6a4.91,4.91,0,0,0-1.11.1Z" transform="translate(-57.5 -50.12)"/><path class="cls-1" d="M259.76,108.18h-3.35v3.12h3.75v.93h-4.88v-8.65H260v.94h-3.56v2.73h3.35Z" transform="translate(-57.5 -50.12)"/><path class="cls-1" d="M262.11,103.7a11,11,0,0,1,2.15-.18,3.5,3.5,0,0,1,2.42.72,2.3,2.3,0,0,1,.77,1.79,2.49,2.49,0,0,1-.68,1.85,4.33,4.33,0,0,1-3.54.87v3.48h-1.12Zm1.12,4.14a3.44,3.44,0,0,0,.92.09c1.35,0,2.17-.65,2.17-1.83s-.81-1.7-2-1.7a4.71,4.71,0,0,0-1,.09Z" transform="translate(-57.5 -50.12)"/><path class="cls-1" d="M269.76,109.51l-.89,2.72h-1.16l2.94-8.65H272l2.95,8.65h-1.19l-.93-2.72Zm2.84-.87-.86-2.49c-.18-.57-.31-1.08-.44-1.58h0c-.12.5-.26,1-.43,1.57l-.85,2.5Z" transform="translate(-57.5 -50.12)"/><path class="cls-1" d="M277.84,103.58v8.65h-1.13v-8.65Z" transform="translate(-57.5 -50.12)"/><path class="cls-1" d="M280.29,103.71a11.38,11.38,0,0,1,2.15-.19,3.55,3.55,0,0,1,2.51.72,2.16,2.16,0,0,1,.68,1.64,2.27,2.27,0,0,1-1.63,2.19v0a2.2,2.2,0,0,1,1.27,1.75,14.75,14.75,0,0,0,.66,2.37h-1.16a10.9,10.9,0,0,1-.56-2.06c-.26-1.2-.74-1.65-1.75-1.69h-1v3.75h-1.12Zm1.12,3.93h1.14c1.19,0,1.95-.66,1.95-1.65s-.81-1.6-2-1.6a4.74,4.74,0,0,0-1.1.1Z" transform="translate(-57.5 -50.12)"/><path class="cls-1" d="M287.56,110.87a3.89,3.89,0,0,0,2,.55c1.14,0,1.81-.59,1.81-1.46s-.47-1.28-1.63-1.72c-1.41-.49-2.29-1.23-2.29-2.44s1.12-2.35,2.8-2.35a4.12,4.12,0,0,1,1.9.41l-.31.93a3.18,3.18,0,0,0-1.63-.41c-1.18,0-1.63.7-1.63,1.29,0,.8.53,1.2,1.72,1.66,1.46.58,2.2,1.27,2.2,2.54s-1,2.49-3,2.49a4.57,4.57,0,0,1-2.21-.56Z" transform="translate(-57.5 -50.12)"/><path class="cls-2" d="M204,61.15l3.81-9.57A23.29,23.29,0,0,0,179.07,64l9.55,3.8A13,13,0,0,1,204,61.15Z" transform="translate(-57.5 -50.12)"/><path class="cls-3" d="M187.82,69.85l-9.56-3.8a23.3,23.3,0,0,0,12.42,28.81l3.8-9.57A13,13,0,0,1,187.82,69.85Z" transform="translate(-57.5 -50.12)"/><path class="cls-4" d="M196.5,86.09l-3.8,9.57a23.28,23.28,0,0,0,28.81-12.42l-9.57-3.8A13,13,0,0,1,196.5,86.09Z" transform="translate(-57.5 -50.12)"/><path class="cls-5" d="M212.74,77.42l9.57,3.8a23.29,23.29,0,0,0-12.5-28.84L206,61.94A13,13,0,0,1,212.74,77.42Z" transform="translate(-57.5 -50.12)"/></svg>