<svg id="Layer_1" data-name="Layer 1" xmlns="http://www.w3.org/2000/svg" viewBox="0 0 21.39 22.31"><defs><style>.cls-1{fill:#e43439;}.cls-1,.cls-2,.cls-3,.cls-4{fill-rule:evenodd;}.cls-2{fill:#0079bb;}.cls-3{fill:#f08f00;}.cls-4{fill:#54ab42;}</style></defs><title>refresh_icon </title><path class="cls-1" d="M9.64,1a1,1,0,0,0-.94.94l0,4.93a.94.94,0,0,1-.94.94l-5.23,0a.94.94,0,0,0-.94.94v.45a1,1,0,0,0,.94.94l7.63,0a.94.94,0,0,0,.93-.94l0-7.26A.94.94,0,0,0,10.15,1Z" transform="translate(-1.61 -0.94)"/><path class="cls-2" d="M14.93.94a.94.94,0,0,1,.94.93V6.8a.94.94,0,0,0,.94.93h5.24a.94.94,0,0,1,.94.93v.46a.94.94,0,0,1-.94.94l-7.62,0a.94.94,0,0,1-.94-.93l0-7.26a.94.94,0,0,1,.94-.94Z" transform="translate(-1.61 -0.94)"/><path class="cls-3" d="M9.7,21.46a.94.94,0,0,1-.94-.94l0-5a.94.94,0,0,0-.94-.94l-5.23,0a.94.94,0,0,1-.94-.94v-.4a1,1,0,0,1,.94-.95l7.62,0a.94.94,0,0,1,.94.94l0,7.26a1,1,0,0,1-.94.94Z" transform="translate(-1.61 -0.94)"/><path class="cls-4" d="M14.16,22.65a.91.91,0,0,1,0-1.31l3.67-3.52a.9.9,0,0,0,0-1.3L14.14,13a.89.89,0,0,1,0-1.3l.31-.29a1,1,0,0,1,1.36,0l5.4,5.1a.89.89,0,0,1,0,1.3L15.83,23a1,1,0,0,1-1.35,0Z" transform="translate(-1.61 -0.94)"/></svg>