<?xml version="1.0" encoding="UTF-8"?>
<svg width="75px" height="14px" viewBox="0 0 75 14" version="1.1" xmlns="http://www.w3.org/2000/svg" xmlns:xlink="http://www.w3.org/1999/xlink">
    <!-- Generator: Sketch 61.2 (89653) - https://sketch.com -->
    <title>noun_Arrow_1711559 Copy</title>
    <desc>Created with Sketch.</desc>
    <g id="Oncore-HHS" stroke="none" stroke-width="1" fill="none" fill-rule="evenodd">
        <g id="Home" transform="translate(-882.000000, -3409.000000)" fill="#000000" fill-rule="nonzero">
            <g id="Group-20" transform="translate(0.000000, 3126.000000)">
                <g id="noun_Arrow_1711559-Copy" transform="translate(882.000000, 283.000000)">
                    <g id="Group">
                        <g id="noun_Arrow_3022742">
                            <rect id="Rectangle" x="0.19" y="6" width="72.775" height="2"></rect>
                            <path d="M66.605,13.819 C66.295,13.819 65.99,13.675 65.794,13.406 C65.47,12.959 65.569,12.333 66.017,12.01 L72.389,7.393 C72.552,7.275 72.645,7.141 72.645,7.025 C72.646,6.909 72.553,6.774 72.39,6.655 L66.012,1.988 C65.567,1.662 65.47,1.036 65.796,0.591 C66.121,0.145 66.745,0.048 67.193,0.374 L73.571,5.041 C74.255,5.541 74.646,6.266 74.6440076,7.029 C74.643,7.792 74.248,8.515 73.562,9.012 L67.19,13.629 C67.014,13.757 66.809,13.819 66.605,13.819 Z" id="Path"></path>
                        </g>
                    </g>
                </g>
            </g>
        </g>
    </g>
</svg>