<?xml version="1.0" encoding="UTF-8"?>
<svg width="75px" height="62px" viewBox="0 0 75 62" version="1.1" xmlns="http://www.w3.org/2000/svg" xmlns:xlink="http://www.w3.org/1999/xlink">
    <!-- Generator: Sketch 61.2 (89653) - https://sketch.com -->
    <title>Group 13</title>
    <desc>Created with Sketch.</desc>
    <g id="Oncore-HHS" stroke="none" stroke-width="1" fill="none" fill-rule="evenodd">
        <g id="Home" transform="translate(-151.000000, -5044.000000)" stroke-width="2">
            <g id="Group-19" transform="translate(0.000000, 4807.000000)">
                <g id="Group-13" transform="translate(152.000000, 238.000000)">
                    <path d="M57.5288077,29.5481538 C49.3134231,29.5481538 42.6534231,36.2081538 42.6534231,44.4246923 C42.6534231,52.6400769 49.3134231,59.3000769 57.5288077,59.3000769 C65.7441923,59.3000769 72.4053462,52.6400769 72.4053462,44.4246923 C72.4053462,36.2081538 65.7441923,29.5481538 57.5288077,29.5481538 Z" id="Stroke-1" stroke="#29245E"></path>
                    <polyline id="Stroke-3" stroke="#29245E" stroke-linecap="round" points="51.2733462 44.1019615 55.6579615 48.4877308 63.7845 40.3611923"></polyline>
                    <path d="M-0.000115384615,53.9862692 L-0.000115384615,38.4935769 C-0.000115384615,35.5005 2.42757692,33.0728077 5.42180769,33.0728077 L6.33565385,33.0728077 C9.32988462,33.0728077 11.7575769,35.5005 11.7575769,38.4935769 L11.7575769,53.9862692 C11.7575769,56.9816538 9.32988462,59.4081923 6.33565385,59.4081923 L5.42180769,59.4081923 C2.42757692,59.4081923 -0.000115384615,56.9816538 -0.000115384615,53.9862692 Z" id="Stroke-5" stroke="#29245E" stroke-linecap="round"></path>
                    <path d="M19.4952692,53.9862692 L19.4952692,24.9970385 C19.4952692,22.0016538 21.9229615,19.5751154 24.9171923,19.5751154 L25.8310385,19.5751154 C28.8252692,19.5751154 31.2529615,22.0016538 31.2529615,24.9970385 L31.2529615,53.9862692 C31.2529615,56.9816538 28.8252692,59.4081923 25.8310385,59.4081923 L24.9171923,59.4081923 C21.9229615,59.4081923 19.4952692,56.9816538 19.4952692,53.9862692 Z" id="Stroke-7" stroke="#29245E" stroke-linecap="round"></path>
                    <path d="M44.8691538,59.4084231 L44.8691538,59.4084231 C41.6222308,59.4084231 38.9903077,56.7765 38.9903077,53.5295769 L38.9903077,5.87803846 C38.9903077,2.63226923 41.6222308,0.000346153846 44.8691538,0.000346153846 C48.1160769,0.000346153846 50.748,2.63226923 50.748,5.87803846 L50.748,27.3291923" id="Stroke-9" stroke="#29245E" stroke-linecap="round"></path>
                    <path d="M38.9906538,34.2774231 L38.9906538,5.87896154 C38.9906538,2.63203846 41.6225769,0.000115384615 44.8695,0.000115384615 C48.1164231,0.000115384615 50.7483462,2.63203846 50.7483462,5.87896154 L50.7483462,27.3301154" id="Stroke-11" stroke="#4FAE47" stroke-linecap="round"></path>
                </g>
            </g>
        </g>
    </g>
</svg>