<svg width="24" height="27" xmlns="http://www.w3.org/2000/svg">
  <g stroke="#F7F9F9" stroke-width="2" fill="none" fill-rule="evenodd" stroke-linecap="round">
    <path d="M1.56 9.46a8.59 8.59 0 0 0 7.96 11.63c1.77 0 3.41-.54 4.77-1.47l5.86 5.89a1.61 1.61 0 1 0 2.27-2.3l-5.85-5.88a8.55 8.55 0 0 0 1.19-6.96"/>
    <path d="M15.6 6.67c0 1.66-1.12 3.35-2.36 4.75-1.04 1.16-2.16 2.12-2.78 2.68a.73.73 0 0 1-.98 0C8.1 12.86 4.33 9.7 4.33 6.67A5.65 5.65 0 0 1 9.97 1a5.65 5.65 0 0 1 5.63 5.67z"/>
  </g>
</svg>
