<svg width="156" height="156" xmlns="http://www.w3.org/2000/svg" xmlns:xlink="http://www.w3.org/1999/xlink">
  <defs>
    <circle id="b" cx="53" cy="53" r="53"/>
    <filter x="-30.7%" y="-30.7%" width="185.8%" height="185.8%" filterUnits="objectBoundingBox" id="a">
      <feOffset dx="-1" dy="-1" in="SourceAlpha" result="shadowOffsetOuter1"/>
      <feGaussianBlur stdDeviation="1" in="shadowOffsetOuter1" result="shadowBlurOuter1"/>
      <feColorMatrix values="0 0 0 0 1 0 0 0 0 1 0 0 0 0 1 0 0 0 1 0" in="shadowBlurOuter1" result="shadowMatrixOuter1"/>
      <feOffset dx="13" dy="13" in="SourceAlpha" result="shadowOffsetOuter2"/>
      <feGaussianBlur stdDeviation="13" in="shadowOffsetOuter2" result="shadowBlurOuter2"/>
      <feColorMatrix values="0 0 0 0 0.419607843 0 0 0 0 0.42745098 0 0 0 0 0.462745098 0 0 0 0.4 0" in="shadowBlurOuter2" result="shadowMatrixOuter2"/>
      <feMerge>
        <feMergeNode in="shadowMatrixOuter1"/>
        <feMergeNode in="shadowMatrixOuter2"/>
      </feMerge>
    </filter>
  </defs>
  <g fill="none" fill-rule="evenodd">
    <g transform="translate(12 12)">
      <use fill="#000" filter="url(#a)" xlink:href="#b"/>
      <use fill="#E6E9EF" xlink:href="#b"/>
    </g>
    <g stroke="#29245E" stroke-width="2">
      <path d="M86.54 59.85v-4c0-.54-.27-1.04-.71-1.35L65.57 40.3c-.56-.4-1.31-.4-1.88-.01l-20.96 14.2c-.46.32-.73.83-.73 1.38v29.58c0 .92.74 1.66 1.66 1.66h27.23" stroke-linecap="round"/>
      <path d="M81.55 62.78a12.16 12.16 0 1 0 0 24.33 12.16 12.16 0 0 0 0-24.33z"/>
      <path stroke-linecap="round" d="M76.44 74.68l3.58 3.59 6.64-6.65"/>
    </g>
  </g>
</svg>
