<svg width="201" height="183" xmlns="http://www.w3.org/2000/svg" xmlns:xlink="http://www.w3.org/1999/xlink">
  <defs>
    <circle id="b" cx="53" cy="53" r="53"/>
    <filter x="-30.7%" y="-30.7%" width="185.8%" height="185.8%" filterUnits="objectBoundingBox" id="a">
      <feOffset dx="-1" dy="-1" in="SourceAlpha" result="shadowOffsetOuter1"/>
      <feGaussianBlur stdDeviation="1" in="shadowOffsetOuter1" result="shadowBlurOuter1"/>
      <feColorMatrix values="0 0 0 0 1 0 0 0 0 1 0 0 0 0 1 0 0 0 1 0" in="shadowBlurOuter1" result="shadowMatrixOuter1"/>
      <feOffset dx="13" dy="13" in="SourceAlpha" result="shadowOffsetOuter2"/>
      <feGaussianBlur stdDeviation="13" in="shadowOffsetOuter2" result="shadowBlurOuter2"/>
      <feColorMatrix values="0 0 0 0 0.419607843 0 0 0 0 0.42745098 0 0 0 0 0.462745098 0 0 0 0.4 0" in="shadowBlurOuter2" result="shadowMatrixOuter2"/>
      <feMerge>
        <feMergeNode in="shadowMatrixOuter1"/>
        <feMergeNode in="shadowMatrixOuter2"/>
      </feMerge>
    </filter>
    <path d="M5.77 1.34c-17.05 12.41 7.33 54.64 26.6 46.08 1.9-.84 3.71-1.76 2.26-5.07a19.92 19.92 0 0 0-3.7-5.5c-2.46-2.68-4.38-2.18-6.21-1.34-9.5 4.35-20.97-15.54-12.46-21.58 1.64-1.17 3.04-2.59 1.95-6.06a19.91 19.91 0 0 0-2.92-5.96C10.29.55 9.38.07 8.53.07c-.97 0-1.87.62-2.76 1.27z" id="c"/>
    <path d="M5.77 1.34c-17.05 12.41 7.33 54.64 26.6 46.08 1.9-.84 3.71-1.76 2.26-5.07a19.92 19.92 0 0 0-3.7-5.5c-2.46-2.68-4.38-2.18-6.21-1.34-9.5 4.35-20.97-15.54-12.46-21.58 1.64-1.17 3.04-2.59 1.95-6.06a19.91 19.91 0 0 0-2.92-5.96C10.29.55 9.38.07 8.53.07c-.97 0-1.87.62-2.76 1.27z" id="e"/>
  </defs>
  <g fill="none" fill-rule="evenodd">
    <g transform="translate(47.5 31.5)">
      <use fill="#000" filter="url(#a)" xlink:href="#b"/>
      <use fill="#E6E9EF" xlink:href="#b"/>
    </g>
    <g stroke="#29245E" stroke-width="2">
      <path d="M103.43 84.5a2.37 2.37 0 1 1-3.96-2.6 2.37 2.37 0 0 1 3.96 2.6zM110.97 84.5a2.37 2.37 0 1 1-3.96-2.6 2.37 2.37 0 0 1 3.96 2.6zM117.97 84.5a2.37 2.37 0 1 1-3.95-2.6 2.37 2.37 0 0 1 3.95 2.6z"/>
    </g>
    <g transform="translate(81.5 60.13)">
      <mask id="d" fill="#fff">
        <use xlink:href="#c"/>
      </mask>
      <path stroke="#29245E" stroke-width="2" mask="url(#d)" d="M-2.68 51.25h40.53V-2.62H-2.68z"/>
    </g>
    <g transform="translate(81.5 60.13)">
      <mask id="f" fill="#fff">
        <use xlink:href="#e"/>
      </mask>
      <path stroke="#29245E" mask="url(#f)" d="M-142.92 337.26h775.64V-214.3h-775.64z"/>
    </g>
    <path d="M113.87 107.54c1.9-.84 3.71-1.75 2.26-5.06a19.88 19.88 0 0 0-3.7-5.51c-2.46-2.67-4.38-2.18-6.21-1.34-9.5 4.35-20.97-15.53-12.46-21.58 1.64-1.17 3.03-2.58 1.95-6.05a19.89 19.89 0 0 0-2.92-5.96c-2.15-2.9-3.85-1.8-5.52-.57-17.05 12.4 7.33 54.63 26.6 46.07z" stroke="#29245E" stroke-width="2"/>
  </g>
</svg>
