<svg width="156" height="156" xmlns="http://www.w3.org/2000/svg" xmlns:xlink="http://www.w3.org/1999/xlink">
  <defs>
    <circle id="b" cx="53" cy="53" r="53"/>
    <filter x="-30.7%" y="-30.7%" width="185.8%" height="185.8%" filterUnits="objectBoundingBox" id="a">
      <feOffset dx="-1" dy="-1" in="SourceAlpha" result="shadowOffsetOuter1"/>
      <feGaussianBlur stdDeviation="1" in="shadowOffsetOuter1" result="shadowBlurOuter1"/>
      <feColorMatrix values="0 0 0 0 1 0 0 0 0 1 0 0 0 0 1 0 0 0 1 0" in="shadowBlurOuter1" result="shadowMatrixOuter1"/>
      <feOffset dx="13" dy="13" in="SourceAlpha" result="shadowOffsetOuter2"/>
      <feGaussianBlur stdDeviation="13" in="shadowOffsetOuter2" result="shadowBlurOuter2"/>
      <feColorMatrix values="0 0 0 0 0.419607843 0 0 0 0 0.42745098 0 0 0 0 0.462745098 0 0 0 0.4 0" in="shadowBlurOuter2" result="shadowMatrixOuter2"/>
      <feMerge>
        <feMergeNode in="shadowMatrixOuter1"/>
        <feMergeNode in="shadowMatrixOuter2"/>
      </feMerge>
    </filter>
  </defs>
  <g fill="none" fill-rule="evenodd">
    <g transform="translate(12 12)">
      <use fill="#000" filter="url(#a)" xlink:href="#b"/>
      <use fill="#E6E9EF" xlink:href="#b"/>
    </g>
    <path d="M75.45 72.45a11.5 11.5 0 0 1-4.07 4.07 11.73 11.73 0 1 1 4.07-4.07zM54.84 55.9a14.9 14.9 0 0 0 18.61 23.05l9.51 9.51a3.12 3.12 0 0 0 4.44 0 3.14 3.14 0 0 0 0-4.44l-9.5-9.5A14.9 14.9 0 0 0 54.83 55.9z" stroke="#29245E" stroke-width="2"/>
    <path stroke="#29245E" stroke-width="2" stroke-linecap="round" d="M72.94 64.3H58.18M69.58 69.44h-11.4M86.54 75.88V55.85c0-.54-.27-1.04-.71-1.35L65.57 40.3c-.56-.4-1.31-.4-1.88-.01l-20.96 14.2c-.46.32-.73.83-.73 1.38v29.58c0 .92.74 1.66 1.66 1.66h31.66"/>
  </g>
</svg>
