<?xml version="1.0" encoding="UTF-8"?>
<svg width="47px" height="52px" viewBox="0 0 47 52" version="1.1" xmlns="http://www.w3.org/2000/svg" xmlns:xlink="http://www.w3.org/1999/xlink">
    <!-- Generator: Sketch 61.2 (89653) - https://sketch.com -->
    <title>Group 9</title>
    <desc>Created with Sketch.</desc>
    <g id="Oncore-HHS" stroke="none" stroke-width="1" fill="none" fill-rule="evenodd" stroke-linecap="round">
        <g id="Home" transform="translate(-1082.000000, -3378.000000)" stroke="#29245E" stroke-width="2">
            <g id="Group-20" transform="translate(0.000000, 3126.000000)">
                <g id="Group-9" transform="translate(1083.000000, 253.000000)">
                    <path d="M1.65785714,47.1083036 C0.742678571,47.1083036 0.000714285714,46.3663393 0.000714285714,45.4511607 L0.000714285714,15.8547321 C0.000714285714,15.3136607 0.263214286,14.8065179 0.706964286,14.4966964 L20.9641071,0.300267857 C21.5283929,-0.094375 22.2766071,-0.100625 22.84625,0.285982143 L43.8096429,14.499375 C44.2641071,14.8065179 44.5364286,15.3208036 44.5364286,15.8708036 L44.5364286,45.4511607 C44.5364286,46.3663393 43.7944643,47.1083036 42.8792857,47.1083036 L36.5221429,47.1083036" id="Stroke-1"></path>
                    <path d="M5.39839286,46.545 L5.39839286,41.5057143 C5.39839286,39.7101786 6.85553571,38.2530357 8.65196429,38.2530357 C10.4483929,38.2530357 11.9046429,39.7101786 11.9046429,41.5057143 L11.9046429,46.545 C11.9046429,48.3414286 10.4483929,49.7985714 8.65196429,49.7985714 C6.85553571,49.7985714 5.39839286,48.3414286 5.39839286,46.545 Z" id="Stroke-3"></path>
                    <path d="M16.2853571,46.545 L16.2853571,35.5896429 C16.2853571,33.7932143 17.7416071,32.3369643 19.5389286,32.3369643 C21.3344643,32.3369643 22.7916071,33.7932143 22.7916071,35.5896429 L22.7916071,46.545 C22.7916071,48.3414286 21.3344643,49.7985714 19.5389286,49.7985714 C17.7416071,49.7985714 16.2853571,48.3414286 16.2853571,46.545 Z" id="Stroke-5"></path>
                    <path d="M40.1500893,29.2833929 C39.5161607,29.9173214 38.6858036,30.2378571 37.8554464,30.2378571 C37.0161607,30.2378571 36.1858036,29.9173214 35.551875,29.2833929 L33.5697321,27.3003571 L33.5697321,46.53875 C33.5697321,48.3333929 32.1054464,49.7985714 30.3197321,49.7985714 C29.426875,49.7985714 28.614375,49.4316071 28.0250893,48.8423214 C27.4358036,48.2530357 27.0697321,47.4316071 27.0697321,46.53875 L27.0697321,27.3003571 L25.0875893,29.2833929 C24.4536607,29.9173214 23.6233036,30.2378571 22.7840179,30.2378571 C21.9536607,30.2378571 21.1224107,29.9173214 20.4884821,29.2833929 C19.2215179,28.0155357 19.2215179,25.9530357 20.4884821,24.6851786 L27.7929464,17.3905357 C27.7304464,17.4708929 27.676875,17.5503571 27.6233036,17.6307143 C27.7125893,17.5066071 27.8108036,17.3816071 27.9090179,17.2744643 L28.0250893,17.1485714 C28.176875,16.9967857 28.3375893,16.86375 28.5072321,16.7476786 C28.5161607,16.7476786 28.5161607,16.7476786 28.5241964,16.7378571 C28.5241964,16.7378571 28.5340179,16.7378571 28.5340179,16.7289286 C28.614375,16.6851786 28.6947321,16.6316071 28.7750893,16.5860714 C28.7840179,16.5860714 28.7929464,16.5780357 28.801875,16.5691071 C28.8911607,16.5333929 28.970625,16.48875 29.0608036,16.4530357 C29.0697321,16.4441071 29.0786607,16.4441071 29.0965179,16.4342857 C29.1322321,16.42625 29.1679464,16.4083929 29.1938393,16.3985714 C29.3733036,16.3271429 29.5688393,16.2825 29.7572321,16.2467857 C29.9447321,16.2208929 30.1322321,16.2030357 30.3197321,16.2030357 L31.4447321,16.3985714 L31.5429464,16.4342857 C31.5608036,16.4441071 31.5697321,16.4441071 31.5777679,16.4530357 L31.8366964,16.5691071 C31.8465179,16.5780357 31.8554464,16.5860714 31.864375,16.5860714 L32.1054464,16.7289286 C32.1054464,16.7378571 32.114375,16.7378571 32.114375,16.7378571 C32.1233036,16.7476786 32.1233036,16.7476786 32.1322321,16.7476786 L32.614375,17.1485714 C32.7652679,17.2914286 32.8911607,17.4619643 33.0161607,17.6307143 C32.9625893,17.5503571 32.9090179,17.4708929 32.8465179,17.3905357 L40.1500893,24.6851786 C41.4179464,25.9530357 41.4179464,28.0155357 40.1500893,29.2833929 Z" id="Stroke-7"></path>
                </g>
            </g>
        </g>
    </g>
</svg>