<?xml version="1.0" encoding="UTF-8"?>
<svg width="49px" height="52px" viewBox="0 0 49 52" version="1.1" xmlns="http://www.w3.org/2000/svg" xmlns:xlink="http://www.w3.org/1999/xlink">
    <!-- Generator: Sketch 61.2 (89653) - https://sketch.com -->
    <title>Group 9</title>
    <desc>Created with Sketch.</desc>
    <g id="Oncore-HHS" stroke="none" stroke-width="1" fill="none" fill-rule="evenodd">
        <g id="Home" transform="translate(-696.000000, -3378.000000)" stroke="#29245E" stroke-width="2">
            <g id="Group-20" transform="translate(0.000000, 3126.000000)">
                <g id="Group-9" transform="translate(697.000000, 253.000000)">
                    <path d="M33.4525893,32.4491071 C32.9677679,33.2705357 32.373125,34.0366071 31.6704464,34.7392857 C30.9677679,35.4428571 30.2008036,36.0375 29.379375,36.5223214 C24.8766964,39.2116071 18.9579464,38.6178571 15.0802679,34.7392857 C10.4990179,30.1598214 10.4990179,22.7303571 15.0802679,18.1491071 C19.660625,13.56875 27.0900893,13.56875 31.6704464,18.1491071 C35.548125,22.0267857 36.141875,27.9455357 33.4525893,32.4491071 Z M12.835625,15.9053571 C7.01776786,21.7232143 7.02223214,31.1607143 12.8409821,36.9785714 C17.898125,42.0357143 25.6784821,42.6982143 31.4525893,38.9616071 L40.9633036,48.4714286 C41.5766964,49.0848214 42.3775893,49.3919643 43.1784821,49.3919643 C43.9883036,49.3919643 44.7891964,49.0848214 45.4025893,48.4714286 C46.6284821,47.2455357 46.6284821,45.2589286 45.4025893,44.0330357 L35.891875,34.5214286 C39.6284821,28.7482143 38.9659821,20.9678571 33.9097321,15.9107143 C28.0909821,10.0919643 18.654375,10.0875 12.835625,15.9053571 Z" id="Stroke-1"></path>
                    <line x1="30.943125" y1="24.2965179" x2="16.1788393" y2="24.2965179" id="Stroke-3" stroke-linecap="round"></line>
                    <line x1="27.5779464" y1="29.4435714" x2="16.1788393" y2="29.4435714" id="Stroke-5" stroke-linecap="round"></line>
                    <path d="M44.5365179,35.8766071 L44.5365179,15.8542857 C44.5365179,15.3141071 44.273125,14.8069643 43.8302679,14.4971429 L23.5722321,0.299821429 C23.0088393,-0.0948214286 22.2597321,-0.100178571 21.6909821,0.285535714 L0.727589286,14.4989286 C0.272232143,14.8069643 -8.92857143e-05,15.32125 -8.92857143e-05,15.87125 L-8.92857143e-05,45.4507143 C-8.92857143e-05,46.3658929 0.741875,47.1078571 1.65794643,47.1078571 L33.3186607,47.1078571" id="Stroke-7" stroke-linecap="round"></path>
                </g>
            </g>
        </g>
    </g>
</svg>