<?xml version="1.0" encoding="utf-8"?>
<!-- Generator: Adobe Illustrator 24.1.0, SVG Export Plug-In . SVG Version: 6.00 Build 0)  -->
<svg version="1.1" id="Layer_1" xmlns="http://www.w3.org/2000/svg" xmlns:xlink="http://www.w3.org/1999/xlink" x="0px" y="0px"
	 viewBox="0 0 1440 495" style="enable-background:new 0 0 1440 495;" xml:space="preserve">
<style type="text/css">
	.st0{fill:#E6E9EF;}
	.st1{fill:none;stroke:#979797;stroke-linecap:square;}
	.st2{fill-rule:evenodd;clip-rule:evenodd;fill:#594FCC;}
</style>
<desc>Created with Sketch.</desc>
<g id="Oncore-HHS">
	<g id="Home" transform="translate(0.000000, -4062.000000)">
		<g id="Group-18" transform="translate(-1.000000, 3888.000000)">
			<g id="Group-5" transform="translate(0.000000, 155.000000)">
				<g id="Group-27" transform="translate(0.000000, 19.500000)">
					<path class="st0" d="M640.6,332.5C640.6,332.5,640.6,332.5,640.6,332.5l-629.5-0.2c-5.2,0-9.5-4.3-9.5-9.5v0
						c0-5.2,4.3-9.5,9.5-9.5l629.4,0.2l0,0c2.8,0,5.6-0.7,8-2.2c4.7-2.9,7.4-7.7,7.5-13c0-0.1,0-0.2,0-0.3v-12.9
						c0-19.1,15.5-34.6,34.6-34.6h740.3c5.2,0,9.5,4.3,9.5,9.5l0,0c0,5.2-4.3,9.5-9.5,9.5H690.7c-8.6,0-15.6,7-15.6,15.6v12.6
						c0,0.1,0,0.3,0,0.4c0,9.2-3.6,17.9-10.1,24.4C658.5,328.9,649.8,332.5,640.6,332.5z"/>
					<line id="Line-4" class="st1" x1="61.5" y1="323" x2="61.5" y2="63"/>
					<line id="Line-4-Copy" class="st1" x1="395.5" y1="494" x2="395.5" y2="323"/>
					<circle id="Oval" class="st2" cx="61.5" cy="323" r="9.5"/>
					<circle id="Oval-Copy" class="st2" cx="395.5" cy="323" r="9.5"/>
					<line id="Line-4-Copy-2" class="st1" x1="731" y1="260" x2="731" y2="0"/>
					<line id="Line-4-Copy-3" class="st1" x1="1064.5" y1="405" x2="1064" y2="260"/>
					<circle id="Oval-Copy-2" class="st2" cx="731.5" cy="260" r="9.5"/>
					<circle id="Oval-Copy-3" class="st2" cx="1064.5" cy="260" r="9.5"/>
				</g>
			</g>
		</g>
	</g>
</g>
</svg>
