<?xml version="1.0" encoding="UTF-8"?>
<svg width="20px" height="20px" viewBox="0 0 20 20" version="1.1" xmlns="http://www.w3.org/2000/svg" xmlns:xlink="http://www.w3.org/1999/xlink">
    <!-- Generator: Sketch 53.2 (72643) - https://sketchapp.com -->
    <title>clock</title>
    <desc>Created with Sketch.</desc>
    <g id="Design---Refinements" stroke="none" stroke-width="1" fill="none" fill-rule="evenodd">
        <g id="Post-Page-Type-" transform="translate(-225.000000, -828.000000)" fill="#FFFFFF">
            <g id="clock" transform="translate(225.000000, 828.000000)">
                <path d="M19.2016993,6.10722222 C18.1472549,3.64888889 16.3554248,1.86101307 13.8765686,0.80379085 C12.6376144,0.275392157 11.3396078,0.00549019608 9.98356209,0.00549019608 C8.6277451,0.00549019608 7.33931373,0.272843137 6.10173203,0.80379085 C3.64339869,1.85820261 1.84362745,3.64493464 0.787320261,6.10722222 C0.258006536,7.34081699 0,8.63320261 0,9.98901961 C0,11.345098 0.258006536,12.6482026 0.787320261,13.8820588 C1.84362745,16.3443464 3.64362745,18.1417974 6.10173203,19.1964706 C7.33954248,19.7274183 8.62771242,19.9945098 9.98356209,19.9945098 C11.3394118,19.9945098 12.6376144,19.7246078 13.8763725,19.1964706 C16.3552288,18.1392157 18.1470588,16.3401634 19.201732,13.8820588 C19.7326471,12.6442484 20,11.345098 20,9.98901961 C20,8.63320261 19.7328758,7.345 19.2016993,6.10722222 Z M17.6053595,14.4069608 C16.8203595,15.7532026 15.7449346,16.8212092 14.3904902,17.6108497 C13.0442484,18.3958497 11.569183,18.791732 9.98379085,18.791732 C8.79196078,18.791732 7.65470588,18.5621895 6.57202614,18.0918954 C5.48937908,17.6218301 4.55460784,17.0038562 3.77264706,16.2221242 C2.99068627,15.4401634 2.36830065,14.4962745 1.9029085,13.4117647 C1.43888889,12.3312092 1.21401961,11.1811111 1.21401961,9.98905229 C1.21401961,8.40343137 1.60359477,6.93584967 2.38418301,5.59333333 C3.16754902,4.24591503 4.24320261,3.17676471 5.5880719,2.38941176 C6.93271242,1.6020915 8.39820261,1.20830065 9.98356209,1.20830065 C11.569183,1.20830065 13.0439869,1.60441176 14.3902614,2.38941176 C15.7447059,3.17908497 16.8178105,4.24820261 17.6051307,5.59330065 C18.392451,6.93816993 18.7860131,8.40343137 18.7860131,9.98901961 C18.7860131,11.5746732 18.3950327,13.0522549 17.6053595,14.4069608 Z" id="Shape"></path>
                <path d="M10.6178431,9.90156863 L10.6178431,4.23722222 C10.6178431,3.89826797 10.3225163,3.62486928 9.98352941,3.62486928 C9.66650327,3.62486928 9.38212418,3.89826797 9.38212418,4.23722222 L9.38212418,9.98901961 C9.38212418,10 9.40405229,10.0438562 9.40405229,10.0765359 C9.38212418,10.2733987 9.43696078,10.4374183 9.5680719,10.5687582 L12.8377778,13.8382353 C13.0565686,14.0570261 13.4610784,14.0570261 13.6797059,13.8382353 C13.9311438,13.5867647 13.9146078,13.2218954 13.6797059,12.9853268 L10.6178431,9.90156863 Z" id="Path"></path>
            </g>
        </g>
    </g>
</svg>