<?xml version="1.0" encoding="UTF-8"?>
<svg width="80px" height="80px" viewBox="0 0 80 80" version="1.1" xmlns="http://www.w3.org/2000/svg" xmlns:xlink="http://www.w3.org/1999/xlink">
    <!-- Generator: Sketch 53.2 (72643) - https://sketchapp.com -->
    <title>Group 12 Copy</title>
    <desc>Created with Sketch.</desc>
    <g id="Design---Refinements" stroke="none" stroke-width="1" fill="none" fill-rule="evenodd">
        <g id="Home-Page" transform="translate(-214.000000, -1075.000000)" fill="#184414" fill-rule="nonzero">
            <g id="Group-12-Copy" transform="translate(214.000000, 1075.000000)">
                <path d="M69.3333333,66.6666667 C65.7333333,66.6666667 65.3333333,65.0666667 65.3333333,64.2666667 C70.4,62.1333333 73.4666667,57.0666667 73.3333333,51.6 C73.3333333,51.3333333 73.3333333,50.8 73.3333333,50.6666667 C73.3333333,44 68,38.6666667 61.3333333,38.6666667 L45.3333333,38.6666667 C44.5333333,38.6666667 44,39.2 44,40 C44,43.0666667 45.2,46 47.2,48.1333333 C46.9333333,49.4666667 46.6666667,50.6666667 46.6666667,52 C46.6666667,57.3333333 49.8666667,62.1333333 54.6666667,64.2666667 C54.6666667,65.0666667 54.2666667,66.6666667 50.6666667,66.6666667 C46.9333333,66.6666667 44,69.6 44,73.3333333 L44,80 L46.6666667,80 L46.6666667,73.3333333 C46.6666667,71.0666667 48.4,69.3333333 50.6666667,69.3333333 C54.8,69.3333333 57.3333333,67.3333333 57.3333333,64 L57.3333333,63.3333333 C57.3333333,62.8 56.9333333,62.2666667 56.4,62.1333333 C52.1333333,60.5333333 49.3333333,56.5333333 49.3333333,52 C49.3333333,51.3333333 49.3333333,50.6666667 49.4666667,50.1333333 C51.3333333,51.3333333 53.6,52 56,52 L70.6666667,52 C70.6666667,56.5333333 67.8666667,60.5333333 63.6,62 C63.0666667,62.1333333 62.6666667,62.6666667 62.6666667,63.2 L62.6666667,64 C62.6666667,67.3333333 65.2,69.3333333 69.3333333,69.3333333 C71.6,69.3333333 73.3333333,71.0666667 73.3333333,73.3333333 L73.3333333,80 L76,80 L76,73.3333333 C76,69.6 73.0666667,66.6666667 69.3333333,66.6666667 Z M56,49.3333333 C51.3333333,49.3333333 47.4666667,45.8666667 46.8,41.3333333 L61.3333333,41.3333333 C66,41.3333333 69.8666667,44.8 70.5333333,49.3333333 L56,49.3333333 Z" id="Shape"></path>
                <path d="M79.8666667,36 L79.8666667,13.3333333 C80,10.4 77.6,8 74.6666667,8 L48,8 L48,5.33333333 C48,2.4 45.6,-3.01980663e-13 42.6666667,-3.01980663e-13 L5.33333333,-3.01980663e-13 C2.4,-3.01980663e-13 -2.92033064e-12,2.4 -2.92033064e-12,5.33333333 L-2.92033064e-12,34.6666667 C-2.92033064e-12,40.2666667 2,44.2666667 6,46.6666667 L7.33333333,44.4 C4.26666667,42.4 2.66666667,39.3333333 2.66666667,34.6666667 L2.66666667,5.33333333 C2.66666667,3.86666667 3.86666667,2.66666667 5.33333333,2.66666667 L42.6666667,2.66666667 C44.1333333,2.66666667 45.3333333,3.86666667 45.3333333,5.33333333 L45.3333333,30.6666667 C45.3333333,32.1333333 44.1333333,33.3333333 42.6666667,33.3333333 L18.9333333,33.3333333 C14.8,33.3333333 11.2,36.4 10.6666667,40.5333333 C10.6666667,40.8 10.6666667,41.0666667 10.6666667,41.3333333 L13.3333333,41.3333333 C13.3333333,41.2 13.3333333,40.9333333 13.3333333,40.8 C13.7333333,38 16.1333333,36 18.9333333,36 L42.6666667,36 C45.6,36 48,33.6 48,30.6666667 L64,30.6666667 C67.7333333,30.6666667 70.6666667,33.6 70.6666667,37.3333333 L73.3333333,37.3333333 C73.3333333,32.1333333 69.2,28 64,28 L48,28 L48,10.6666667 L74.6666667,10.6666667 C76.1333333,10.6666667 77.3333333,11.8666667 77.3333333,13.3333333 L77.3333333,36 C77.4666667,38.8 76.6666667,41.4666667 74.9333333,43.7333333 L76.9333333,45.4666667 C79.0666667,42.8 80.1333333,39.4666667 79.8666667,36 Z" id="Path"></path>
                <path d="M33.3333333,68 C31.2,68 29.4666667,66.4 29.3333333,64.2666667 C36.1333333,61.3333333 39.2,53.4666667 36.2666667,46.6666667 C33.3333333,39.8666667 25.4666667,36.8 18.6666667,39.7333333 C11.8666667,42.6666667 8.8,50.5333333 11.7333333,57.3333333 C13.0666667,60.4 15.6,62.9333333 18.6666667,64.2666667 C18.5333333,66.4 16.8,68 14.6666667,68 C10.9333333,68 8,70.9333333 8,74.6666667 L8,80 L10.6666667,80 L10.6666667,74.6666667 C10.6666667,72.4 12.4,70.6666667 14.6666667,70.6666667 C18.4,70.6666667 21.3333333,67.7333333 21.3333333,64 L21.3333333,63.3333333 C21.3333333,62.8 20.9333333,62.2666667 20.4,62.1333333 C16.6666667,60.8 13.8666667,57.4666667 13.3333333,53.4666667 L17.3333333,53.4666667 C17.6,53.4666667 17.8666667,53.3333333 18.1333333,53.2 L21.3333333,51.0666667 L24.5333333,53.2 C24.8,53.3333333 25.0666667,53.4666667 25.3333333,53.4666667 L34.5333333,53.4666667 C34,57.4666667 31.3333333,60.8 27.4666667,62.1333333 C26.9333333,62.2666667 26.5333333,62.8 26.5333333,63.3333333 L26.5333333,64 C26.5333333,67.7333333 29.4666667,70.6666667 33.2,70.6666667 C35.4666667,70.6666667 37.2,72.4 37.2,74.6666667 L37.2,80 L39.8666667,80 L39.8666667,74.6666667 C40,70.9333333 37.0666667,68 33.3333333,68 Z M25.7333333,50.6666667 L22.1333333,48.2666667 C21.7333333,48 21.0666667,48 20.6666667,48.2666667 L16.9333333,50.6666667 L13.4666667,50.6666667 C14.1333333,44.8 19.4666667,40.6666667 25.3333333,41.4666667 C30.1333333,42.1333333 34,45.8666667 34.5333333,50.6666667 L25.7333333,50.6666667 Z" id="Shape"></path>
                <rect id="Rectangle" x="6.66666667" y="6.66666667" width="28" height="2.66666667"></rect>
                <rect id="Rectangle" x="6.66666667" y="12" width="8" height="2.66666667"></rect>
                <rect id="Rectangle" x="17.3333333" y="12" width="20" height="2.66666667"></rect>
                <rect id="Rectangle" x="6.66666667" y="17.3333333" width="2.66666667" height="2.66666667"></rect>
                <rect id="Rectangle" x="12" y="17.3333333" width="10.6666667" height="2.66666667"></rect>
                <rect id="Rectangle" x="25.3333333" y="17.3333333" width="12" height="2.66666667"></rect>
                <rect id="Rectangle" x="56" y="16" width="18.6666667" height="2.66666667"></rect>
                <rect id="Rectangle" x="50.6666667" y="21.3333333" width="9.33333333" height="2.66666667"></rect>
                <rect id="Rectangle" x="62.6666667" y="21.3333333" width="12" height="2.66666667"></rect>
                <rect id="Rectangle" x="50.6666667" y="16" width="2.66666667" height="2.66666667"></rect>
            </g>
        </g>
    </g>
</svg>