<?xml version="1.0" encoding="UTF-8"?>
<svg width="68px" height="73px" viewBox="0 0 68 73" version="1.1" xmlns="http://www.w3.org/2000/svg" xmlns:xlink="http://www.w3.org/1999/xlink">
    <!-- Generator: Sketch 53.2 (72643) - https://sketchapp.com -->
    <title>creative copy 3</title>
    <desc>Created with Sketch.</desc>
    <g id="Design---Refinements" stroke="none" stroke-width="1" fill="none" fill-rule="evenodd">
        <g id="Oncore-FW---Desktop-in-CW" transform="translate(-988.000000, -1143.000000)" fill="#184414" fill-rule="nonzero">
            <g id="creative-copy-3" transform="translate(988.000000, 1143.000000)">
                <path d="M34.0644389,14.3837037 C23.4957805,14.3911389 14.9301546,22.9267315 14.9226933,33.4583333 C15.0171471,40.332838 18.3737357,46.7565 23.9712718,50.7755556 L23.9712718,64.5509259 C23.9758504,64.7084167 24.0079002,64.8640486 24.0662344,65.0105556 L24.0662344,65.1187037 C24.0896359,65.1744676 24.1169377,65.2287106 24.1476309,65.2809259 L28.9228928,72.3646296 C29.1755611,72.7372338 29.5976359,72.9601204 30.0488778,72.9594444 L37.9443392,72.9594444 C38.395581,72.9601204 38.8176559,72.7372338 39.0703242,72.3646296 L43.845586,65.2809259 C43.8762793,65.2287106 43.903581,65.1744676 43.9269825,65.1187037 L43.9269825,65.0105556 C43.9853167,64.8640486 44.0173666,64.7084167 44.0219451,64.5509259 L44.0219451,50.7755556 C49.6196509,46.7565 52.9760698,40.332838 53.0705237,33.4583333 C53.0634015,22.9792847 44.58002,14.4653218 34.0644389,14.3837037 Z M37.2931671,70.2962963 L30.8357107,70.2962963 L27.8783042,65.9162963 L40.2370075,65.9162963 L37.2931671,70.2962963 Z M26.6980549,63.2125926 L26.6980549,59.6301852 L41.4308229,59.6301852 L41.444389,63.2125926 L26.6980549,63.2125926 Z M42.0548628,48.9235185 L42.0548628,48.9640741 C41.6717905,49.2153495 41.4421845,49.6425347 41.444389,50.0996296 L41.444389,56.967037 L26.6980549,56.967037 L26.6980549,50.0185185 C26.7002594,49.5614236 26.4706534,49.1342384 26.087581,48.882963 C20.8938055,45.424419 17.7388429,39.6418727 17.6494763,33.4177778 C17.9101147,24.3801412 25.4737157,17.264162 34.5431521,17.5238866 C43.2463042,17.7731343 50.2428429,24.7451412 50.4929676,33.4177778 C50.4169975,39.6564051 47.2603392,45.4568634 42.0548628,48.9235185 Z" id="Shape"></path>
                <path d="M34.6070823,20.5075926 C33.8578953,20.5075926 33.2504738,21.1128843 33.2504738,21.8594444 C33.2504738,22.6060046 33.8578953,23.2112963 34.6070823,23.2112963 C40.2456559,23.2187315 44.8148828,27.7719375 44.8223441,33.3907407 C44.8223441,34.1373009 45.4297656,34.7425926 46.1789526,34.7425926 C46.9281397,34.7425926 47.5355611,34.1373009 47.5355611,33.3907407 C47.5280998,26.2786481 41.7441995,20.5150278 34.6070823,20.5075926 Z" id="Path"></path>
                <path d="M11.2734165,32.0388889 L1.50583541,32.0388889 C0.756648379,32.0388889 0.149226933,32.6441806 0.149226933,33.3907407 C0.149226933,34.1373009 0.756648379,34.7425926 1.50583541,34.7425926 L11.2734165,34.7425926 C12.0226035,34.7425926 12.6300249,34.1373009 12.6300249,33.3907407 C12.6300249,33.3907407 12.6300249,33.3907407 12.6300249,33.3907407 C12.6300249,32.6441806 12.0226035,32.0388889 11.2734165,32.0388889 Z" id="Path"></path>
                <path d="M66.6230424,32.0388889 L56.8554613,32.0388889 C56.1062743,32.0388889 55.4988529,32.6441806 55.4988529,33.3907407 C55.4988529,34.1373009 56.1062743,34.7425926 56.8554613,34.7425926 L66.6230424,34.7425926 C67.3722294,34.7425926 67.9796509,34.1373009 67.9796509,33.3907407 C67.9796509,32.6441806 67.3722294,32.0388889 66.6230424,32.0388889 Z" id="Path"></path>
                <path d="M19.045596,48.517963 C18.5582344,47.9508611 17.7018753,47.8847894 17.1327781,48.3704421 C17.0797007,48.4157292 17.0301845,48.4650718 16.9847382,48.517963 L16.9847382,48.4909259 L10.0524688,55.4259259 C9.48337157,55.9115787 9.41706733,56.7649352 9.90442893,57.332037 C10.3917905,57.8991389 11.2481496,57.9652106 11.8172469,57.4795579 C11.8703242,57.4342708 11.9198404,57.3849282 11.9652868,57.332037 L18.8975561,50.4240741 C19.4666534,49.9384213 19.5329576,49.0850648 19.045596,48.517963 Z" id="Path"></path>
                <path d="M57.9283691,9.46296296 C57.4204888,9.02952546 56.6714713,9.02952546 56.163591,9.46296296 L49.2313217,16.3709259 C48.6993616,16.8966273 48.6958005,17.7526875 49.2233516,18.2827824 C49.4799202,18.5406481 49.8299252,18.6847894 50.1945137,18.6825926 L50.1809476,18.6690741 C50.5414663,18.6711019 50.8880798,18.5300023 51.1441397,18.277037 L58.076409,11.3690741 C58.5637706,10.8019722 58.4974663,9.94861574 57.9283691,9.46296296 Z" id="Path"></path>
                <path d="M58.3455262,55.6978171 C58.269217,55.5949074 58.1786633,55.5033194 58.076409,55.4259259 L51.1441397,48.4909259 C50.6567781,47.9238241 49.800419,47.8577523 49.2313217,48.3434051 C48.6622244,48.8290579 48.5959202,49.6824144 49.0832818,50.2495162 C49.1287282,50.3024074 49.1782444,50.35175 49.2313217,50.397037 L56.163591,57.305 C56.6088978,57.9053912 57.4584738,58.0322963 58.0609776,57.5885509 C58.6634813,57.1448056 58.7908329,56.2982083 58.3455262,55.6978171 Z" id="Path"></path>
                <path d="M18.8975561,16.3709259 L11.9652868,9.46296296 C11.3961895,8.97731019 10.5398304,9.04338194 10.0524688,9.6104838 C9.61750623,10.1165833 9.61750623,10.8629745 10.0524688,11.3690741 L16.9847382,18.277037 C17.5538354,18.7626898 18.4101945,18.6966181 18.8975561,18.1295162 C19.3325187,17.6234167 19.3325187,16.8770255 18.8975561,16.3709259 Z" id="Path"></path>
                <path d="M34.0644389,0 C33.3152519,0 32.7078304,0.605291667 32.7078304,1.35185185 L32.7078304,11.1257407 C32.6852768,11.871963 33.2742145,12.4951667 34.0230623,12.5174722 C34.036798,12.5178102 34.0505337,12.5181481 34.0644389,12.5181481 C34.8136259,12.5181481 35.4210474,11.9128565 35.4210474,11.1662963 L35.4210474,1.35185185 C35.4210474,0.605291667 34.8136259,0 34.0644389,0 Z" id="Path"></path>
            </g>
        </g>
    </g>
</svg>