<?xml version="1.0" encoding="UTF-8"?>
<svg width="24px" height="25px" viewBox="0 0 24 25" version="1.1" xmlns="http://www.w3.org/2000/svg" xmlns:xlink="http://www.w3.org/1999/xlink">
    <!-- Generator: Sketch 53.2 (72643) - https://sketchapp.com -->
    <title>f-ogo_RGB_HEX-58</title>
    <desc>Created with Sketch.</desc>
    <g id="Design---Refinements" stroke="none" stroke-width="1" fill="none" fill-rule="evenodd" opacity="0.758068266">
        <g id="Project-Page-" transform="translate(-664.000000, -2267.000000)" fill="#333333" fill-rule="nonzero">
            <g id="Group" transform="translate(664.000000, 2260.000000)">
                <g id="f-ogo_RGB_HEX-58" transform="translate(0.000000, 7.000000)">
                    <path d="M22.6758621,0.398249812 L1.32413793,0.398249812 C0.592836745,0.398249812 8.95585657e-17,0.998634247 0,1.73924598 L0,23.3628092 C8.95585657e-17,24.1034209 0.592836745,24.7038054 1.32413793,24.7038054 L12.8275862,24.7038054 L12.8275862,15.3042603 L9.70344828,15.3042603 L9.70344828,11.6249021 L12.8275862,11.6249021 L12.8275862,8.9177661 C12.8275862,5.77899694 14.7227586,4.06922682 17.4868966,4.06922682 C18.4183753,4.06716958 19.3493164,4.11472889 20.2758621,4.21170767 L20.2758621,7.49295767 L18.3724138,7.49295767 C16.8662069,7.49295767 16.5724138,8.21374311 16.5724138,9.27815882 L16.5724138,11.6207115 L20.1724138,11.6207115 L19.7048276,15.3000697 L16.5517241,15.3000697 L16.5517241,24.7038054 L22.6758621,24.7038054 C23.4071633,24.7038054 24,24.1034209 24,23.3628092 L24,1.73924598 C24,0.998634247 23.4071633,0.398249812 22.6758621,0.398249812 Z" id="Combined-Shape"></path>
                </g>
            </g>
        </g>
    </g>
</svg>