<svg xmlns="http://www.w3.org/2000/svg" width="99" height="96" viewBox="0 0 99 96">
    <g fill="#0079BB" fill-rule="nonzero">
        <path d="M98.81 52.118a39.115 39.115 0 0 0-11.248-23.726A38.832 38.832 0 0 0 68.46 17.908v-4.912c2.86-.711 4.987-3.3 4.987-6.377A6.58 6.58 0 0 0 66.874.047H52.952a6.58 6.58 0 0 0-6.574 6.572c0 3.077 2.126 5.666 4.987 6.377v4.925a38.83 38.83 0 0 0-19.042 10.471 39.237 39.237 0 0 0-3.283 3.725c-.048-.004-.097-.007-.146-.007h-13.78a1.933 1.933 0 1 0 0 3.865H26.41a38.744 38.744 0 0 0-3.43 7.43H1.933a1.933 1.933 0 1 0 0 3.866h19.952a39.29 39.29 0 0 0-.96 7.43h-8.55a1.933 1.933 0 1 0 0 3.866h8.612c.163 2.502.565 4.99 1.207 7.43H9.668a1.933 1.933 0 1 0 0 3.866h13.76a38.818 38.818 0 0 0 8.895 13.75 39.136 39.136 0 0 0 23.758 11.245 39.02 39.02 0 0 0 3.833.189c7.545 0 14.995-2.183 21.316-6.298a1.933 1.933 0 1 0-2.11-3.24c-13.837 9.007-32.368 7.06-44.062-4.63-13.721-13.717-13.721-36.036 0-49.753 13.721-13.717 36.047-13.717 49.769 0 11.679 11.675 13.638 30.184 4.657 44.009a1.933 1.933 0 1 0 3.243 2.105c4.799-7.387 6.958-16.308 6.082-25.122zM50.244 6.62a2.71 2.71 0 0 1 2.707-2.706h13.922a2.71 2.71 0 0 1 2.707 2.706 2.71 2.71 0 0 1-2.707 2.706H52.952a2.71 2.71 0 0 1-2.707-2.706zm4.987 10.638V13.19h9.362v4.059a39.412 39.412 0 0 0-9.362.007z"/>
        <path d="M86 80.047a2.01 2.01 0 0 0-1.414.586A2.007 2.007 0 0 0 84 82.047a2.003 2.003 0 0 0 3.414 1.414c.372-.372.586-.888.586-1.414 0-.526-.214-1.042-.586-1.414A2.019 2.019 0 0 0 86 80.047zM60 26.047c-16.542 0-30 13.233-30 29.5 0 16.266 13.458 29.5 30 29.5s30-13.234 30-29.5c0-16.267-13.458-29.5-30-29.5zm0 55.197c-14.41 0-26.132-11.528-26.132-25.697C33.868 41.377 45.59 29.85 60 29.85c14.41 0 26.132 11.528 26.132 25.697 0 14.169-11.723 25.697-26.132 25.697z"/>
        <path d="M71.67 40.625l-9.661 9.782a5.964 5.964 0 0 0-2.678-.633c-.96 0-1.87.228-2.677.633l-4.324-4.378a1.934 1.934 0 0 0-2.759 0 1.992 1.992 0 0 0 0 2.793l4.324 4.377a6.159 6.159 0 0 0-.625 2.711c0 3.384 2.719 6.137 6.061 6.137 3.343 0 6.062-2.753 6.062-6.137 0-.972-.226-1.893-.625-2.71l9.377-9.495.284-.287a1.992 1.992 0 0 0 0-2.793 1.934 1.934 0 0 0-2.759 0zM59.331 58.097c-1.19 0-2.16-.98-2.16-2.187 0-1.205.97-2.187 2.16-2.187 1.191 0 2.16.982 2.16 2.187 0 1.206-.969 2.187-2.16 2.187zM81.291 54.047H79.71c-.944 0-1.709.895-1.709 2 0 1.104.765 2 1.709 2h1.582c.944 0 1.709-.896 1.709-2 0-1.105-.765-2-1.709-2zM41.291 54.047H39.71c-.944 0-1.709.895-1.709 2 0 1.104.765 2 1.709 2h1.582c.944 0 1.709-.896 1.709-2 0-1.105-.765-2-1.709-2zM60 39.047c1.104 0 2-.765 2-1.709v-1.583c0-.943-.896-1.708-2-1.708s-2 .765-2 1.708v1.583c0 .944.896 1.709 2 1.709zM60 74.047c-1.104 0-2 .765-2 1.708v1.583c0 .944.896 1.709 2 1.709s2-.765 2-1.709v-1.583c0-.943-.896-1.708-2-1.708zM2 66.047c-.526 0-1.042.214-1.414.586A2.015 2.015 0 0 0 0 68.047c0 .528.214 1.042.586 1.414.372.372.888.586 1.414.586.526 0 1.042-.214 1.414-.586.372-.372.586-.888.586-1.414 0-.526-.214-1.042-.586-1.414A2.014 2.014 0 0 0 2 66.047z"/>
    </g>
</svg>
