<?xml version="1.0" encoding="UTF-8"?>
<svg width="19px" height="18px" viewBox="0 0 19 18" version="1.1" xmlns="http://www.w3.org/2000/svg" xmlns:xlink="http://www.w3.org/1999/xlink">
    <!-- Generator: Sketch 54.1 (76490) - https://sketchapp.com -->
    <title>right-arrow</title>
    <desc>Created with Sketch.</desc>
    <g id="Design---Refinements---Images" stroke="none" stroke-width="1" fill="none" fill-rule="evenodd">
        <g id="right-arrow" transform="translate(9.500000, 9.000000) rotate(-270.000000) translate(-9.500000, -9.000000) translate(0.500000, -0.500000)" fill="#E6E6E6">
            <path d="M9.16772727,0.823909091 C8.81672727,0.460636364 8.23254545,0.460636364 7.86927273,0.823909091 C7.51827273,1.17490909 7.51827273,1.75909091 7.86927273,2.10927273 L14.4531818,8.69318182 L0.909,8.69318182 C0.402545455,8.694 -2.27373675e-13,9.09654545 -2.27373675e-13,9.603 C-2.27373675e-13,10.1094545 0.402545455,10.5250909 0.909,10.5250909 L14.4531818,10.5250909 L7.86927273,17.0967273 C7.51827273,17.46 7.51827273,18.045 7.86927273,18.3951818 C8.23254545,18.7584545 8.81754545,18.7584545 9.16772727,18.3951818 L17.3102727,10.2526364 C17.6735455,9.90163636 17.6735455,9.31745455 17.3102727,8.96727273 L9.16772727,0.823909091 Z" id="Path"></path>
        </g>
    </g>
</svg>