<?xml version="1.0" encoding="UTF-8"?>
<svg width="24px" height="24px" viewBox="0 0 24 24" version="1.1" xmlns="http://www.w3.org/2000/svg" xmlns:xlink="http://www.w3.org/1999/xlink">
    <!-- Generator: Sketch 53.2 (72643) - https://sketchapp.com -->
    <title>Fill 4</title>
    <desc>Created with Sketch.</desc>
    <g id="Design---Refinements" stroke="none" stroke-width="1" fill="none" fill-rule="evenodd" opacity="0.758068266">
        <g id="Project-Page-" transform="translate(-704.000000, -2267.000000)" fill="#333333">
            <g id="Group" transform="translate(664.000000, 2260.000000)">
                <path d="M60.5714286,27.5714286 L57.0531117,27.5714286 L57.0531117,21.7140747 C57.0531117,20.3175638 57.0307063,18.5207478 55.2250895,18.5207478 C53.3937723,18.5207478 53.1143629,20.0427484 53.1143629,21.6145243 L53.1143629,27.5714286 L49.6,27.5714286 L49.6,15.5272229 L52.9726813,15.5272229 L52.9726813,17.1740121 L53.0214462,17.1740121 C53.4906429,16.2268804 54.6385935,15.2285714 56.3499755,15.2285714 C59.9131033,15.2285714 60.5714286,17.7222408 60.5714286,20.966044 L60.5714286,27.5714286 Z M45.4870432,14.5428571 C44.3475083,14.5428571 43.4285714,13.6214113 43.4285714,12.4853821 C43.4285714,11.3500173 44.3475083,10.4285714 45.4870432,10.4285714 C46.6219269,10.4285714 47.5428571,11.3500173 47.5428571,12.4853821 C47.5428571,13.6214113 46.6219269,14.5428571 45.4870432,14.5428571 Z M43.4285714,27.5714286 L46.8571429,27.5714286 L46.8571429,15.9142857 L43.4285714,15.9142857 L43.4285714,27.5714286 Z M62.2246174,7 L41.7700492,7 C40.7933554,7 40,7.77466667 40,8.73066667 L40,29.268 C40,30.224 40.7933554,31 41.7700492,31 L62.2246174,31 C63.2033112,31 64,30.224 64,29.268 L64,8.73066667 C64,7.77466667 63.2033112,7 62.2246174,7 L62.2246174,7 Z" id="Fill-4"></path>
            </g>
        </g>
    </g>
</svg>