<?xml version="1.0" encoding="UTF-8"?>
<svg width="806px" height="666px" viewBox="0 0 806 666" version="1.1" xmlns="http://www.w3.org/2000/svg" xmlns:xlink="http://www.w3.org/1999/xlink">
    <!-- Generator: Sketch 53.2 (72643) - https://sketchapp.com -->
    <title>Group 15</title>
    <desc>Created with Sketch.</desc>
    <defs>
        <linearGradient x1="0%" y1="45.4252345%" x2="100%" y2="45.4252345%" id="linearGradient-1">
            <stop stop-color="#FFFFFF" offset="0%"></stop>
            <stop stop-color="#FFFFFF" stop-opacity="0" offset="100%"></stop>
        </linearGradient>
    </defs>
    <g id="Design---Refinements" stroke="none" stroke-width="1" fill="none" fill-rule="evenodd">
        <g id="Oncore-FW---Desktop-in-CW" transform="translate(-634.000000, -4899.000000)">
            <g id="Group-15" transform="translate(634.000000, 4900.000000)">
                <g id="Group-21">
                    <polygon id="Path" stroke="#CFD1CF" stroke-width="0.5" fill="#FFFFFF" fill-rule="nonzero" stroke-linecap="round" stroke-linejoin="round" points="245.874034 664 490.5 621.441947 490.5 0 245.874034 42.5580528"></polygon>
                    <polygon id="Path" stroke="#CFD1CF" stroke-width="0.5" fill="#EAF5E9" fill-rule="nonzero" stroke-linecap="round" stroke-linejoin="round" points="245.874034 664 490.5 621.441947 490.5 0 245.874034 42.5580528"></polygon>
                    <polygon id="Path" stroke="#CFD1CF" stroke-width="0.5" fill="#FFFFFF" fill-rule="nonzero" stroke-linecap="round" stroke-linejoin="round" points="731.374034 664 976 621.441947 976 0 731.374034 42.5580528"></polygon>
                    <polygon id="Path" stroke="#CFD1CF" stroke-width="0.5" fill="#EAF5E9" fill-rule="nonzero" stroke-linecap="round" stroke-linejoin="round" points="731.374034 664 976 621.441947 976 0 731.374034 42.5580528"></polygon>
                    <polygon id="Path" stroke="#CFD1CF" stroke-width="0.5" fill="#FFFFFF" fill-rule="nonzero" stroke-linecap="round" stroke-linejoin="round" points="735.125966 664 490.5 621.441947 490.5 0 735.125966 42.5580528"></polygon>
                    <polygon id="Path" stroke="#CFD1CF" stroke-width="0.5" fill="#FFFFFF" fill-rule="nonzero" stroke-linecap="round" stroke-linejoin="round" points="245.125966 664 0.5 621.441947 0.5 0 245.125966 42.5580528"></polygon>
                    <rect id="Rectangle" fill="url(#linearGradient-1)" x="0" y="0" width="245" height="665"></rect>
                </g>
                <g id="Group-19-Copy" transform="translate(292.000000, 44.000000)" fill="#184414" fill-rule="nonzero">
                    <g id="Group" transform="translate(191.133589, 0.000000)">
                        <path d="M202.433838,143.1288 C201.633953,141.042872 197.346928,139.42448 195.504496,138.759141 C192.64648,137.716177 189.590739,136.39449 186.175499,136.628258 C185.806739,136.652066 185.440247,136.703155 185.079028,136.781106 C178.464248,138.084811 171.265282,146.92303 166.456984,151.427555 L162.619333,154.124875 C155.689992,154.124875 151.205243,151.814171 145.543135,149.629341 C140.501163,147.687271 135.522103,146.293655 130.740767,143.911022 C128.24225,142.652273 126.247031,139.613292 123.451927,138.894007 C121.951019,138.516382 122.274568,139.397507 122.598117,140.44047 C119.901875,140.44047 115.68675,136.619267 114.599266,134.326545 C113.817356,134.326545 114.140905,134.02984 114.140905,133.382483 C115.6508,133.382483 118.203243,135.810071 120.728722,136.205678 C120.728722,133.508358 115.282314,127.133691 113.94318,124.292514 L113.94318,124.202603 C111.246939,118.421347 113.817356,115.139607 112.981521,109.403306 C112.55911,106.535156 108.820321,104.062612 108.820321,101.760899 C109.206782,100.547105 109.575269,99.3063378 109.943755,98.0745616 C107.589037,98.0745616 106.115092,98.9736683 104.290635,99.9536947 L104.290635,100.412239 L103.832273,100.412239 L103.832273,99.9536947 C103.032388,99.9536947 103.427837,98.7039363 103.499737,98.0925437 C104.155823,92.1314661 100.102472,88.2023698 94.889738,86.7727901 L94.889738,87.2313345 L93.4697173,87.2313345 C93.4697173,91.4931004 97.0647065,92.7518498 98.1791531,96.3392856 C99.0779004,99.2523914 97.6219298,102.030631 97.8286416,105.123558 C98.0802909,109.079628 101.828067,115.382366 98.7273889,118.924847 C98.0264819,119.661287 97.1424882,120.198101 96.1659592,120.480301 C94.584164,120.992792 93.8022538,120.785997 93.0562936,119.239534 C92.5865005,118.179663 92.3124543,117.043439 92.247421,115.885866 C91.9957718,113.125608 92.247421,110.149565 90.5128388,108.072628 C87.4031732,104.3773 81.4444787,105.600085 76.6721306,104.952728 L75.9351579,104.835844 C76.2280351,104.439974 76.3884514,103.961679 76.393519,103.469202 C76.3465446,102.558483 75.8427666,101.733175 75.0543855,101.275382 C75.2264109,100.991378 75.3679986,100.690007 75.4767967,100.376275 C76.2407319,98.2543829 76.204782,95.0265898 75.063373,93.9206885 C73.9219639,92.8147873 72.3671311,92.7608408 71.1717973,92.1224751 C70.27305,92.1224751 70.3449498,90.9985917 70.2281126,90.234351 C73.2299285,90.234351 73.4186655,87.2043613 73.0501791,85.0554962 C74.7847613,84.2822644 76.5103561,83.4820594 78.2269634,82.6998366 C79.1257107,82.6998366 77.534928,80.9016231 77.1394792,80.4520698 L70.8482482,73.1153589 C69.3922776,71.658806 67.5588332,71.4340293 66.5702112,69.4649856 C65.1322155,66.578853 65.1232281,62.9374708 64.5749922,59.6557312 L65.6085516,59.6557312 C65.6085516,60.4919005 67.612758,61.0673288 68.4306181,61.0673288 L69.8416513,61.0673288 C69.8416513,56.3739917 67.8823822,47.9313795 64.8715788,44.8294613 C63.5504203,43.4628191 61.5911512,43.2380424 60.4227798,41.7635074 C59.7936567,41.7635074 59.9734061,41.9073645 59.9734061,41.313954 C60.9710156,41.313954 62.0315374,39.9383207 62.7954726,39.4258299 L62.7954726,38.9672855 C63.4156082,38.9672855 63.2538337,39.1201336 63.2538337,38.508741 C60.9710156,38.508741 60.9440532,34.4537697 60.8991158,32.8623508 L52.900265,35.2180104 C53.223814,36.3239117 53.5293881,37.4028398 53.8439497,38.508741 C53.2058391,38.508741 53.3855886,38.3469018 53.3855886,38.9672855 L52.3969665,38.9672855 L52.3969665,39.4258299 C51.588094,39.4258299 49.2962884,32.1700386 49.098564,30.9472535 L52.8643151,31.4057979 L52.8643151,30.9472535 L53.3226762,30.9472535 C53.3226762,28.079103 47.9301926,27.7104693 45.791174,27.6565229 C45.7114552,26.9468286 45.3948085,26.2847722 44.8924267,25.7773898 C44.8924267,23.8353193 39.3381685,27.2878891 38.7809452,27.6565229 L38.7809452,28.1060762 L38.3225841,28.1060762 C38.3225841,24.8423188 35.869004,23.2059446 35.0241816,20.5715619 C33.226687,20.5715619 32.5166767,22.7563912 31.0427311,23.2688821 C29.5687856,23.7813729 28.0768651,23.0980518 26.5489947,23.0800696 C24.9080188,23.0966058 23.297647,23.5264162 21.8665214,24.329828 L21.8665214,24.7883724 L21.4081603,24.7883724 L21.4081603,24.329828 C20.6891624,24.329828 20.9497991,24.0421138 20.9497991,23.4307213 C21.6777844,23.4307213 21.650822,22.6215252 21.7496842,21.9831594 C21.6777844,21.6055346 21.5968972,21.2099276 21.5249974,20.8053296 C20.0600393,18.4676521 17.6154467,16.840269 16.3482131,14.4306629 C14.9281924,11.7333428 15.0989543,8.13691586 13.4182969,5.55647956 L13.4182969,5.09793513 C12.1689817,5.21932294 10.9108485,5.21932294 9.66153328,5.09793513 L9.66153328,4.64838177 C9.13127239,4.64838177 12.6004369,2.02299013 13.4182969,1.34866009 L13.4182969,0.899106725 L9.66153328,0.440562295 C8.87962315,0.602401506 8.08872554,0.746258582 7.3068154,0.899106725 C5.27564655,0.584419371 3.23549022,0.26074095 1.18634641,0 C0.478239196,0.743660048 0.121734305,1.75470655 0.206711875,2.77823978 C0.278611657,3.08393607 0.332536494,3.38064129 0.395448804,3.67734651 C1.99521897,7.32771981 5.96768195,7.03101459 8.39429961,9.70136157 C14.0833699,15.9501533 17.867096,23.9522032 20.015102,32.0261816 C19.2421793,32.0261816 19.02648,32.7904223 18.4422942,33.1860292 C17.8581085,33.5816362 17.1031608,33.8333861 16.9683487,34.5077161 C16.53695,36.5936437 21.7047469,43.9663189 22.8371684,46.1961035 L23.2865421,46.1961035 C23.2865421,46.8074961 23.133755,46.6456569 23.7449032,46.6456569 L23.7449032,46.1961035 C24.4998509,46.1961035 24.5537757,45.4138807 24.8233999,44.8294613 C25.3356859,43.6516315 25.7221472,41.3948736 26.953431,40.7205436 C30.3866456,38.8144373 31.7257791,41.6196503 33.6311233,36.2969385 L34.5298706,36.2969385 L34.5298706,36.7554829 C35.3117807,36.7554829 34.9612693,37.5287147 34.9163319,38.1490984 C34.5208831,43.2110692 27.4836919,44.5327561 28.4004141,49.8374858 C28.9127001,52.8584844 31.8246413,55.5018582 33.3255492,58.0912855 C34.6017704,60.6537397 35.869004,63.2161939 37.1542126,65.778648 C39.3831059,69.3211285 42.330997,72.5309395 44.6677399,75.9835094 L48.9727394,83.0864525 C49.8122508,84.0902814 51.1306084,84.558606 52.4149415,84.3092376 C52.4149415,82.7358009 52.91824,81.2972301 52.3250668,79.813704 C51.1746702,76.9635357 49.4760379,76.7207769 49.1435014,73.0074661 C51.8397432,73.0074661 53.6372378,76.8376607 55.731319,78.1773298 C55.731319,78.9505615 56.0099306,78.6358742 56.6750036,78.6358742 C56.6750036,76.603893 60.4227798,75.7587327 60.4048048,75.938554 C60.0632809,79.2113025 57.0884274,81.3331944 56.6750036,84.7408089 C58.373636,84.7408089 60.2699927,84.1923538 61.8517879,84.7408089 C63.1100341,84.7408089 63.2178838,93.1924121 62.7505352,94.6309828 C62.7505352,93.9296796 60.5935418,93.3542513 59.9464437,92.7158855 C57.6726131,90.513074 57.196277,87.4111558 53.8169872,86.628933 L53.8169872,87.0874774 C52.91824,87.0874774 53.4305259,89.1913871 53.5293881,89.8657172 C54.2393985,94.657956 57.367039,98.4701686 59.1375712,102.767899 C60.0363184,104.916764 60.1351806,107.542155 61.2586147,109.574137 L61.4563391,109.574137 C61.6270533,109.874568 61.8224558,110.16027 62.0405249,110.428288 L62.1214121,110.509208 C62.8586117,111.436273 64.004882,111.940699 65.1861404,111.857868 C66.9386976,111.678046 67.9722569,109.924788 69.5989895,109.502208 C73.2928408,108.5042 78.8291241,110.356359 78.4157004,114.752991 L76.4654188,114.204536 C74.5241246,113.880858 72.8165048,114.797947 71.3605342,115.697053 L71.3605342,116.155598 L70.9111606,116.155598 C70.9111606,114.887857 67.8284574,112.80193 66.96566,114.267474 C65.3748773,116.964794 70.0124133,123.905898 70.9111606,126.504316 L74.2005756,125.60521 L74.2005756,126.504316 C72.403081,126.504316 72.6547303,129.99285 73.4905653,133.589277 C74.0576992,136.238575 74.9167591,138.816785 76.051995,141.27664 C76.8608676,142.499425 78.7032995,142.715211 79.8447085,143.452478 C80.6266187,143.452478 80.3030696,144.207728 80.3030696,144.873067 L77.8854395,145.682263 C75.1891976,146.581369 73.3917031,147.399557 72.7715674,150.519457 C74.3443752,150.3756 75.899208,150.20477 77.4810032,150.060912 L77.4810032,150.519457 L77.0226421,150.519457 C77.0226421,151.607376 75.8902205,152.623367 75.1352728,153.342652 C75.1352728,155.212794 77.6427777,156.804213 75.5936339,158.521507 C75.5936339,159.420613 72.5019432,157.091927 71.8278828,156.633383 L71.8278828,156.183829 L71.3695217,156.183829 C71.3695217,156.804213 71.5133212,156.633383 70.920148,156.633383 C70.6505238,157.748275 70.3719122,158.845185 70.102288,159.951086 C69.7967139,162.648407 69.4731649,165.300771 69.2035407,167.980109 C68.5744176,170.17393 67.9452945,172.349768 67.307184,174.543589 C66.9207226,176.926221 67.6756703,179.10206 67.3970587,181.54763 C67.4066914,181.564321 67.4066914,181.584885 67.3970587,181.601576 C66.8398354,186.276931 64.0087814,192.264982 59.9104938,194.890374 C57.1333647,196.688587 53.3047013,195.429838 50.257948,196.688587 C46.3394099,196.688587 42.330997,199.188104 39.6167802,201.59771 C38.2848219,202.599139 37.3796972,204.066541 37.0823129,205.706628 C36.7318014,209.473885 41.4232622,216.414989 44.802552,217.970443 C48.1818418,219.525898 52.9631773,218.572845 56.2615799,220.442987 C59.5599824,222.313129 59.4790951,227.078395 62.7325603,229.326161 C64.8715788,230.818679 67.4150336,231.241259 69.9764634,231.771732 C70.6055865,231.897607 71.2347096,232.023482 71.8638327,232.185321 C76.0799056,233.091962 79.8121958,235.525646 82.343226,239.018532 L84.32047,242.489084 C84.6799689,243.568012 85.0125054,244.619967 85.3720043,245.680913 C85.7448227,247.344392 85.9614635,249.039081 86.0191024,250.742884 C86.2348017,257.252416 83.7452717,262.206494 80.3120571,267.72701 L79.3054602,269.093652 L77.0316295,272.213552 C75.9531328,274.290489 76.2587069,276.852943 74.8027363,278.76804 C72.6457428,281.573253 68.6463174,283.14669 67.6576954,286.734126 C67.0130259,288.927522 67.7632326,291.292863 69.5540522,292.713185 L69.5540522,293.162739 L70.0124133,293.162739 L70.0124133,292.713185 C70.2910249,292.713185 71.5223087,288.748125 71.8907951,288.001866 L72.3491562,288.001866 C72.3491562,287.282581 72.6277679,287.552313 73.2479035,287.552313 C73.2479035,292.704194 69.6529144,295.644273 73.9758888,298.845093 C74.1826007,298.997941 74.4252624,299.159781 74.6679242,299.303638 C76.9417548,299.303638 78.5325375,296.606318 80.7973807,296.219702 C83.978946,295.626291 84.661994,305.057921 85.0125054,307.305688 C88.2569831,307.305688 90.4049891,303.106859 92.759707,301.506449 C94.2336525,300.508441 96.4895082,300.490459 98.0713034,299.591352 C104.281647,295.994925 106.72624,292.893007 111.112126,287.237626 C112.289485,285.691162 114.006093,284.351493 114.79699,282.679154 C116.127136,279.784031 115.875487,275.953836 117.39437,273.175596 L119.10199,270.981776 L120.180487,269.588161 C121.366833,267.691045 122.094818,265.353368 123.829401,263.761949 C125.563983,262.17053 127.738951,261.271423 129.221884,259.266415 C129.406762,259.009503 129.572002,258.739004 129.716195,258.457219 C130.857604,256.227435 130.740767,253.395248 132.178763,251.354276 C133.239285,249.807813 135.252478,249.124491 136.447812,247.703903 C137.646142,245.588005 138.826497,243.463116 139.988877,241.329236 C141.984096,238.332214 143.973323,235.335191 145.956559,232.338169 C151.843353,221.674763 142.460432,224.102351 141.903208,214.9944 C141.741434,212.611767 143.574878,211.577795 144.7073,209.815545 C146.181245,207.486859 147.709116,204.699628 150.171683,203.162156 C155.860754,199.619675 166.160398,201.642665 173.008852,201.867442 L173.008852,202.325986 C173.790762,202.325986 173.053789,205.679654 173.008852,206.560779 C173.628987,206.506833 174.222161,206.434904 174.806346,206.353985 L176.172442,205.904431 C176.729666,205.55378 177.277901,205.185146 177.835125,204.825503 C177.987912,204.681646 178.113736,204.537789 178.257536,204.37595 C179.578694,202.86545 178.257536,199.57472 178.257536,197.452828 L178.257536,197.120158 C178.373393,194.422282 178.897633,191.757593 179.812369,189.21701 C181.735688,184.155039 188.008944,185.575628 190.956835,181.331844 C191.136584,181.053121 191.289372,180.765407 191.469121,180.432738 C193.518265,176.512632 193.086866,172.017099 193.931689,167.485601 C194.408025,164.842227 195.396647,162.639416 195.648296,159.834203 C195.837033,157.559463 195.648296,155.482526 196.367294,153.432563 C197.463765,150.177796 202.101301,148.181779 202.559662,144.756183 L202.559662,143.857076 C202.538702,143.611153 202.496605,143.367494 202.433838,143.1288 L202.433838,143.1288 Z M64.7098043,109.115592 L64.9165162,108.980726 L64.7098043,109.115592 Z M63.0111719,110.014699 L63.2628212,109.897815 L63.0111719,110.014699 Z M63.8649819,109.60111 L64.1256186,109.448262 L63.8649819,109.60111 Z M70.0933005,100.448203 C70.0933005,100.717935 70.0124133,100.987667 69.9584884,101.248408 C70.0124133,100.996658 70.0573506,100.726926 70.0933005,100.457194 L70.0933005,100.448203 Z M69.8955761,101.51814 L69.778739,102.012649 L69.8955761,101.51814 Z M69.6888642,102.336327 C69.6439269,102.471193 69.607977,102.615051 69.5540522,102.740925 C69.6057278,102.611452 69.6507244,102.479409 69.6888642,102.345319 L69.6888642,102.336327 Z M69.437215,103.11855 C69.437215,103.208461 69.3743027,103.28039 69.3473403,103.361309 C69.3383528,103.28039 69.3743027,103.208461 69.4012651,103.127541 L69.437215,103.11855 Z M68.960879,104.269407 L68.8979666,104.386291 L68.960879,104.269407 Z M68.6463174,104.889791 L68.5834051,104.997683 L68.6463174,104.889791 Z M120.872522,217.089319 L120.755685,217.224185 L120.872522,217.089319 Z M114.788003,231.349151 L115.111552,231.259241 L114.788003,231.349151 Z M115.246364,231.196303 L115.390164,231.133366 L115.246364,231.196303 Z M76.8518801,200.734567 C77.0226421,200.734567 77.4450533,200.815487 77.9663267,200.887416 C77.6043231,200.813974 77.238138,200.762928 76.869855,200.734567 L76.8518801,200.734567 Z M80.6535811,199.502791 L80.6535811,199.287006 C80.6622403,199.358673 80.6622403,199.431124 80.6535811,199.502791 Z M80.6535811,199.170122 C80.644537,199.043131 80.626517,198.916941 80.5996563,198.792497 C80.6293379,198.916764 80.6503592,199.042942 80.6625686,199.170122 L80.6535811,199.170122 Z M80.6535811,199.907389 C80.6426775,199.953603 80.6276377,199.99874 80.6086437,200.042255 C80.6276377,199.99874 80.6426775,199.953603 80.6535811,199.907389 L80.6535811,199.907389 Z M80.6535811,199.619675 L80.6535811,199.799496 C80.6490697,199.739641 80.6490697,199.679531 80.6535811,199.619675 Z M80.3300321,200.437862 C80.3642869,200.411607 80.391977,200.37775 80.4109193,200.338961 L80.3569945,200.437862 L80.3300321,200.437862 Z M80.4648442,200.258041 C80.4910655,200.222145 80.512234,200.182816 80.5277565,200.141157 L80.4738316,200.258041 L80.4648442,200.258041 Z M80.177245,200.59071 L80.2671198,200.509791 L80.177245,200.59071 Z M78.4516502,202.02029 L78.2808883,201.903406 C78.3349661,201.946369 78.3920308,201.985429 78.4516502,202.02029 Z M77.9932891,200.887416 L78.200001,200.887416 L77.9932891,200.887416 Z M79.530147,202.685629 L79.3953349,202.595718 L79.530147,202.685629 Z M79.2515353,200.887416 L79.4402723,200.887416 L79.2605228,200.887416 L79.2515353,200.887416 Z M79.4941971,200.887416 L79.7188839,200.833469 L79.4941971,200.896407 L79.4941971,200.887416 Z M79.7548338,200.824478 C79.8131493,200.811948 79.8682338,200.787456 79.9166083,200.75255 C79.8660789,200.783536 79.8116851,200.807721 79.7548338,200.824478 L79.7548338,200.824478 Z M79.9885081,200.716585 C80.0305013,200.697958 80.0697993,200.673765 80.1053452,200.644657 C80.0697993,200.673765 80.0305013,200.697958 79.9885081,200.716585 L79.9885081,200.716585 Z M87.2324112,277.185612 L87.1515239,277.347452 L87.2324112,277.185612 Z M86.8459499,277.895907 L86.7291127,278.048755 L86.8459499,277.895907 Z M86.3875887,278.633174 L86.3246764,278.732076 L86.3875887,278.633174 Z M85.821378,279.334477 L85.7045408,279.460352 C85.7854281,279.451361 85.8483404,279.415397 85.8483404,279.370442 L85.821378,279.334477 Z M85.2911171,279.882933 L85.1113676,280.035781 C85.1865149,279.994238 85.2535073,279.939404 85.309092,279.873941 L85.2911171,279.882933 Z M84.6889564,280.377441 L84.5002195,280.512307 L84.6889564,280.377441 Z M88.787244,273.62515 L89.0388932,273.031739 L88.787244,273.62515 Z M89.1557304,272.779989 C89.281555,272.501266 89.4073796,272.231534 89.5421917,271.970793 C89.434342,272.267499 89.3085174,272.537231 89.1826928,272.815954 L89.1557304,272.779989 Z M118.92224,220.056371 C118.92224,220.002425 118.92224,219.957469 118.985153,219.903523 C119.048065,219.849576 118.967178,220.038389 118.949203,220.092335 L118.92224,220.056371 Z M119.13794,219.54388 L119.227814,219.355068 L119.13794,219.54388 Z M119.380601,219.04038 L119.488451,218.851568 L119.380601,219.04038 Z M119.659213,218.554863 C119.69488,218.489953 119.733878,218.426931 119.77605,218.36605 C119.741894,218.439227 119.711888,218.514271 119.686176,218.590827 L119.659213,218.554863 Z M119.964787,218.105309 L120.090612,217.916497 C120.041665,217.965907 120.002078,218.023787 119.973775,218.087327 L119.964787,218.105309 Z M120.297324,217.646765 L120.432136,217.484926 L120.297324,217.646765 Z M170.797933,158.962069 L170.195773,159.708328 L170.797933,158.962069 Z M170.025011,159.861176 L169.56665,160.382658 L170.025011,159.861176 Z M169.440825,160.526515 L168.937527,161.083961 L169.440825,160.526515 Z" id="Shape"></path>
                        <path d="M96.1030469,79.8496683 C97.6938296,81.018507 100.318172,81.414114 102.394278,81.6478817 C101.980854,80.5329894 101.549455,79.4001149 101.127044,78.2852226 C99.5811988,74.8236617 98.2959902,70.84961 94.395427,69.4110392 C93.1281934,72.1533147 93.5865545,77.9975084 96.1030469,79.8496683 Z M76.5193436,99.5670788 C77.54496,100.091406 78.6680159,100.397538 79.8177461,100.466185 L79.8177461,100.007641 L79.359385,100.007641 C79.3414101,99.198445 77.2922663,99.5670788 76.5193436,99.5670788 Z M87.8165969,102.8668 L88.7153442,102.8668 C88.5715446,102.408256 88.4097701,101.967694 88.2659706,101.446212 C88.2659706,100.259391 83.8351465,100.106543 82.6128502,100.034614 C80.6535811,103.010658 85.7494782,103.460211 87.8165969,102.8668 Z" id="Shape"></path>
                    </g>
                    <g id="Group" transform="translate(0.000000, 257.144523)">
                        <path d="M233.660268,51.5727618 L233.660268,50.673655 C234.377233,50.673655 234.861185,49.0013165 235.139009,48.3539597 C236.796991,44.379908 234.081485,44.4788097 232.36973,42.2040697 C229.860352,38.8863659 236.958308,35.3888407 238.822418,34.1930288 L239.270521,34.1930288 C239.270521,33.5636541 239.422876,33.7434754 238.822418,33.7434754 C238.454973,32.619592 238.087528,31.4867175 237.720084,30.3718252 C237.370563,28.5736117 238.929963,24.3388191 237.173398,23.3138374 C235.049388,22.055088 228.829715,30.3268698 228.023129,31.8553513 L227.575025,31.8553513 L227.575025,32.3138957 L227.11796,32.3138957 C227.11796,31.5046997 226.302412,31.2709319 225.710916,30.9022981 C225.710916,28.8703169 227.98728,26.8023715 229.466021,25.7234434 L229.466021,25.264899 L229.923087,25.264899 L229.923087,24.8063546 L227.521253,24.0331228 C225.719028,23.5026323 223.802846,23.5026323 222.000621,24.0331228 C218.926632,24.9322295 216.70404,27.1260499 214.284282,29.3108792 C210.394746,32.7364759 206.29012,35.2270015 200.841184,35.6046263 L200.841184,35.155073 C199.944977,35.155073 200.670904,33.4467702 200.841184,32.7994133 C201.298249,31.0011999 202.167569,29.6974951 201.934556,27.6475318 C201.343059,25.5885774 200.742601,23.5476051 200.142143,21.4706686 C199.846394,17.9731434 204.175072,13.8102793 200.375156,11.1399323 C200.375156,9.72833477 194.997917,13.0730118 194.27199,13.4955919 L194.27199,13.9541364 L192.864945,13.9541364 C192.721552,12.0720063 192.569197,10.1868792 192.40788,8.29875507 L189.127764,8.29875507 C189.127764,5.79024731 195.96582,1.92408839 191.475825,0.305696287 C186.170282,3.06595393 184.153818,5.58345276 179.56524,9.53952236 C177.925182,10.9421288 175.890793,12.2368425 174.188001,13.7473418 C172.419165,15.086932 171.155409,16.9887004 170.603174,19.1419822 C168.882458,27.2339427 172.395587,37.0162239 167.314096,43.4178638 C164.266994,47.2300763 161.443943,52.408931 157.142152,54.7735817 C155.726145,55.5378224 150.779085,55.9064562 150.151741,56.688679 C148.162162,59.1252583 147.6334,64.0523631 146.871625,67.118317 C144.801387,75.2102776 141.924564,85.6578977 137.237404,92.374225 C135.122357,95.3772414 132.146951,97.3642673 129.700307,100.268382 C128.051287,102.174488 127.083384,104.29638 125.093805,105.968719 C121.957082,108.576128 117.78076,109.52019 114.644037,112.487242 C112.056987,115.526223 109.452013,118.565204 106.829116,121.604185 C104.588599,123.833969 101.9896,125.44337 99.9104009,127.834994 C97.8312017,130.226618 96.0835989,133.175688 93.4218654,135.459419 C89.684684,138.642257 84.3701791,139.055846 80.3193255,141.636282 C77.2602737,144.681257 74.2042094,147.720238 71.1511324,150.753225 C69.1705159,152.425563 66.9031133,152.911081 64.7970278,154.232768 C55.6467589,154.232768 52.8057841,156.453561 49.6152887,164.257808 C49.4270853,164.716352 49.2299199,165.156914 49.0417165,165.62445 C48.6832339,166.451628 48.3247513,167.269815 47.9752307,168.088002 C46.4696037,170.191912 43.6824013,170.560546 41.863102,172.223893 C39.4523063,174.381749 39.8824855,178.634524 38.9862789,181.565612 C33.9585601,181.565612 34.1646876,182.194987 31.5656886,185.494708 C30.5977855,186.681529 29.1369688,187.292922 28.339345,188.713511 C26.9323007,191.096143 26.5469319,193.128125 24.4408464,195.223043 L23.9837811,195.223043 C23.9837811,194.566695 23.0875745,197.866417 23.0875745,198.981309 L22.6394713,198.981309 C22.6394713,200.186112 18.6334279,198.774515 17.9433489,198.522765 L17.9433489,198.073212 L17.4862835,198.073212 C17.4862835,200.392907 17.280156,201.256049 15.6132118,202.77554 C15.8283014,203.764557 16.0344289,204.735592 16.2405564,205.706628 C15.8910359,206.605734 14.6542708,206.434904 14.7618156,207.873475 C14.8783224,209.77059 16.2853667,211.8745 15.1292603,213.753633 C15.0779325,213.826891 15.021001,213.896031 14.958981,213.960427 C12.628844,216.84656 7.71763202,215.857543 5.73701553,219.094327 C3.46961293,222.798647 7.6190493,223.392057 10.451062,223.490959 L10.451062,224.435021 C9.626552,224.435021 8.74826957,225.495967 8.10300085,225.846618 C8.10300085,226.673797 10.6123792,227.491984 11.2755721,228.283198 C14.403333,232.032473 9.00816947,233.219293 7.18887015,234.325195 C1.4979585,234.325195 0.153648656,237.409131 0.153648656,242.79478 C2.07153069,242.79478 3.60404391,240.663897 5.31579844,239.971585 C5.31579844,239.2523 5.59362248,239.522032 6.212005,239.522032 L6.212005,240.466094 C5.42334323,240.466094 3.89083001,243.451128 3.3979164,244.22436 C2.68095116,244.22436 2.94981312,244.503083 2.94981312,245.168422 L3.3979164,245.168422 C3.3979164,247.533073 9.61758993,242.246325 10.4421,241.877691 L10.4421,241.419147 L10.8902032,241.419147 C10.8902032,242.03953 11.0425584,241.877691 10.4421,241.877691 C10.4421,244.862726 5.96106717,246.463136 6.68699448,250.814812 C8.56006619,251.084544 10.4421,251.336294 12.3151717,251.597035 L20.7663995,250.976651 L25.883739,251.363267 C28.9577275,251.084544 28.0346347,247.371233 30.4185442,246.256341 C31.8793609,245.564029 33.4746086,246.256341 34.8189184,246.517082 C40.1961578,247.685921 41.6390503,251.129499 42.3291294,256.470193 C49.660099,256.470193 50.1798989,248.477135 56.8655998,258.349326 C59.1330024,258.349326 59.9306262,257.935737 61.5617222,259.760924 C59.8589297,259.760924 57.9768959,263.860851 59.4645988,265.155564 C63.4079077,268.49125 68.1398783,265.946778 70.9450049,262.620083 C72.3520492,262.620083 73.1227868,267.933804 75.1661378,269.210536 C75.1661378,267.277456 85.311196,266.21651 87.2828504,265.686037 L90.9483353,263.824886 C92.1853315,262.73919 93.5413331,261.798078 94.9902269,261.019673 C97.2217812,260.012674 99.9910595,259.868817 101.514611,257.639032 C103.414569,254.860792 102.796186,251.093535 105.206982,248.531081 C107.617777,245.968627 110.978552,245.294297 113.272841,242.45312 C115.567129,239.611942 115.549205,235.458069 118.273673,232.922588 C120.487304,230.845652 124.179675,233.336177 126.249912,231.457044 C126.63342,230.964562 126.816028,230.34426 126.760749,229.721768 C126.635281,228.040439 125.425402,227.024448 125.864543,225.10036 C126.653205,221.593844 129.951245,218.806613 131.161124,215.41698 C133.177588,209.725635 133.40164,203.863459 136.233653,198.630658 C137.8289,195.663606 140.660913,193.42483 142.283047,190.538697 C142.763989,189.696745 143.117379,188.787684 143.331609,187.841377 C144.828274,180.648523 139.191134,172.313804 143.537736,165.885191 C145.814567,162.530529 148.617011,159.567207 151.836609,157.109909 C153.071196,156.165915 154.409246,155.36652 155.824728,154.727276 C159.355782,153.162831 163.272205,152.47951 166.579207,150.483493 C168.425392,149.350618 169.626309,147.264691 171.338064,145.925022 C175.066283,142.939987 179.986457,141.429488 184.960403,140.85406 C186.914134,140.611301 189.504171,140.161747 191.457901,140.584328 L193.940393,141.582336 C195.006879,141.483434 196.064403,141.36655 197.112964,141.258658 C198.520009,141.330586 199.47895,142.553371 201.065235,141.95097 C202.857648,141.249667 205.349103,135.414464 204.300541,133.77809 C203.637342,133.061926 202.759535,132.582147 201.800125,132.411447 C198.141997,131.241118 194.139152,132.291457 191.520635,135.108768 L189.172574,135.108768 L189.172574,134.164706 L189.620678,134.164706 C189.620678,133.130733 192.721552,131.809046 192.936642,129.866975 C193.286162,126.432388 189.468322,124.616192 190.050857,121.037747 C190.355567,119.095677 192.040435,117.657106 193.115883,116.074678 C194.01209,114.708036 194.191331,113.035698 195.553565,111.929796 C199.774698,108.459244 206.756147,109.726985 209.803249,104.503175 C209.086284,104.503175 209.41788,104.727951 209.184867,104.080595 C207.822633,100.313337 211.416421,93.9656439 213.522507,91.1874041 C214.212586,90.5580294 214.884741,89.9106725 215.592744,89.2633157 C217.555436,85.8646923 218.39787,82.2323011 221.229883,79.2382757 C222.869941,77.4400622 226.723629,75.5159739 227.63776,74.0774031 C229.224045,71.5149489 228.901411,68.2152272 230.89099,65.8775498 C231.881191,64.7882409 233.01135,63.8358355 234.251764,63.0453636 C236.295115,61.633766 238.347428,60.3480434 239.306369,57.8665088 C240.856807,53.4249216 236.949346,51.878458 233.660268,51.5727618 Z M125.532946,126.70212 C125.290971,126.980843 125.040033,127.250575 124.807019,127.538289 C125.048995,127.241584 125.290971,126.980843 125.532946,126.70212 Z M80.5881874,157.172847 L80.8122391,157.1189 L80.5881874,157.172847 Z M58.4070751,174.426705 L58.2726441,174.426705 L58.4070751,174.426705 Z M57.5915271,174.21991 L57.4839823,174.174955 L57.5915271,174.21991 Z" id="Shape"></path>
                        <path d="M224.276985,19.5555713 C227.673608,19.5555713 229.403287,14.5475468 231.312207,12.4975835 C231.312207,11.5984768 228.041053,11.5984768 227.082112,11.5535214 C224.769899,13.7293597 223.909541,15.6534481 223.801996,19.0880358 L224.259061,19.0880358 L224.276985,19.5555713 Z M225.68403,20.9671688 C224.563771,20.9671688 226.365147,22.2978468 226.777402,22.4866592 C228.318877,23.1609892 232.100869,23.790364 233.310747,22.2079361 C235.103161,19.8073212 232.100869,18.4226968 230.37119,18.1439737 C228.874525,19.3757499 227.126922,19.780348 225.68403,20.9671688 Z M13.1038335,211.631741 C12.9291897,209.628352 12.2875758,207.694201 11.2307617,205.985351 C9.59070374,208.035314 10.451062,209.725635 11.6878271,211.631741 L13.1038335,211.631741 Z M6.53463937,231.412089 L6.53463937,230.953545 L6.99170471,230.953545 C6.99170471,228.624858 4.71534005,225.657806 2.76160975,224.830628 C0.906462167,226.565904 0.494207149,228.274206 0.413548558,230.953545 L0.870613904,230.953545 C0.906462167,231.771732 5.50400182,231.412089 6.57048763,231.412089 L6.53463937,231.412089 Z M47.329962,270.972785 C45.81978,269.94793 44.0146737,269.451736 42.1946984,269.561187 C40.644261,270.460294 39.0758996,271.44032 37.5075381,272.384382 C37.5075381,275.081703 39.3806098,276.879916 38.9145824,279.918897 L38.457517,279.918897 C38.457517,280.656164 37.3910312,280.404414 37.0952831,281.1237 C36.8443452,282.598235 36.5844453,284.054788 36.3335075,285.511341 C35.5986181,288.082786 31.8524747,292.398498 34.0123325,295.311604 L34.3977013,295.635282 L35.2401355,295.940979 C39.6315476,296.750175 39.8555993,292.173721 42.956474,290.81607 L46.3620589,290.366517 C49.9468851,289.880999 54.9118695,288.676196 56.8028653,285.277573 C58.5504681,282.166664 49.8393404,272.806963 47.329962,270.954803 L47.329962,270.972785 Z" id="Shape"></path>
                    </g>
                </g>
            </g>
        </g>
    </g>
</svg>