<svg xmlns="http://www.w3.org/2000/svg" width="80" height="82" viewBox="0 0 80 82">
    <g fill="#4C983B" fill-rule="nonzero" stroke="#4C983B">
        <path d="M3.598 55.104c.28.68 1.06 1.004 1.74.725a1.33 1.33 0 0 0 .726-1.737 29.672 29.672 0 0 1-1.54-4.853 1.334 1.334 0 0 0-2.605.576 32.54 32.54 0 0 0 1.679 5.29zM3.84 35.045a1.332 1.332 0 0 0 1.672-.87 31.929 31.929 0 0 1 1.91-4.733 1.33 1.33 0 0 0-.591-1.788 1.335 1.335 0 0 0-1.792.59 34.63 34.63 0 0 0-2.072 5.128 1.328 1.328 0 0 0 .872 1.673zM3.947 44.19v-.256c.022-1.6.155-3.197.4-4.78a1.335 1.335 0 1 0-2.635-.399 36.873 36.873 0 0 0-.431 5.143v.354a1.303 1.303 0 0 0 1.333 1.3 1.358 1.358 0 0 0 1.333-1.362zM18.726 69.976a36.987 36.987 0 0 1-3.952-3.284 1.335 1.335 0 0 0-1.863.062c-.5.522-.492 1.347.019 1.86a39.351 39.351 0 0 0 4.239 3.523c.597.43 1.43.293 1.86-.304a1.329 1.329 0 0 0-.303-1.857zM27.814 74.583a30.53 30.53 0 0 1-4.719-1.934 1.334 1.334 0 0 0-1.794.58 1.329 1.329 0 0 0 .581 1.79 33.322 33.322 0 0 0 5.133 2.103 1.331 1.331 0 0 0 .8-2.539h-.001zM11.09 64.764c.575-.458.67-1.295.212-1.87a37.836 37.836 0 0 1-2.934-4.224 1.335 1.335 0 0 0-2.35-.004c-.232.432-.209.956.063 1.365a40.65 40.65 0 0 0 3.137 4.524c.46.575 1.299.67 1.874.21l-.002-.001zM38.947 1A39.9 39.9 0 0 0 17.36 7.3L11.927 1.43a1.334 1.334 0 0 0-2.301.726L6.959 22.114a1.331 1.331 0 0 0 1.508 1.493l18.667-2.662a1.327 1.327 0 1 0 .79-2.22L22.901 13.3c11.645-6.745 26.274-5.495 36.6 3.128C69.827 25.05 73.64 39.2 69.04 51.827 64.44 64.454 52.41 72.858 38.947 72.85h-.016a26.06 26.06 0 0 1-3.15-.191 1.33 1.33 0 1 0-.32 2.642c1.15.14 2.308.21 3.466.21h.02c14.798.012 27.973-9.352 32.8-23.312 4.825-13.96.24-29.438-11.419-38.535C48.671 4.568 32.512 3.86 20.1 11.9a1.33 1.33 0 0 0-.251 2.017l4.4 4.753-14.414 2.057 2.059-15.41 4.267 4.622c.448.486 1.187.57 1.733.197 13.248-9.015 30.784-8.58 43.568 1.078C74.245 20.873 79.42 37.6 74.32 52.768c-5.1 15.17-19.338 25.395-35.373 25.405a37.88 37.88 0 0 1-5.132-.349 1.331 1.331 0 0 0-.364 2.636c14.802 2.036 29.505-4.33 38.128-16.507a39.846 39.846 0 0 0 2.862-41.376C67.577 9.334 53.888 1.013 38.947 1z"/>
        <path stroke-width="2" d="M40.765 15.636c-.645 0-1.167.596-1.167 1.33v23.95c0 .354.123.692.342.942l11.678 13.305c.459.504 1.187.497 1.637-.016.451-.513.457-1.343.015-1.865L41.933 40.366v-23.4c0-.734-.523-1.33-1.168-1.33z"/>
    </g>
</svg>
