<?xml version="1.0" encoding="UTF-8"?>
<svg width="80px" height="80px" viewBox="0 0 80 80" version="1.1" xmlns="http://www.w3.org/2000/svg" xmlns:xlink="http://www.w3.org/1999/xlink">
    <!-- Generator: Sketch 53.2 (72643) - https://sketchapp.com -->
    <title>Group 14 Copy</title>
    <desc>Created with Sketch.</desc>
    <g id="Design---Refinements" stroke="none" stroke-width="1" fill="none" fill-rule="evenodd">
        <g id="Home-Page" transform="translate(-1146.000000, -1075.000000)">
            <g id="Group-14-Copy" transform="translate(1146.000000, 1075.000000)">
                <path d="M16.2359734,8.14643799 C16.250815,5.24076517 14.7089286,2.55029678 12.1957359,1.09333784 C9.68171864,-0.363621319 6.5806303,-0.363621319 4.06743769,1.09333784 C1.55342059,2.55029678 0.0123586394,5.24076517 0.0272002226,8.14643799 C-0.0140265848,11.9929089 2.68880972,15.323219 6.46189679,16.0751979 L6.46189679,32.0217678 C2.68798524,32.7729222 -0.0173247379,36.1032321 0.0214286131,39.9505277 C0.0222530986,43.7739116 2.69293257,47.0778364 6.43138893,47.8801121 L6.44870418,63.8200857 C2.38702882,64.6693602 -0.377648115,68.4482191 0.0420420168,72.5758575 C0.461731938,76.7043206 3.93056444,79.8491094 8.07964096,79.8631265 C12.2287175,79.8771439 15.7189879,76.7562664 16.1675367,72.6311016 C16.615261,68.5059367 13.8761448,64.708938 9.82106576,63.8316293 L9.79797869,47.8792876 C13.5422069,47.091029 16.226079,43.792876 16.2359734,39.9670185 C16.2458679,36.1403365 13.579311,32.8281663 9.8392055,32.0217678 L9.8392055,16.0751979 C13.5578732,15.2457123 16.2112372,11.9566292 16.2359734,8.14643799 L16.2359734,8.14643799 Z M3.37729922,8.14643799 C3.37729922,5.53430079 5.49471347,3.41688654 8.10685067,3.41606206 C10.7189879,3.41606206 12.8364021,5.53347631 12.8364021,8.14478902 C12.8372266,10.7569262 10.7198124,12.875165 8.10849985,12.8759894 C5.49718714,12.8735158 3.38059737,10.7577507 3.37729922,8.14643799 L3.37729922,8.14643799 Z M12.8364021,71.7546174 C12.8364021,74.3667546 10.7189879,76.4849934 8.10602619,76.4849934 C5.49388898,76.4841689 3.37647473,74.3667546 3.37729922,71.7537929 C3.37729922,69.1416557 5.49553795,67.0242415 8.10849985,67.025066 C10.7181634,67.0291886 12.833104,69.1449539 12.8364021,71.7546174 Z M12.8364021,39.9505277 C12.8364021,42.5626649 10.7181634,44.6800792 8.10602619,44.6800792 C5.49388898,44.6800792 3.37647473,42.5618404 3.37729922,39.9497032 C3.37729922,37.3367413 5.49553795,35.2201518 8.10849985,35.2209763 C10.7181634,35.2242744 12.833104,37.3400397 12.8364021,39.9505277 Z" id="Shape" fill="#184414" fill-rule="nonzero"></path>
                <rect id="Rectangle" stroke="#184414" stroke-width="3.5" x="22.6675367" y="1.75" width="32.5" height="12.5" rx="6.25"></rect>
                <rect id="Rectangle" stroke="#184414" stroke-width="3.5" x="22.6675367" y="33.75" width="42.5" height="12.5" rx="6.25"></rect>
                <rect id="Rectangle" stroke="#184414" stroke-width="3.5" x="22.6675367" y="65.75" width="55.5" height="12.5" rx="6.25"></rect>
            </g>
        </g>
    </g>
</svg>