<svg xmlns="http://www.w3.org/2000/svg" width="68" height="80" viewBox="0 0 68 80">
    <path fill="#D37F04" fill-rule="nonzero" d="M67.92 21.706c.179 9.397.4 21.092-3.513 31.719-2.145 5.827-5.39 10.893-9.647 15.058-4.845 4.74-11.19 8.506-18.859 11.193a5.835 5.835 0 0 1-1.9.324 5.73 5.73 0 0 1-1.897-.323c-7.678-2.682-14.03-6.446-18.88-11.187-4.257-4.163-7.503-9.228-9.647-15.054C-.32 42.84-.099 31.168.08 21.788l.003-.144c.035-.774.059-1.587.072-2.486.066-4.411 3.566-8.06 7.97-8.306 9.18-.514 16.283-3.513 22.351-9.439l.052-.05a5.103 5.103 0 0 1 6.946 0l.051.05c6.069 5.926 13.171 8.925 22.353 9.439 4.403.246 7.903 3.895 7.968 8.306.014.904.038 1.717.072 2.486l.003.062zm-7.909 30.095c3.603-9.787 3.404-20.511 3.225-29.975a85.25 85.25 0 0 1-.075-2.598 3.764 3.764 0 0 0-3.544-3.689c-5.196-.29-9.76-1.296-13.955-3.075-4.188-1.776-7.908-4.28-11.371-7.654a.432.432 0 0 0-.58 0c-3.463 3.374-7.183 5.878-11.372 7.654-4.194 1.779-8.758 2.785-13.953 3.075a3.765 3.765 0 0 0-3.546 3.688 84.413 84.413 0 0 1-.074 2.599l-.001.052c-.18 9.453-.383 20.169 3.21 29.935C12.081 62.98 20.48 70.645 33.646 75.245a1.05 1.05 0 0 0 .708 0C47.508 70.637 55.9 62.968 60.01 51.8zM34 20.064c10.973 0 19.9 8.944 19.9 19.937 0 10.994-8.927 19.938-19.9 19.938-10.974 0-19.901-8.944-19.901-19.938 0-10.993 8.927-19.937 19.9-19.937zm0 35.18c8.389 0 15.214-6.838 15.214-15.243 0-8.405-6.825-15.243-15.214-15.243-8.39 0-15.215 6.838-15.215 15.243 0 8.405 6.825 15.243 15.215 15.243zm5.72-21.432a2.339 2.339 0 0 1 3.313 0 2.35 2.35 0 0 1 0 3.319l-10.9 10.92a2.333 2.333 0 0 1-1.657.687c-.6 0-1.2-.228-1.657-.687l-4.166-4.173a2.35 2.35 0 0 1 0-3.32 2.34 2.34 0 0 1 3.314 0l2.509 2.514 9.243-9.26z"/>
</svg>
