<?xml version="1.0" encoding="UTF-8"?>
<svg width="82px" height="82px" viewBox="0 0 82 82" version="1.1" xmlns="http://www.w3.org/2000/svg" xmlns:xlink="http://www.w3.org/1999/xlink">
    <!-- Generator: Sketch 53.2 (72643) - https://sketchapp.com -->
    <title>Group 13 Copy</title>
    <desc>Created with Sketch.</desc>
    <g id="Design---Refinements" stroke="none" stroke-width="1" fill="none" fill-rule="evenodd">
        <g id="Home-Page" transform="translate(-523.000000, -1074.000000)" fill="#184414" fill-rule="nonzero" stroke-width="0.5">
            <g id="Group-13-Copy" transform="translate(524.000000, 1075.000000)">
                <path d="M54.7891131,45.1058157 L43.9277069,38.4320657 C43.7953631,38.3506595 43.6431756,38.2955032 43.4895819,38.2714407 L40.0891131,37.6714407 C39.4600506,37.5601907 38.8422381,37.9930032 38.7313006,38.6220657 C38.6203631,39.2511282 39.0527069,39.8689407 39.6817694,39.9798782 L42.8906756,40.5461282 L53.5620819,47.1031595 C54.0830194,47.4233157 54.7975506,47.267847 55.1433319,46.764722 C55.5142694,46.224722 55.3467694,45.4487845 54.7891131,45.1058157 Z" id="Path" stroke="#184E13"></path>
                <path d="M79.5384881,45.481597 C79.0963006,45.0086282 78.3547381,44.9836282 77.8817694,45.4255032 L73.1303631,49.8661282 L51.3588006,28.3845657 L79.4834881,2.02706571 C79.9556756,1.58440946 79.9797381,0.842690715 79.5372381,0.370503215 C79.0947381,-0.101684285 78.3528631,-0.125746785 77.8806756,0.316753215 L48.8666131,27.5076907 C48.3881756,27.955972 48.3781756,28.736597 48.8448944,29.197222 L50.7706756,31.0970657 L50.1559881,31.6398782 L37.2839569,30.5314407 C37.0853631,30.5145657 36.8789569,30.5487845 36.6977069,30.6325345 L26.4988006,35.2775345 C26.4691131,35.2698782 26.4394256,35.2623782 26.4086444,35.2569095 L20.5420819,34.221597 L21.0164569,33.0089407 C21.2509881,32.4092532 20.9580194,31.7326907 20.3602069,31.4937845 L1.60770688,23.992847 C1.00645688,23.7520657 0.324581876,24.044722 0.0842693764,24.6458157 C-0.156199374,25.2467532 0.136144376,25.9289407 0.737238126,26.1692532 L18.4095819,33.2383157 L7.99520688,59.852222 L1.56364438,57.5742532 C0.953331876,57.3583157 0.283644376,57.6775345 0.0675506264,58.287847 C-0.148543124,58.8980032 0.170988126,59.567847 0.781144376,59.7839407 L8.28208188,62.4405032 C8.87083188,62.649097 9.53739438,62.3439407 9.76473813,61.7626907 L11.5052069,57.3148782 L16.0656756,59.8705032 L15.5627069,60.6858157 C14.1375506,62.9956595 14.8570819,66.0344095 17.1670819,67.459722 C18.3886444,68.213472 19.9050506,68.392222 21.2700506,67.950347 C21.4889569,69.372847 22.3248944,70.642222 23.5506756,71.398472 C24.7722381,72.152222 26.2884881,72.330972 27.6536444,71.889097 C27.8727069,73.311597 28.7083319,74.5808157 29.9341131,75.337222 C31.1594256,76.0933157 32.6678631,76.2712845 34.0373944,75.8292532 C34.2567694,77.2511282 35.0922381,78.5198782 36.3177069,79.275972 C38.0988006,80.3748782 40.4563006,80.2106595 42.0617694,78.8650345 C42.4664569,78.5258157 42.8147381,78.120972 43.0919256,77.671597 L43.8914569,76.375972 L44.5497381,76.780347 C46.3331756,77.8761282 48.6900506,77.7073782 50.2930194,76.3587845 C50.6970819,76.0187845 51.0445819,75.6133157 51.3209881,75.163472 C51.8703631,74.2692532 52.0977069,73.2670657 52.0377069,72.2914407 C52.4098944,72.380972 52.7908319,72.429097 53.1752069,72.429097 C54.8773944,72.429097 56.4875506,71.5314407 57.3783319,70.0817532 C57.9148944,69.2083157 58.1600506,68.2125345 58.0978631,67.2101907 C58.4691131,67.2992532 58.8492694,67.3470657 59.2323944,67.3470657 C60.9345819,67.3470657 62.5448944,66.4494095 63.4355194,64.999722 C63.9725506,64.1256595 64.2175506,63.1292532 64.1548944,62.1261282 C64.5302069,62.2155032 64.9113006,62.262222 65.2906756,62.262222 C66.9459881,62.262222 68.5645819,61.4287845 69.4928631,59.9180032 C70.9138006,57.605347 70.1884881,54.5680032 67.8758319,53.1470657 L67.0727069,52.6536282 L69.7663006,49.8392532 L72.2858319,52.3251907 C72.7277069,52.760972 73.4559881,52.7706595 73.9092694,52.347222 L79.4828631,47.1383157 C79.9555194,46.6962845 79.9805194,45.9545657 79.5384881,45.481597 Z M21.9463006,64.6244095 C21.1995819,65.8342532 19.6078631,66.2111282 18.3978631,65.4648782 C17.1878631,64.7183157 16.8109881,63.126597 17.5573944,61.916597 L24.1220819,51.2773782 C24.8547381,50.0898782 26.4269256,49.701597 27.6273944,50.4108157 C28.8695819,51.1451907 29.2123944,52.8481595 28.4666131,54.0570657 L21.9463006,64.6244095 Z M28.3295819,68.5631595 C27.5831756,69.7730032 25.9913006,70.1500345 24.7814569,69.4036282 C23.5861444,68.665972 23.2022381,67.0525345 23.9409881,65.855347 L29.1925506,57.3439407 C29.9252069,56.156597 31.4973944,55.7681595 32.6978631,56.4773782 C33.9400506,57.2117532 34.2828631,58.914722 33.5369256,60.1236282 L28.3295819,68.5631595 Z M34.7136444,72.5019095 C34.3517694,73.0880032 33.7833319,73.4983157 33.1133319,73.6570657 C32.4428631,73.815972 31.7511444,73.7039407 31.1650506,73.3423782 C29.9698944,72.604722 29.5859881,70.9911282 30.3247381,69.794097 L34.2634881,63.4105032 C34.9961444,62.2230032 36.5684881,61.834722 37.7688006,62.5439407 C39.0109881,63.2783157 39.3538006,64.9812845 38.6080194,66.1901907 L34.7136444,72.5019095 Z M43.6786444,72.2570657 L41.0970819,76.4408157 C40.3594256,77.6361282 38.7459881,78.019722 37.5486444,77.2811282 C36.3534881,76.5436282 35.9697381,74.9298782 36.7083319,73.732847 L39.3341131,69.477222 C40.0667694,68.2900345 41.6391131,67.9011282 42.8394256,68.6108157 C44.0816131,69.3450345 44.4244256,71.0481595 43.6786444,72.2570657 Z M65.0292694,51.3980032 L59.2195819,47.8281595 C58.6808319,47.4970657 57.9384881,47.6744095 57.6075506,48.2131595 C57.2764569,48.7519095 57.4538006,49.4942532 57.9925506,49.8251907 L66.6483319,55.1437845 C67.8595819,55.8881595 68.2395819,57.479097 67.4953631,58.6905032 C66.7509881,59.9017532 65.1598944,60.2817532 63.9484881,59.5375345 L54.6652069,53.8331595 C54.1138006,53.494097 53.3919256,53.6667532 53.0531756,54.2181595 C52.7144256,54.7695657 52.8867694,55.4914407 53.4381756,55.8301907 L60.5913006,60.2255032 C61.7880194,60.9608157 62.1747381,62.5737845 61.4383319,63.772222 C60.7030194,64.9689407 59.0900506,65.3555032 57.8916131,64.6192532 L51.4091131,60.635972 C50.8575506,60.2970657 50.1358319,60.4695657 49.7970819,61.020972 C49.4583319,61.5723782 49.6306756,62.2942532 50.1820819,62.6330032 L54.5342694,65.307222 C55.7308319,66.0426907 56.1177069,67.655347 55.3813006,68.8539407 C54.6459881,70.0505032 53.0330194,70.4373782 51.8345819,69.700972 C51.8345819,69.700972 48.0070819,67.3514407 47.9713006,67.3342532 C47.4361444,67.0758157 46.7817694,67.259722 46.4642694,67.776597 C46.1255194,68.3280032 46.2978631,69.0498782 46.8492694,69.3886282 L48.4772381,70.3889407 C49.6884881,71.1333157 50.0683319,72.7242532 49.3241131,73.9356595 C48.5888006,75.1323782 46.9758319,75.5189407 45.7773944,74.7826907 L45.1230194,74.3805032 L45.6741131,73.487222 C46.3786444,72.345347 46.5972381,70.939097 46.2738006,69.629097 C45.9547381,68.3362845 45.1588006,67.257847 44.0330194,66.5923782 C43.1545819,66.0733157 42.1719256,65.8630032 41.2150506,65.9275345 C41.3947381,65.1556595 41.3956756,64.342222 41.2031756,63.5623782 C40.8841131,62.2695657 40.0881756,61.1911282 38.9623944,60.5256595 C38.0839569,60.0064407 37.1013006,59.7961282 36.1444256,59.8606595 C36.6277069,57.7844095 35.7380194,55.5505032 33.8917694,54.4589407 C33.0133319,53.9398782 32.0306756,53.7295657 31.0738006,53.7939407 C31.5570819,51.7176907 30.6673944,49.4837845 28.8211444,48.392222 C26.5291131,47.0373782 23.5267694,47.7794095 22.1283319,50.0456595 L17.2986444,57.8731595 L12.3677069,55.110972 L19.6705194,36.4481595 L23.6467694,37.1498782 C22.5158319,38.5545657 22.1978631,40.532222 22.9947381,42.2823782 C23.8194256,44.0930032 25.6109881,45.1644095 27.4819256,45.1642532 C28.1633319,45.1642532 28.8553631,45.0220657 29.5148944,44.7217532 L36.3786444,41.5955032 C36.9598944,41.3308157 37.2242694,40.6244095 36.9594256,40.0431595 C36.6947381,39.4620657 35.9883319,39.1973782 35.4070819,39.4623782 L28.5431756,42.588472 C27.2495819,43.177847 25.7172381,42.6045657 25.1278631,41.3106595 C24.5386444,40.0167532 25.1117694,38.484722 26.4056756,37.895347 L37.3891131,32.8930032 L50.4544256,34.0181595 C50.4880194,34.0211282 50.5216131,34.0225345 50.5550506,34.0225345 C50.8394256,34.0225345 51.1155194,33.9189407 51.3306756,33.7292532 L52.4428631,32.747222 L68.0969256,48.1923782 L65.0292694,51.3980032 Z" id="Shape" stroke="#184E12"></path>
            </g>
        </g>
    </g>
</svg>