<svg id="Layer_1" data-name="Layer 1" xmlns="http://www.w3.org/2000/svg" viewBox="0 0 161.94 61.13"><defs><style>.cls-1{fill:#e43439;}.cls-1,.cls-2,.cls-3,.cls-4{fill-rule:evenodd;}.cls-2{fill:#0079bb;}.cls-3{fill:#f08f00;}.cls-4{fill:#54ab42;}.cls-5{fill:#1a171b;}</style></defs><title>refresh_logo</title><path d="M47.77,50.78h3.89c2.17,0,3.38,1.14,3.38,3a2.78,2.78,0,0,1-2.36,3.05v0c1.63.14,2.17,1,2.23,2.85L55,61a2.48,2.48,0,0,0,.54,1.77H54.12a3.47,3.47,0,0,1-.34-1.69l0-1c-.07-2.12-.49-2.79-2.59-2.79H48.94V62.8H47.77Zm1.17,5.62h2c1.84,0,2.92-.77,2.92-2.36s-.68-2.35-2.79-2.35H48.94Z" transform="translate(-3 -1.87)"/><path d="M58.73,50.78h6.46v.91h-5.3v4.37h5V57h-5v4.92h5.46v.91H58.73Z" transform="translate(-3 -1.87)"/><path d="M68.66,50.78h1.57l5,10.47h0V50.78h1.16v12H74.84l-5-10.47h0V62.8H68.66Z" transform="translate(-3 -1.87)"/><path d="M84.34,50.57c2.66,0,4.16,1.91,4.16,6.22S87,63,84.34,63s-4.17-1.9-4.17-6.21S81.67,50.57,84.34,50.57Zm0,11.52c1.86,0,3-1.41,3-5.3s-1.13-5.31-3-5.31-3,1.42-3,5.31S82.47,62.09,84.34,62.09Z" transform="translate(-3 -1.87)"/><path d="M91.29,50.78h1.24l2.91,10.87h0l2.9-10.87h1.25l-3.44,12H94.72Z" transform="translate(-3 -1.87)"/><path d="M104.66,50.78h1.46l3.85,12h-1.24l-1.06-3.5h-4.56l-1.06,3.5h-1.24Zm2.75,7.61-2-6.77h0l-2,6.77Z" transform="translate(-3 -1.87)"/><path d="M114.24,51.69h-3.36v-.91h7.89v.91h-3.36V62.8h-1.17Z" transform="translate(-3 -1.87)"/><path d="M121.8,50.78H123v12H121.8Z" transform="translate(-3 -1.87)"/><path d="M131,50.57c2.67,0,4.17,1.91,4.17,6.22S133.63,63,131,63s-4.16-1.9-4.16-6.21S128.3,50.57,131,50.57Zm0,11.52c1.87,0,3-1.41,3-5.3s-1.13-5.31-3-5.31-3,1.42-3,5.31S129.1,62.09,131,62.09Z" transform="translate(-3 -1.87)"/><path d="M138.89,50.78h1.57l5,10.47h0V50.78h1.17v12h-1.57l-5-10.47h0V62.8h-1.17Z" transform="translate(-3 -1.87)"/><path d="M156.23,53.86a2.12,2.12,0,0,0-2.34-2.38,2.19,2.19,0,0,0-2.46,2.16c0,3.59,6.31,1.62,6.31,5.84,0,2.32-1.57,3.52-3.94,3.52s-3.8-1.21-3.8-3.57v-.35h1.17v.45a2.36,2.36,0,0,0,2.59,2.56c1.65,0,2.82-.76,2.82-2.44,0-3.57-6.32-1.53-6.32-5.89,0-1.89,1.33-3.19,3.6-3.19s3.54,1.15,3.54,3.29Z" transform="translate(-3 -1.87)"/><path class="cls-1" d="M18.32,1.9a1.79,1.79,0,0,0-1.78,1.8l0,9.4a1.79,1.79,0,0,1-1.79,1.79l-10,0A1.8,1.8,0,0,0,3,16.72v.87a1.8,1.8,0,0,0,1.8,1.79l14.55-.05a1.79,1.79,0,0,0,1.78-1.79l0-13.86a1.8,1.8,0,0,0-1.8-1.79Z" transform="translate(-3 -1.87)"/><path class="cls-2" d="M28.41,1.87a1.8,1.8,0,0,1,1.8,1.79l0,9.39A1.79,1.79,0,0,0,32,14.84l10,0a1.8,1.8,0,0,1,1.8,1.79v.87A1.8,1.8,0,0,1,42,19.27l-14.54,0a1.8,1.8,0,0,1-1.8-1.79l0-13.85a1.8,1.8,0,0,1,1.79-1.8Z" transform="translate(-3 -1.87)"/><path class="cls-3" d="M18.44,41a1.8,1.8,0,0,1-1.8-1.79l0-9.49A1.8,1.8,0,0,0,14.81,28l-10,0A1.79,1.79,0,0,1,3,26.21v-.77a1.8,1.8,0,0,1,1.79-1.8l14.55,0a1.81,1.81,0,0,1,1.8,1.79l0,13.85A1.82,1.82,0,0,1,19.41,41Z" transform="translate(-3 -1.87)"/><path class="cls-4" d="M26.94,43.32a1.74,1.74,0,0,1,0-2.5l7-6.74a1.71,1.71,0,0,0,0-2.48l-7-6.69a1.7,1.7,0,0,1,0-2.48l.58-.55a1.9,1.9,0,0,1,2.59,0l10.31,9.73a1.69,1.69,0,0,1,0,2.47L30.13,43.94a1.86,1.86,0,0,1-2.57,0Z" transform="translate(-3 -1.87)"/><path class="cls-5" d="M60.17,43.24a2.7,2.7,0,0,1-2.06-1.14l-4.24-6.75a2.8,2.8,0,0,0-2-1.18l-1.73-.1V41.9a1.36,1.36,0,0,1-1.35,1.34h-.21a1.35,1.35,0,0,1-1.34-1.34V23.55c0-.74.39-1.36.86-1.38l1.39-.07c1.4-.07,2.42-.11,3.05-.11q7.65,0,7.65,6a5.69,5.69,0,0,1-1.23,3.57,5,5,0,0,1-2.92,2l5.43,8.55c.4.62.12,1.13-.62,1.13ZM50.09,24.79v5.49a1.54,1.54,0,0,0,1.34,1.49h.69a6.76,6.76,0,0,0,3.79-.83,3.4,3.4,0,0,0,1.19-3,2.75,2.75,0,0,0-1.27-2.55,8.12,8.12,0,0,0-4-.77C51.51,24.65,50.94,24.7,50.09,24.79Z" transform="translate(-3 -1.87)"/><path class="cls-5" d="M68.56,24.79a1.36,1.36,0,0,0-1.35,1.35v3.15a1.36,1.36,0,0,0,1.35,1.35h4.32a1.23,1.23,0,1,1,0,2.44H68.56a1.35,1.35,0,0,0-1.35,1.34v4.89a1.36,1.36,0,0,0,1.35,1.35h6.93a1.29,1.29,0,1,1,0,2.58H65.66a1.35,1.35,0,0,1-1.34-1.34V23.55a1.34,1.34,0,0,1,1.34-1.34h10a1.29,1.29,0,1,1,0,2.58Z" transform="translate(-3 -1.87)"/><path class="cls-5" d="M84.45,24.79a1.35,1.35,0,0,0-1.34,1.35v3.15a1.35,1.35,0,0,0,1.34,1.35h4.78a1.23,1.23,0,1,1,0,2.44H84.45a1.34,1.34,0,0,0-1.34,1.34V41.9a1.36,1.36,0,0,1-1.35,1.34h-.21a1.35,1.35,0,0,1-1.34-1.34V23.55a1.35,1.35,0,0,1,1.34-1.34H92a1.29,1.29,0,1,1,0,2.58Z" transform="translate(-3 -1.87)"/><path class="cls-5" d="M108.91,43.24a2.7,2.7,0,0,1-2.06-1.14l-4.24-6.75a2.78,2.78,0,0,0-2-1.18l-1.73-.1V41.9a1.36,1.36,0,0,1-1.35,1.34h-.21a1.35,1.35,0,0,1-1.34-1.34V23.55c0-.74.39-1.36.86-1.38l1.39-.07c1.4-.07,2.42-.11,3-.11q7.65,0,7.65,6a5.69,5.69,0,0,1-1.23,3.57,5,5,0,0,1-2.92,2l5.43,8.55c.4.62.12,1.13-.62,1.13ZM98.83,24.79v5.49a1.54,1.54,0,0,0,1.34,1.49h.69a6.78,6.78,0,0,0,3.79-.83,3.4,3.4,0,0,0,1.19-3,2.75,2.75,0,0,0-1.27-2.55,8.12,8.12,0,0,0-4-.77C100.25,24.65,99.68,24.7,98.83,24.79Z" transform="translate(-3 -1.87)"/><path class="cls-5" d="M117.3,24.79A1.36,1.36,0,0,0,116,26.14v3.15a1.36,1.36,0,0,0,1.35,1.35h4.32a1.23,1.23,0,1,1,0,2.44H117.3A1.35,1.35,0,0,0,116,34.42v4.89a1.36,1.36,0,0,0,1.35,1.35h6.93a1.29,1.29,0,1,1,0,2.58H114.4a1.35,1.35,0,0,1-1.34-1.34V23.55a1.34,1.34,0,0,1,1.34-1.34h10a1.29,1.29,0,1,1,0,2.58Z" transform="translate(-3 -1.87)"/><path class="cls-5" d="M128,42.28l.56-1.4a1.12,1.12,0,0,1,1.66-.56,8,8,0,0,0,.86.3,7.18,7.18,0,0,0,2.17.39A3.92,3.92,0,0,0,136,40.1a3,3,0,0,0,1-2.34,3.68,3.68,0,0,0-.57-2,7,7,0,0,0-2.88-2l-.49-.22c-.67-.31-1.74-.88-2.37-1.25a6.53,6.53,0,0,1-1.88-1.7,6.07,6.07,0,0,1-.86-3.31,5.09,5.09,0,0,1,1.68-3.91,6.13,6.13,0,0,1,4.31-1.55q3.52,0,4.9,1.14l-.42,1.22c-.24.7-.87,1-1.41.73l-.79-.26a7.1,7.1,0,0,0-2.2-.39,3.21,3.21,0,0,0-2.33.83,2.9,2.9,0,0,0-.85,2.14,3.52,3.52,0,0,0,.31,1.47,2.89,2.89,0,0,0,.85,1.1,12.55,12.55,0,0,0,2.22,1.25l.52.25c.67.31,1.74.88,2.37,1.26a6.85,6.85,0,0,1,1.9,1.74,6.76,6.76,0,0,1,.87,3.6A5.1,5.1,0,0,1,138,42a7.65,7.65,0,0,1-5.14,1.65A8.6,8.6,0,0,1,128,42.28Z" transform="translate(-3 -1.87)"/><path class="cls-5" d="M156.74,43.24a1.36,1.36,0,0,1-1.35-1.34V34.42a1.34,1.34,0,0,0-1.34-1.34h-6.59a1.34,1.34,0,0,0-1.34,1.34V41.9a1.35,1.35,0,0,1-1.34,1.34h-.21a1.36,1.36,0,0,1-1.35-1.34V23.55a1.35,1.35,0,0,1,1.35-1.34h.21a1.35,1.35,0,0,1,1.34,1.34v5.74a1.35,1.35,0,0,0,1.34,1.35h6.59a1.35,1.35,0,0,0,1.34-1.35V23.55a1.35,1.35,0,0,1,1.35-1.34H157a1.35,1.35,0,0,1,1.34,1.34V41.9A1.35,1.35,0,0,1,157,43.24Z" transform="translate(-3 -1.87)"/><path class="cls-5" d="M162.64,22.18a2.31,2.31,0,1,1,0,4.61,2.31,2.31,0,1,1,0-4.61Zm0,.41a1.89,1.89,0,1,0,1.83,1.89,1.84,1.84,0,0,0-1.83-1.89Zm-.4,3.15h-.45V23.33a4.86,4.86,0,0,1,.83-.07,1.07,1.07,0,0,1,.75.19.61.61,0,0,1,.25.52.63.63,0,0,1-.46.56v0c.2.08.31.27.39.59a1.66,1.66,0,0,0,.18.59h-.46a2,2,0,0,1-.2-.62c-.06-.28-.22-.39-.55-.39h-.28Zm0-1.36h.3c.31,0,.62-.1.62-.37s-.16-.4-.58-.4a1.3,1.3,0,0,0-.34,0Z" transform="translate(-3 -1.87)"/></svg>