<?xml version="1.0" encoding="UTF-8"?>
<svg width="40px" height="45px" viewBox="0 0 40 45" version="1.1" xmlns="http://www.w3.org/2000/svg" xmlns:xlink="http://www.w3.org/1999/xlink">
    <!-- Generator: Sketch 53.2 (72643) - https://sketchapp.com -->
    <title>Group 11 Copy 4</title>
    <desc>Created with Sketch.</desc>
    <g id="Design---Refinements" stroke="none" stroke-width="1" fill="none" fill-rule="evenodd">
        <g id="Testimonials-page" transform="translate(-148.000000, -587.000000)" fill="#184414" fill-rule="nonzero">
            <g id="Group-11-Copy-4" transform="translate(148.000000, 587.000000)">
                <path d="M38.9786667,27.8613281 C39.6133333,27.1608398 40,26.2362305 40,25.2246094 C40,23.044043 38.2053333,21.2695312 36,21.2695312 L28.2364444,21.2695312 C29.0053333,18.9624023 29.3333333,15.9011719 29.3333333,14.5889648 L29.3333333,13.2714844 C29.3333333,10.3640625 26.9404444,7.99804687 24,7.99804687 L22.6666667,7.99804687 C22.0551111,7.99804687 21.5217778,8.409375 21.3733333,8.99648437 L20.6471111,11.8696289 C19.6293333,15.8932617 16.3982222,20.3326172 13.0542222,21.1394531 C12.4684444,19.6734375 11.0222222,18.6328125 9.33333333,18.6328125 L1.33333333,18.6328125 C0.597333333,18.6328125 0,19.2234375 0,19.9511719 L0,43.6816406 C0,44.409375 0.597333333,45 1.33333333,45 L9.33333333,45 C10.9235556,45 12.2995556,44.0780273 12.944,42.7456055 L17.5253333,44.2555664 C19.0231111,44.7495117 20.584,45 22.1635556,45 L33.3333333,45 C35.5386667,45 37.3333333,43.2254883 37.3333333,41.0449219 C37.3333333,40.5307617 37.2337778,40.0385742 37.0524444,39.5876953 C38.7484444,39.1297852 40,37.5925781 40,35.7714844 C40,34.7598633 39.6133333,33.8352539 38.9786667,33.1347656 C39.6133333,32.4342773 40,31.509668 40,30.4980469 C40,29.4864258 39.6133333,28.5618164 38.9786667,27.8613281 Z M10.6666667,41.0449219 C10.6666667,41.7717773 10.0684444,42.3632812 9.33333333,42.3632812 L2.66666667,42.3632812 L2.66666667,21.2695312 L9.33333333,21.2695312 C10.0684444,21.2695312 10.6666667,21.8610352 10.6666667,22.5878906 L10.6666667,41.0449219 Z M33.3333333,29.1796875 L36,29.1796875 C36.7351111,29.1796875 37.3333333,29.7711914 37.3333333,30.4980469 C37.3333333,31.2249023 36.7351111,31.8164062 36,31.8164062 L33.3333333,31.8164062 C32.5973333,31.8164062 32,32.4070312 32,33.1347656 C32,33.8625 32.5973333,34.453125 33.3333333,34.453125 L36,34.453125 C36.7351111,34.453125 37.3333333,35.0446289 37.3333333,35.7714844 C37.3333333,36.4983398 36.7351111,37.0898437 36,37.0898437 L33.3333333,37.0898437 C32.5973333,37.0898437 32,37.6804687 32,38.4082031 C32,39.1359375 32.5973333,39.7265625 33.3333333,39.7265625 C34.0684444,39.7265625 34.6666667,40.3180664 34.6666667,41.0449219 C34.6666667,41.7717773 34.0684444,42.3632812 33.3333333,42.3632812 L22.1635556,42.3632812 C20.8711111,42.3632812 19.5937778,42.1584961 18.368,41.7541992 L13.3333333,40.0948242 L13.3333333,23.7814453 C15.4248889,23.3885742 17.472,22.0790039 19.32,19.9353516 C21.1244444,17.8417969 22.5875556,15.0662109 23.2337778,12.5094727 L23.7075556,10.6347656 L24,10.6347656 C25.4702222,10.6347656 26.6666667,11.8177734 26.6666667,13.2714844 L26.6666667,14.5889648 C26.6666667,16.359082 26.1066667,19.7542969 25.3902222,21.2695312 L22.6666667,21.2695312 C21.9306667,21.2695312 21.3333333,21.8601562 21.3333333,22.5878906 C21.3333333,23.315625 21.9306667,23.90625 22.6666667,23.90625 L36,23.90625 C36.7351111,23.90625 37.3333333,24.4977539 37.3333333,25.2246094 C37.3333333,25.9514648 36.7351111,26.5429687 36,26.5429687 L33.3333333,26.5429687 C32.5973333,26.5429687 32,27.1335937 32,27.8613281 C32,28.5890625 32.5973333,29.1796875 33.3333333,29.1796875 Z" id="Shape"></path>
                <ellipse id="Oval" cx="6.66666667" cy="38.4082031" rx="1.33333333" ry="1.31835938"></ellipse>
                <path d="M25.3333333,0 C24.5969778,0 24,0.590273438 24,1.31835938 L24,4.04296875 C24,4.77105469 24.5969778,5.36132812 25.3333333,5.36132812 C26.0696889,5.36132812 26.6666667,4.77105469 26.6666667,4.04296875 L26.6666667,1.31835938 C26.6666667,0.590273438 26.0696889,0 25.3333333,0 Z" id="Path"></path>
                <path d="M19.6764444,5.81378906 L17.7908444,3.94936523 C17.2702222,3.43450195 16.4259556,3.43450195 15.9052444,3.94936523 C15.3845333,4.46422852 15.3845333,5.29892578 15.9052444,5.81378906 L17.7908444,7.67821289 C18.3114667,8.19298828 19.1558222,8.19307617 19.6764444,7.67821289 C20.1971556,7.16334961 20.1971556,6.32865234 19.6764444,5.81378906 Z" id="Path"></path>
                <path d="M34.7614222,3.94936523 C34.2408,3.43450195 33.3965333,3.43450195 32.8758222,3.94936523 L30.9902222,5.81370117 C30.4695111,6.32856445 30.4695111,7.16326172 30.9902222,7.678125 C31.5108444,8.19298828 32.3551111,8.19307617 32.8758222,7.67821289 L34.7614222,5.81378906 C35.2821333,5.29892578 35.2821333,4.46422852 34.7614222,3.94936523 Z" id="Path"></path>
            </g>
        </g>
    </g>
</svg>