<svg xmlns="http://www.w3.org/2000/svg" width="24" height="24" viewBox="0 0 24 24">
    <g fill="#4FAE47" fill-rule="nonzero">
        <path d="M11.94 0C5.356 0 0 5.366 0 11.962s5.356 11.963 11.94 11.963 11.94-5.367 11.94-11.963C23.88 5.366 18.525 0 11.94 0zm0 21.108c-5.033 0-9.129-4.103-9.129-9.146 0-5.043 4.096-9.145 9.13-9.145 5.033 0 9.128 4.102 9.128 9.145 0 5.043-4.095 9.146-9.129 9.146z"/>
        <path d="M15.372 8.249l-5.546 5.556-1.505-1.508a1.404 1.404 0 0 0-1.988 0 1.41 1.41 0 0 0 0 1.991l2.5 2.504a1.4 1.4 0 0 0 .993.413c.36 0 .72-.138.994-.413l6.54-6.552a1.41 1.41 0 0 0 0-1.991 1.403 1.403 0 0 0-1.988 0z"/>
    </g>
</svg>
