<?xml version="1.0" encoding="UTF-8"?>
<svg width="80px" height="79px" viewBox="0 0 80 79" version="1.1" xmlns="http://www.w3.org/2000/svg" xmlns:xlink="http://www.w3.org/1999/xlink">
    <!-- Generator: Sketch 53.2 (72643) - https://sketchapp.com -->
    <title>tools copy 4</title>
    <desc>Created with Sketch.</desc>
    <g id="Design---Refinements" stroke="none" stroke-width="1" fill="none" fill-rule="evenodd">
        <g id="Home-Page" transform="translate(-836.000000, -1076.000000)" fill="#184414" fill-rule="nonzero">
            <g id="tools-copy-4" transform="translate(836.000000, 1076.000000)">
                <path d="M79.7449881,60.624174 C79.0740143,58.381 77.8675534,56.3424902 76.2333492,54.6914289 C73.6305938,52.024598 70.0887411,50.5297941 66.3977197,50.5400564 C64.5113539,50.5410245 62.6445606,50.9309902 60.9098337,51.6863309 L47.2281235,37.7451544 L65.3943943,19.3737819 L69.6965321,19.2498603 C70.2170071,19.2337892 70.6930166,18.9472206 70.9582898,18.4908407 L77.1150594,7.94201716 C77.4728741,7.33325245 77.3788124,6.55448284 76.8870309,6.05221324 L71.5663658,0.630644608 C71.0734442,0.129536765 70.3091686,0.0336911765 69.711734,0.398291667 L59.3592399,6.67182108 C58.9113539,6.942125 58.6301188,7.42716176 58.6143468,7.95750735 L58.4927316,12.3257426 L40.3720665,30.759076 L27.9369121,18.0880956 C29.2425653,10.3741716 24.1639905,3.04227451 16.5936342,1.71186029 C13.0859857,1.09535049 9.47971496,1.87257108 6.51743468,3.88358578 C5.82194774,4.36281373 5.63933492,5.32572304 6.10964371,6.03439951 C6.24190024,6.23364216 6.41786223,6.39880637 6.62384798,6.51691912 L13.5255107,10.4359387 C15.0457007,11.3188799 15.3497387,13.9522132 14.1183848,16.1828015 C12.8870309,18.4133897 10.5307363,19.5596642 8.99534442,18.6922132 L2.59534442,15.1604485 C1.85976247,14.7480221 0.935296912,15.021424 0.530736342,15.7709559 C0.391258907,16.0290613 0.327030879,16.3224069 0.345653207,16.616527 C0.826603325,24.4290074 7.432019,30.3648505 15.0990974,29.8747794 C16.6831354,29.7735123 18.2384798,29.3967132 19.6976722,28.7608407 L31.007886,40.2855466 L26.1128741,45.2733897 L25.0031354,44.1580956 C23.7746318,42.9601225 21.8382898,42.9601225 20.6097862,44.1580956 L19.0895962,45.7071152 C17.9314014,46.8561005 17.8580523,48.7275098 18.9223753,49.9669191 L0.938527316,68.2608407 C-0.274584323,69.4437108 -0.31695962,71.4049632 0.843895487,72.6410809 C0.874679335,72.6739975 0.906223278,72.7061397 0.938527316,72.7375074 L6.0767696,77.9731936 C7.2376247,79.2093113 9.1623753,79.2524902 10.3754869,78.0696201 C10.407791,78.0382525 10.4393349,78.0061103 10.4701188,77.9731936 L28.4691686,59.6482917 C29.6855107,60.732799 31.5220903,60.6580588 32.6496912,59.4778995 L34.1698812,57.9288799 C35.3829929,56.7460098 35.4253682,54.7847574 34.2645131,53.5486397 C34.2337292,53.515723 34.2021853,53.4835809 34.1698812,53.4522132 L33.0601425,52.3214289 L37.9247506,47.2561348 L52.6705938,62.281625 C51.3966746,70.0011642 56.5052732,77.3111814 64.0811401,78.6092598 C68.568361,79.3781544 73.1409026,77.8620515 76.3247506,74.5498603 C76.8830404,73.9108897 76.8275534,72.9319093 76.2004751,72.3628382 C76.0385748,72.215875 75.847601,72.1058946 75.6406651,72.0404485 L67.0819952,69.7014289 C66.2432304,69.4266716 65.5792874,68.7673701 65.288171,67.9200564 C64.8435154,66.751902 64.7901188,65.4667966 65.136152,64.2643701 C65.7746318,61.8324093 67.7964846,60.0975074 69.4990974,60.5622132 L77.9665558,62.8857426 C78.1026128,62.9058799 78.2409501,62.9058799 78.3770071,62.8857426 C79.2165321,62.8961985 79.9053682,62.2111446 79.9154394,61.3556985 C79.9182898,61.1012721 79.8599525,60.8499436 79.7449881,60.624174 Z M61.0314489,14.0451544 C61.3050831,13.7643946 61.4628029,13.387402 61.472304,12.9918211 L61.5939192,8.85593873 L70.2133967,3.63574265 L73.8618527,7.35338971 L68.8452257,16.1208407 L64.7103088,16.2757426 C64.3220903,16.285424 63.952114,16.4461348 63.6765796,16.7249583 L45.1302613,35.6075074 L42.5155344,32.9431936 L61.0314489,14.0451544 Z M8.31125891,75.7735858 L3.09700713,70.4914289 L21.1720665,52.1200564 L23.7867933,54.7843701 L26.279905,57.4177034 L8.31125891,75.7735858 Z M30.551639,57.1853505 L28.5449881,55.1251544 L27.7696912,54.3351544 L21.3848931,47.7828015 L22.9050831,46.2337819 L32.0262233,55.6518211 L30.551639,57.1853505 Z M30.8404751,50.1218211 L28.2257482,47.4575074 L33.1207601,42.4696642 L35.7354869,45.1339779 L30.8404751,50.1218211 Z M70.2438005,57.5726054 C69.7926841,57.4490711 69.3275059,57.3865294 68.8604276,57.386723 C65.5462233,57.6593505 62.8106413,60.1370074 62.1563895,63.4588799 C61.6376247,65.3242868 61.7390974,67.3122598 62.4452257,69.1128015 C63.0968171,70.8455735 64.5100238,72.1651446 66.2609026,72.6755466 L71.9160095,74.2245662 C66.7591449,77.3557157 60.087601,75.6343676 57.0147268,70.3798995 C55.5714964,67.9121176 55.1258907,64.9695613 55.7715914,62.1731936 C55.8873159,61.6531103 55.7322565,61.1088235 55.3611401,60.7326054 L21.096057,25.786723 C20.6095962,25.321049 19.8819952,25.2331422 19.3022328,25.5698603 C17.7324466,26.4138824 15.9844181,26.8553529 14.2095962,26.8555466 C9.63591449,26.8596127 5.55059382,23.9418407 3.99391924,19.5596642 L7.45995249,21.5269191 C8.26793349,21.9879461 9.17909739,22.2280441 10.1050831,22.2239779 C12.919715,22.0588137 15.4371496,20.3841299 16.7179097,17.8247623 C18.7853682,14.0606446 17.9796675,9.58397794 14.9392874,7.84907598 L10.5155344,5.29319363 C16.1687411,3.23551471 22.3884086,6.23732108 24.407791,11.9975441 C25.1085986,13.9969412 25.2307838,16.1593725 24.759715,18.2275074 C24.6439905,18.7475907 24.7990499,19.2918775 25.1701663,19.6680956 L59.5112589,54.6449583 C59.9806176,55.123799 60.7008076,55.2368775 61.2898812,54.9237819 C62.8598575,54.0803407 64.607696,53.6390637 66.3825178,53.6380956 C70.232019,53.6349975 73.7951544,55.7097157 75.7468884,59.0906446 L70.2438005,57.5726054 Z" id="Shape"></path>
            </g>
        </g>
    </g>
</svg>