<?xml version="1.0" encoding="UTF-8"?>
<svg width="70px" height="69px" viewBox="0 0 70 69" version="1.1" xmlns="http://www.w3.org/2000/svg" xmlns:xlink="http://www.w3.org/1999/xlink">
    <!-- Generator: Sketch 53.2 (72643) - https://sketchapp.com -->
    <title>tools copy 3</title>
    <desc>Created with Sketch.</desc>
    <g id="Design---Refinements" stroke="none" stroke-width="1" fill="none" fill-rule="evenodd">
        <g id="Oncore-FW---Desktop-in-CW" transform="translate(-572.000000, -1145.000000)" fill="#184414" fill-rule="nonzero">
            <g id="tools-copy-3" transform="translate(572.000000, 1145.000000)">
                <path d="M69.7768646,52.9502279 C69.1897625,50.991 68.1341093,49.2105294 66.7041805,47.7684632 C64.4267696,45.4392059 61.3276485,44.1336176 58.0980048,44.1425809 C56.4474347,44.1434265 54.8139905,44.4840294 53.2961045,45.1437574 L41.3246081,32.9672868 L57.220095,16.9214044 L60.9844656,16.8131691 C61.4398812,16.7991324 61.8563895,16.5488382 62.0885036,16.1502279 L67.475677,6.93669853 C67.7887648,6.40499265 67.7064608,5.72480147 67.276152,5.28611029 L62.6205701,0.550816176 C62.1892637,0.113139706 61.5205226,0.0294264706 60.9977672,0.347875 L51.9393349,5.82728676 C51.5474347,6.063375 51.3013539,6.48701471 51.2875534,6.95022794 L51.1811401,10.7655221 L35.3255582,26.8655221 L24.4447981,15.7984632 C25.5872447,9.06098529 21.1434917,2.65717647 14.5194299,1.49516912 C11.4502375,0.956698529 8.29475059,1.63553676 5.70275534,3.39199265 C5.09420428,3.81055882 4.93441805,4.65158088 5.34593824,5.27055147 C5.46166271,5.44457353 5.61562945,5.58883088 5.79586698,5.69199265 L11.8348219,9.11493382 C13.1649881,9.88611029 13.4310214,12.1861103 12.3535867,14.1343456 C11.276152,16.0825809 9.2143943,17.0837574 7.87092637,16.3261103 L2.27092637,13.2414044 C1.62729216,12.8811838 0.818384798,13.1199779 0.464394299,13.7746324 C0.342351544,14.0000662 0.286152019,14.2562794 0.302446556,14.5131691 C0.72327791,21.3367279 6.50301663,26.5211985 13.2117102,26.0931618 C14.5977435,26.0047132 15.9586698,25.6756103 17.2354632,25.1202279 L27.1319002,35.1861103 L22.8487648,39.5425809 L21.8777435,38.5684632 C20.8028029,37.5221324 19.1085036,37.5221324 18.0335629,38.5684632 L16.7033967,39.9214044 C15.6899762,40.9249485 15.6257957,42.5594706 16.5570784,43.6419926 L0.821211401,59.6202279 C-0.240261283,60.6533676 -0.277339667,62.3663603 0.738408551,63.4460074 C0.765344418,63.4747574 0.792945368,63.5028309 0.821211401,63.5302279 L5.3171734,68.1031691 C6.33292162,69.1828162 8.01707838,69.2205294 9.07855107,68.1873897 C9.1068171,68.1599926 9.13441805,68.1319191 9.16135392,68.1031691 L24.9105226,52.097875 C25.9748219,53.0451029 27.581829,52.9798235 28.5684798,51.9490515 L29.8986461,50.5961103 C30.9601188,49.5629706 30.9971971,47.8499779 29.9814489,46.7703309 C29.9545131,46.7415809 29.9269121,46.7135074 29.8986461,46.6861103 L28.9276247,45.6984632 L33.1841568,41.2743456 L46.0867696,54.397875 C44.9720903,61.1402574 49.442114,67.5249559 56.0709976,68.6587206 C59.9973159,69.3302868 63.9982898,68.0060956 66.7841568,65.1131691 C67.2726603,64.5550809 67.2241093,63.7000221 66.6754157,63.2029853 C66.533753,63.074625 66.3666508,62.9785662 66.1855819,62.9214044 L58.6967458,60.8784632 C57.9628266,60.6384853 57.3818765,60.0626397 57.1271496,59.3225809 C56.738076,58.3022941 56.6913539,57.1798603 56.994133,56.1296397 C57.5528029,54.0055221 59.321924,52.4902279 60.8117102,52.8961103 L68.2207363,54.9255221 C68.3397862,54.9431103 68.4608314,54.9431103 68.5798812,54.9255221 C69.3144656,54.9346544 69.9171971,54.3363162 69.9260095,53.5891544 C69.9285036,53.3669338 69.8774584,53.1474191 69.7768646,52.9502279 Z M53.4025178,12.2672868 C53.6419477,12.0220662 53.7799525,11.6927941 53.788266,11.3472868 L53.8946793,7.73493382 L61.4367221,3.17552206 L64.6291211,6.42258088 L60.2395724,14.0802279 L56.6215202,14.2155221 C56.281829,14.2239779 55.9580998,14.3643456 55.7170071,14.607875 L39.4889786,31.1002279 L37.2010926,28.7731691 L53.4025178,12.2672868 Z M7.27235154,66.1819926 L2.70988124,61.5684632 L18.5255582,45.5225809 L20.8134442,47.8496397 L22.9949169,50.1496397 L7.27235154,66.1819926 Z M26.7326841,49.9466985 L24.9768646,48.1472868 L24.2984798,47.4572868 L18.7117815,41.7343456 L20.0419477,40.3814044 L28.0229454,48.6072868 L26.7326841,49.9466985 Z M26.9854157,43.7772868 L24.6975297,41.4502279 L28.9806651,37.0937574 L31.2685511,39.4208162 L26.9854157,43.7772868 Z M61.4633254,50.2849338 C61.0685986,50.1770368 60.6615677,50.1224118 60.2528741,50.1225809 C57.3529454,50.3606985 54.9593112,52.5247279 54.3868409,55.4261103 C53.9329216,57.0553897 54.0217102,58.7917206 54.6395724,60.3643456 C55.209715,61.8777794 56.4462708,63.0303162 57.9782898,63.4761103 L62.9265083,64.8290515 C58.4142518,67.5638529 52.5766508,66.0603971 49.887886,61.4710515 C48.6250594,59.3156471 48.2351544,56.7455662 48.8001425,54.3031691 C48.9014014,53.8489191 48.7657245,53.3735294 48.4409976,53.0449338 L18.4590499,22.5225809 C18.0333967,22.1158529 17.3967458,22.0390735 16.8894537,22.3331691 C15.5158907,23.0703529 13.9863658,23.4559412 12.4333967,23.4561103 C8.43142518,23.4596618 4.8567696,20.9112279 3.49467933,17.0837574 L6.52745843,18.8019926 C7.23444181,19.2046618 8.03171021,19.4143676 8.84194774,19.4108162 C11.3047506,19.2665588 13.5075059,17.8038603 14.628171,15.5684632 C16.4371971,12.2808162 15.732209,8.37081618 13.0718765,6.85552206 L9.20109264,4.62316912 C14.1476485,2.82595588 19.5898575,5.44778676 21.3568171,10.4788676 C21.9700238,12.2251765 22.0769359,14.1138824 21.6647506,15.9202279 C21.5634917,16.3744779 21.6991686,16.8498676 22.0238955,17.1784632 L52.0723515,47.727875 C52.4830404,48.1461029 53.1132067,48.2448676 53.6286461,47.9714044 C55.0023753,47.2347279 56.531734,46.8493088 58.0847031,46.8484632 C61.4530166,46.8457574 64.5707601,48.6578529 66.2785273,51.6108162 L61.4633254,50.2849338 Z" id="Shape"></path>
            </g>
        </g>
    </g>
</svg>