<?xml version="1.0" encoding="UTF-8"?>
<svg width="24px" height="19px" viewBox="0 0 24 19" version="1.1" xmlns="http://www.w3.org/2000/svg" xmlns:xlink="http://www.w3.org/1999/xlink">
    <!-- Generator: Sketch 53.2 (72643) - https://sketchapp.com -->
    <title>Twitter_Logo_Blue</title>
    <desc>Created with Sketch.</desc>
    <g id="Design---Refinements" stroke="none" stroke-width="1" fill="none" fill-rule="evenodd" opacity="0.758068266">
        <g id="Project-Page-" transform="translate(-746.000000, -2269.000000)">
            <g id="Group" transform="translate(664.000000, 2260.000000)">
                <g id="Twitter_Logo_Blue" transform="translate(75.000000, 0.000000)">
                    <rect id="Rectangle" x="0" y="0" width="37" height="37"></rect>
                    <path d="M14.2590521,27.9468085 C22.9855021,27.9468085 27.7585021,20.715165 27.7585021,14.4439163 C27.7585021,14.2385139 27.7585021,14.0340368 27.7446271,13.8304849 C28.6731711,13.1586812 29.4747059,12.326865 30.1117021,11.3739836 C29.2457903,11.7577731 28.3272192,12.0094621 27.3866521,12.120649 C28.3770903,11.5275562 29.1183664,10.5947241 29.4725271,9.49575483 C28.5411978,10.0485419 27.5222998,10.4381187 26.4598021,10.6476735 C24.9891287,9.08346444 22.6522425,8.70061877 20.7595352,9.71381436 C18.8668279,10.7270099 17.8890065,12.88427 18.3743771,14.9759269 C14.5595807,14.7846339 11.0053422,12.9823427 8.59620213,10.0175879 C7.33692818,12.186012 7.98014092,14.9600679 10.0651021,16.3526779 C9.31006274,16.3302941 8.57148555,16.1265624 7.91170213,15.7586764 C7.91170213,15.7781064 7.91170213,15.7984616 7.91170213,15.8188168 C7.91232015,18.0778661 9.50432225,20.0235837 11.7180771,20.4709027 C11.0195815,20.6614458 10.2867142,20.6892993 9.57577713,20.5523235 C10.197329,22.4855324 11.9785336,23.809879 14.0083771,23.8480136 C12.328332,25.1687248 10.2529322,25.8856862 8.11612713,25.8835325 C7.73863793,25.8828076 7.36151589,25.8599459 6.98670213,25.8150651 C9.15641538,27.2078009 11.680997,27.9465466 14.2590521,27.9431076" id="Path" fill="#333333" fill-rule="nonzero"></path>
                </g>
            </g>
        </g>
    </g>
</svg>