<?xml version="1.0" encoding="UTF-8"?>
<svg width="70px" height="68px" viewBox="0 0 70 68" version="1.1" xmlns="http://www.w3.org/2000/svg" xmlns:xlink="http://www.w3.org/1999/xlink">
    <!-- Generator: Sketch 53.2 (72643) - https://sketchapp.com -->
    <title>Group 19 Copy 3</title>
    <desc>Created with Sketch.</desc>
    <g id="Design---Refinements" stroke="none" stroke-width="1" fill="none" fill-rule="evenodd">
        <g id="Oncore-FW---Desktop-in-CW" transform="translate(-157.000000, -1146.000000)" fill="#184414" fill-rule="nonzero">
            <g id="Group-19-Copy-3" transform="translate(158.000000, 1146.000000)">
                <path d="M67.8257069,33.3967441 C60.7427727,22.1089728 48.4654696,15.1214599 35.1334543,14.79017 L32.8667794,14.79017 C19.5347641,15.1214599 7.25746104,22.1089728 0.174526886,33.3967441 C-0.0579489619,33.7655358 -0.0579489619,34.2348042 0.174526886,34.6035959 C7.25746104,45.8913672 19.5347641,52.8788801 32.8667794,53.21017 L35.1334543,53.21017 C48.4654696,52.8788801 60.7427727,45.8913672 67.8257069,34.6035959 C68.0583244,34.2348042 68.0583244,33.7655358 67.8257069,33.3967441 Z M2.55017,33.91517 C7.18251584,26.8444561 14.0715364,21.5429426 22.10017,18.87017 C17.8207,22.2720865 15.1934205,27.330788 14.874726,32.7825192 L14.874726,35.0478208 C15.1934205,40.499552 17.8207,45.5582535 22.10017,48.96017 C14.0715364,46.2873974 7.18251584,40.9858839 2.55017,33.91517 Z M32.7836562,50.83017 C24.3163969,50.2550781 17.5752619,43.5139431 17.00017,35.0466838 L17.00017,32.7836562 C17.5752619,24.3163969 24.3163969,17.5752619 32.7836562,17.00017 L35.0466838,17.00017 C43.5139431,17.5752619 50.2550781,24.3162554 50.83017,32.7836562 L50.83017,35.0466838 C50.2550781,43.5139431 43.5139431,50.2550781 35.0466838,50.83017 L32.7836562,50.83017 Z M45.90017,48.96017 C50.17964,45.5582535 52.8069195,40.499552 53.125614,35.0478208 L53.125614,32.7825192 C52.8069195,27.330788 50.17964,22.271945 45.90017,18.87017 C53.9289454,21.5430842 60.8178242,26.8444561 65.45017,33.91517 C60.8178242,40.9858839 53.9288036,46.2873974 45.90017,48.96017 Z" id="Shape" stroke="#184414" stroke-width="0.5"></path>
                <path d="M34.00017,26.01017 C29.5874071,26.01017 26.01017,29.5874071 26.01017,34.00017 C26.0151638,38.4107927 29.5895473,41.9851763 34.00017,41.99017 C38.4129329,41.99017 41.99017,38.4129329 41.99017,34.00017 C41.99017,29.5874071 38.4129329,26.01017 34.00017,26.01017 Z M33.91517,39.61017 C30.7699639,39.61017 28.22017,37.0603761 28.22017,33.91517 C28.2238718,30.77153 30.77153,28.2238718 33.91517,28.22017 C37.0603761,28.22017 39.61017,30.7699639 39.61017,33.91517 C39.61017,37.0603761 37.0605185,39.61017 33.91517,39.61017 Z" id="Shape" stroke="#184414" stroke-width="0.5"></path>
                <path d="M1.36,1.20792265e-15 C0.60894,1.20792265e-15 0,0.60894 0,1.36 L0,12.24 L2.72,12.24 L2.72,2.72 L12.24,2.72 L12.24,0 L1.36,1.20792265e-15 Z" id="Path"></path>
                <path d="M66.64,0 L55.76,0 L55.76,2.72 L65.28,2.72 L65.28,12.24 L68,12.24 L68,1.36 C68,0.60894 67.39106,0 66.64,0 Z" id="Path"></path>
                <path d="M65.28,55.76 L65.28,65.28 L55.76,65.28 L55.76,68 L66.64,68 C67.39106,68 68,67.39106 68,66.64 L68,55.76 L65.28,55.76 Z" id="Path"></path>
                <path d="M2.72,65.28 L2.72,55.76 L0,55.76 L0,66.64 C0,67.39106 0.60894,68 1.36,68 L12.24,68 L12.24,65.28 L2.72,65.28 Z" id="Path"></path>
            </g>
        </g>
    </g>
</svg>