<?xml version="1.0" encoding="UTF-8"?>
<svg width="114px" height="90px" viewBox="0 0 114 90" version="1.1" xmlns="http://www.w3.org/2000/svg" xmlns:xlink="http://www.w3.org/1999/xlink">
    <!-- Generator: Sketch 53.2 (72643) - https://sketchapp.com -->
    <title>“</title>
    <desc>Created with Sketch.</desc>
    <g id="Design---Refinements" stroke="none" stroke-width="1" fill="none" fill-rule="evenodd">
        <g id="How-we-work-with-you" transform="translate(-166.000000, -1963.000000)" fill="#E6E6E6" fill-rule="nonzero">
            <path d="M173.046053,2053 C168.348661,2039.6666 166,2026.44451 166,2013.33333 C166,1998.22215 170.026276,1986.0556 178.078947,1976.83333 C186.131619,1967.61106 197.874923,1963 213.309211,1963 L213.309211,1984 C201.453888,1984 195.526316,1991.55548 195.526316,2006.66667 L195.526316,2011.66667 L217,2011.66667 L217,2053 L173.046053,2053 Z M236.622517,2053 C232.207483,2039.44438 230,2026.22229 230,2013.33333 C230,1998.22215 233.918283,1986.0556 241.754967,1976.83333 C249.591651,1967.61106 261.125752,1963 276.357616,1963 L276.357616,1984 C264.87853,1984 259.139073,1991.55548 259.139073,2006.66667 L259.139073,2011.66667 L280,2011.66667 L280,2053 L236.622517,2053 Z" id="“"></path>
        </g>
    </g>
</svg>