<?xml version="1.0" encoding="UTF-8"?>
<svg width="114px" height="90px" viewBox="0 0 114 90" version="1.1" xmlns="http://www.w3.org/2000/svg" xmlns:xlink="http://www.w3.org/1999/xlink">
    <!-- Generator: Sketch 53.2 (72643) - https://sketchapp.com -->
    <title>“</title>
    <desc>Created with Sketch.</desc>
    <g id="Design---Refinements" stroke="none" stroke-width="1" fill="none" fill-rule="evenodd" fill-opacity="0.1">
        <g id="Home-Page" transform="translate(-167.000000, -2203.000000)" fill="#184414" fill-rule="nonzero">
            <path d="M174.046053,2293 C169.348661,2279.6666 167,2266.44451 167,2253.33333 C167,2238.22215 171.026276,2226.0556 179.078947,2216.83333 C187.131619,2207.61106 198.874923,2203 214.309211,2203 L214.309211,2224 C202.453888,2224 196.526316,2231.55548 196.526316,2246.66667 L196.526316,2251.66667 L218,2251.66667 L218,2293 L174.046053,2293 Z M237.622517,2293 C233.207483,2279.44438 231,2266.22229 231,2253.33333 C231,2238.22215 234.918283,2226.0556 242.754967,2216.83333 C250.591651,2207.61106 262.125752,2203 277.357616,2203 L277.357616,2224 C265.87853,2224 260.139073,2231.55548 260.139073,2246.66667 L260.139073,2251.66667 L281,2251.66667 L281,2293 L237.622517,2293 Z" id="“"></path>
        </g>
    </g>
</svg>