<svg xmlns="http://www.w3.org/2000/svg" width="100" height="63" viewBox="0 0 100 63">
    <g fill="#F28E00" fill-rule="nonzero">
        <path d="M78.958 42.854c-1.962-4.092-8.983-9.771-15.766-15.259-3.784-3.058-7.359-5.95-9.638-8.229a2.083 2.083 0 0 0-2.179-.487c-1.404.508-2.27.9-2.954 1.204-1.042.466-1.392.625-2.796.766-.62.063-1.179.396-1.525.913-2.946 4.404-5.996 4.029-8.033 3.346-.65-.217-.767-.496-.83-.763-.437-1.829 1.76-6.087 4.605-8.933 6.77-6.775 10.262-8.471 17.637-5.175 8.367 3.741 16.75 6.67 16.834 6.7a2.08 2.08 0 0 0 2.654-1.284A2.088 2.088 0 0 0 75.683 13c-.083-.029-8.3-2.9-16.5-6.57-9.554-4.272-14.795-1.46-22.283 6.033-2.85 2.85-6.72 8.616-5.72 12.846.428 1.8 1.695 3.133 3.578 3.754 4.721 1.558 9.03.066 12.238-4.192 1.325-.204 2.046-.504 3.129-.991.391-.175.85-.38 1.458-.625 2.384 2.237 5.6 4.841 8.988 7.579 6.125 4.954 13.07 10.57 14.633 13.82.771 1.605-.058 2.65-.62 3.13-.826.708-1.955.933-2.567.504a2.082 2.082 0 1 0-3.254 1.938c.141 1.324-1.071 2.083-1.596 2.345-1.334.675-2.725.559-3.246.075a2.102 2.102 0 0 0-2.163-.425 2.082 2.082 0 0 0-1.333 1.754c-.125 1.367-1.138 2.68-2.459 3.192-.637.241-1.562.387-2.391-.371a2.108 2.108 0 0 0-1.904-.483 2.08 2.08 0 0 0-1.463 1.312c-.079.208-.258.708-2.208.708-1.388 0-3.884-.937-5.104-1.745-1.463-.963-10.634-7.805-18.554-14.438-1.113-.937-3.038-2.946-4.738-4.72-1.508-1.576-2.887-3.005-3.596-3.605a2.073 2.073 0 0 0-2.937.246 2.086 2.086 0 0 0 .246 2.937c.646.546 1.895 1.867 3.275 3.305 1.858 1.941 3.779 3.95 5.07 5.033 7.759 6.496 17.084 13.508 18.942 14.729 1.534 1.008 4.838 2.425 7.396 2.425 2.054 0 3.633-.47 4.73-1.392 1.466.571 3.133.575 4.737-.05 1.895-.733 3.454-2.212 4.337-4.004 1.642.35 3.521.104 5.23-.754 1.67-.841 2.878-2.129 3.478-3.633 1.659.087 3.367-.5 4.78-1.713 2.391-2.045 3.05-5.229 1.666-8.1z"/>
        <path d="M41.667 8.333h-18.75a2.084 2.084 0 0 0 0 4.166h18.75a2.084 2.084 0 0 0 0-4.166zM85.063 38.42a2.078 2.078 0 0 0-2.892-.566l-6.092 4.091a2.085 2.085 0 0 0 2.325 3.459l6.092-4.092a2.085 2.085 0 0 0 .567-2.892zM72.13 48.362c-1.492-1.175-8.163-8.004-12.288-12.304a2.078 2.078 0 0 0-2.946-.063 2.081 2.081 0 0 0-.063 2.946c1.071 1.117 10.517 10.963 12.713 12.696.379.3.837.446 1.287.446.613 0 1.225-.275 1.642-.796.713-.9.558-2.213-.346-2.925zM63.804 52.541c-2.496-1.996-8.767-8.658-10.183-10.2a2.087 2.087 0 0 0-2.946-.125c-.846.78-.904 2.1-.125 2.946.075.079 7.558 8.158 10.65 10.633a2.094 2.094 0 0 0 2.929-.325c.717-.9.571-2.212-.325-2.929zM55.513 56.737c-2.971-2.504-9.05-8.975-10.238-10.246a2.083 2.083 0 0 0-2.946-.1 2.086 2.086 0 0 0-.1 2.946c1.709 1.829 7.525 7.996 10.596 10.587.392.33.867.492 1.342.492a2.086 2.086 0 0 0 1.346-3.68z"/>
        <path d="M24.35 4.737C20.78 1.354 6.5.257 2.208.004A2.083 2.083 0 0 0 0 2.084v37.499c0 1.15.933 2.083 2.083 2.083h12.5c.9 0 1.7-.58 1.98-1.437.304-.934 7.483-22.967 8.429-33.8a2.073 2.073 0 0 0-.642-1.692zM13.062 37.499H4.168V4.316c6.696.53 13.92 1.68 16.545 2.954-1.104 9.125-6.1 25.338-7.65 30.23zM97.917 4.166c-16.359 0-25.434 4.188-25.813 4.363a2.073 2.073 0 0 0-1.112 1.295 2.1 2.1 0 0 0 .229 1.692c2.575 4.146 10.637 27.17 12.187 32.788.25.904 1.071 1.529 2.009 1.529h12.5c1.15 0 2.083-.934 2.083-2.084V6.25a2.081 2.081 0 0 0-2.083-2.083zm-2.084 37.5h-8.858C85 35.233 79.167 18.458 75.912 11.524c3.18-1.079 10.009-2.933 19.921-3.166v33.308z"/>
    </g>
</svg>
