<svg xmlns="http://www.w3.org/2000/svg" width="101" height="100" viewBox="0 0 101 100">
    <g fill="#E73039" fill-rule="nonzero">
        <path d="M67.447 64.173c-2.393 0-4.34-1.685-4.34-3.755 0-2.071 1.947-3.756 4.34-3.756 2.392 0 4.339 1.685 4.339 3.756a1.973 1.973 0 0 0 3.945 0c0-3.615-2.694-6.654-6.312-7.479v-1.026a1.973 1.973 0 0 0-3.945 0v1.026c-3.618.825-6.311 3.864-6.311 7.479 0 4.246 3.716 7.7 8.284 7.7 2.392 0 4.339 1.685 4.339 3.756 0 2.07-1.947 3.756-4.34 3.756-2.392 0-4.339-1.685-4.339-3.756a1.973 1.973 0 0 0-3.944 0c0 3.614 2.693 6.653 6.311 7.478v.852a1.973 1.973 0 0 0 3.945 0v-.852c3.618-.825 6.312-3.864 6.312-7.478 0-4.246-3.717-7.7-8.284-7.7zM89.05 52.441a25.7 25.7 0 0 0-10.498-9.29 1.972 1.972 0 1 0-1.709 3.555c7.478 3.595 12.309 11.275 12.309 19.566 0 3.548-.875 7.067-2.529 10.176a1.972 1.972 0 1 0 3.483 1.853 25.692 25.692 0 0 0 2.99-12.029c0-4.923-1.399-9.706-4.046-13.831zM70.547 40.632h-.133a1.972 1.972 0 0 0 0 3.944h.124a1.972 1.972 0 0 0 .009-3.944zM58.068 85.839C50.591 82.244 45.76 74.564 45.76 66.272c0-3.548.874-7.066 2.529-10.175a1.972 1.972 0 1 0-3.483-1.853 25.693 25.693 0 0 0-2.991 12.028c0 4.923 1.4 9.706 4.047 13.832a25.701 25.701 0 0 0 10.497 9.29 1.973 1.973 0 0 0 1.71-3.555zM64.497 87.969h-.114a1.973 1.973 0 0 0-.018 3.945h.132a1.973 1.973 0 0 0 0-3.945z"/>
        <path d="M76.412 33.958a9.053 9.053 0 0 0-.876-1.61h5.135c5.002 0 9.073-4.071 9.073-9.074s-4.07-9.073-9.073-9.073H64.876a9.02 9.02 0 0 0 1.593-5.128C66.47 4.07 62.4 0 57.396 0H9.073C4.07 0 0 4.07 0 9.073s4.07 9.073 9.073 9.073h15.795a9.02 9.02 0 0 0-1.594 5.128c0 1.902.59 3.668 1.594 5.128h-5.144c-5.003 0-9.073 4.07-9.073 9.073a9.058 9.058 0 0 0 3.435 7.1 9.058 9.058 0 0 0-3.435 7.102 9.058 9.058 0 0 0 3.435 7.1 9.058 9.058 0 0 0-3.435 7.1 9.058 9.058 0 0 0 3.435 7.101 9.058 9.058 0 0 0-3.435 7.1c0 5.004 4.07 9.074 9.073 9.074h23.244c6.124 6.55 14.835 10.651 24.488 10.651 18.489 0 33.53-15.042 33.53-33.53 0-15.389-10.42-28.387-24.574-32.315zm4.259-15.812c2.827 0 5.128 2.3 5.128 5.128 0 2.828-2.3 5.128-5.128 5.128H32.347a5.134 5.134 0 0 1-5.128-5.128c0-2.827 2.3-5.128 5.128-5.128h48.324zM9.073 14.201a5.134 5.134 0 0 1-5.128-5.128c0-2.828 2.3-5.128 5.128-5.128h48.323c2.828 0 5.129 2.3 5.129 5.128 0 2.828-2.3 5.128-5.129 5.128H9.073zm10.65 18.146h48.324c.795 0 1.556.185 2.238.515a33.81 33.81 0 0 0-2.83-.12c-9.259 0-17.653 3.773-23.727 9.862H19.724a5.134 5.134 0 0 1-5.128-5.129c0-2.827 2.3-5.128 5.128-5.128zm0 14.201h20.635a33.435 33.435 0 0 0-5.07 10.257H19.724a5.134 5.134 0 0 1-5.128-5.128c0-2.828 2.3-5.129 5.128-5.129zm0 14.202h14.66a33.61 33.61 0 0 0-.122 10.256H19.724a5.134 5.134 0 0 1-5.128-5.128c0-2.828 2.3-5.128 5.128-5.128zm0 24.457a5.134 5.134 0 0 1-5.127-5.128c0-2.828 2.3-5.128 5.128-5.128h15.342A33.398 33.398 0 0 0 39.8 85.207H19.724zm47.733 10.651c-16.314 0-29.586-13.272-29.586-29.586 0-16.313 13.272-29.585 29.586-29.585 16.313 0 29.586 13.272 29.586 29.585 0 16.314-13.273 29.586-29.586 29.586z"/>
    </g>
</svg>
