<svg xmlns="http://www.w3.org/2000/svg" width="100" height="100" viewBox="0 0 100 100">
    <g fill="#4DAF47" fill-rule="nonzero">
        <path d="M35.492 71.643a1.953 1.953 0 0 0-.431-.07 12.482 12.482 0 0 0 3.457-8.628V52.669c0-.094-.009-.185-.022-.275.013-.186.022-.373.022-.561V45.33a1.953 1.953 0 0 0-1.953-1.953h-13.1c-5.517 0-10.005 4.488-10.005 10.005v9.562a12.48 12.48 0 0 0 3.457 8.628 1.95 1.95 0 0 0-.43.07C7.256 72.48 0 80.26 0 89.703v8.344C0 99.126.874 100 1.953 100h48.072a1.953 1.953 0 0 0 1.953-1.953v-8.345c0-9.443-7.256-17.223-16.486-18.059zM17.366 55.86v-2.477a6.105 6.105 0 0 1 6.099-6.099h11.147v4.548a4.157 4.157 0 0 1-4.153 4.153H17.366v-.125zm0 4.031H30.46a8.007 8.007 0 0 0 4.153-1.155v4.209c0 4.754-3.868 8.622-8.623 8.622-4.754 0-8.623-3.868-8.623-8.622V59.89zM30.24 75.474l-4.25 4.251-4.252-4.251h8.502zm17.832 20.62H3.906v-3.906h8.106a1.953 1.953 0 1 0 0-3.907H3.978c.656-6.585 5.821-11.859 12.354-12.689l8.276 8.276a1.953 1.953 0 0 0 2.762 0l8.276-8.276c6.997.89 12.426 6.876 12.426 14.11v6.392zM83.515 28.265a1.955 1.955 0 0 0-.432-.07 12.481 12.481 0 0 0 3.457-8.628V9.29c0-.094-.01-.186-.022-.276.013-.185.022-.372.022-.56V1.952A1.953 1.953 0 0 0 84.587 0h-13.1C65.97 0 61.482 4.488 61.482 10.004v9.563c0 3.341 1.317 6.379 3.457 8.627-.146.008-.29.03-.432.071-9.23.836-16.485 8.616-16.485 18.059v8.344c0 1.08.874 1.954 1.953 1.954H65.69a1.953 1.953 0 0 0 0-3.907H51.928v-6.39c0-7.235 5.429-13.222 12.426-14.111l8.276 8.276c.381.381.88.572 1.38.572.5 0 1-.19 1.382-.572l8.276-8.276c6.997.89 12.426 6.876 12.426 14.11v6.391H81.706a1.953 1.953 0 1 0 0 3.907h16.34A1.953 1.953 0 0 0 100 54.669v-8.345c0-9.443-7.256-17.223-16.485-18.059zm-9.504 8.082l-4.25-4.251h8.501l-4.25 4.25zm8.623-16.78c0 4.754-3.868 8.622-8.623 8.622-4.754 0-8.623-3.868-8.623-8.622v-3.054h13.093a8.01 8.01 0 0 0 4.153-1.155v4.209zm0-11.113a4.157 4.157 0 0 1-4.153 4.153H65.388V10.004a6.105 6.105 0 0 1 6.099-6.098h11.147v4.548z"/>
        <path d="M75.393 53.287a1.968 1.968 0 0 0-1.381-.572c-.516 0-1.018.209-1.381.572a1.956 1.956 0 0 0 1.38 3.334 1.96 1.96 0 0 0 1.382-.572c.363-.363.572-.865.572-1.381 0-.514-.21-1.018-.572-1.38zM52.228 27.33l-8.169-8.168V9.766C44.06 4.38 39.68 0 34.294 0H9.766C4.38 0 0 4.38 0 9.766v17.187c0 5.385 4.38 9.766 9.766 9.766h24.528a9.71 9.71 0 0 0 9.036-6.055h7.516a1.954 1.954 0 0 0 1.382-3.334zm-10.323-.572c-.91 0-1.7.628-1.903 1.515a5.827 5.827 0 0 1-5.708 4.54H9.766a5.866 5.866 0 0 1-5.86-5.86V9.766c0-3.231 2.629-5.86 5.86-5.86h24.528c3.23 0 5.859 2.629 5.859 5.86V19.97c0 .518.206 1.015.572 1.38l5.406 5.407h-4.226zM90.234 63.281H65.706a9.71 9.71 0 0 0-9.036 6.055h-7.516a1.954 1.954 0 0 0-1.382 3.334l8.169 8.168v9.396c0 5.385 4.38 9.766 9.765 9.766h24.528c5.385 0 9.766-4.38 9.766-9.766V73.047c0-5.385-4.38-9.766-9.766-9.766zm5.86 26.953c0 3.231-2.629 5.86-5.86 5.86H65.706a5.866 5.866 0 0 1-5.859-5.86V80.03c0-.518-.206-1.015-.572-1.38l-5.406-5.407h4.226c.91 0 1.7-.628 1.903-1.515a5.827 5.827 0 0 1 5.708-4.54h24.528c3.231 0 5.86 2.629 5.86 5.86v17.187z"/>
        <path d="M86.75 76.444c-.763-.763-2-.763-2.763 0l-5.192 5.192-2.414-2.415a1.953 1.953 0 0 0-2.762 2.763l3.795 3.795c.382.382.881.572 1.381.572s1-.19 1.381-.572l6.573-6.573c.763-.763.763-2 0-2.762zM30.909 12.943c-.231-3.35-2.93-6.049-6.28-6.28a6.716 6.716 0 0 0-5.096 1.805 6.796 6.796 0 0 0-2.151 4.95 1.953 1.953 0 0 0 3.906.001c0-.803.324-1.547.911-2.095a2.866 2.866 0 0 1 4.813 1.888 2.853 2.853 0 0 1-2.228 3.003 3.28 3.28 0 0 0-2.584 3.216v1.042a1.953 1.953 0 1 0 3.907 0v-.568c3.026-.903 5.023-3.756 4.802-6.962zM25.535 26.566a1.968 1.968 0 0 0-1.38-.572c-.516 0-1.018.21-1.382.572a1.96 1.96 0 0 0-.572 1.381c0 .514.207 1.018.572 1.381.364.363.866.572 1.381.572.514 0 1.018-.209 1.381-.572s.572-.867.572-1.38c0-.514-.209-1.018-.572-1.382zM21.205 88.854a1.968 1.968 0 0 0-1.38-.573c-.514 0-1.018.21-1.382.573a1.968 1.968 0 0 0-.572 1.38c0 .514.21 1.018.572 1.381.364.364.868.573 1.381.573.514 0 1.018-.21 1.381-.573s.572-.867.572-1.38c0-.514-.209-1.018-.572-1.381z"/>
    </g>
</svg>
