<svg xmlns="http://www.w3.org/2000/svg" width="103" height="100" viewBox="0 0 103 100">
    <g fill="#54AB42" fill-rule="nonzero">
        <path d="M87.49 32.978H1.474C.661 32.977 0 33.637 0 34.452v41.383c0 .815.658 1.476 1.47 1.477H59.964c.814 0 1.474-.661 1.474-1.477 0-.816-.66-1.478-1.474-1.478H2.949V35.933h83.064v3.695c-.001.815.657 1.477 1.47 1.477h.004c.813.001 1.474-.659 1.474-1.474v-5.176c0-.815-.658-1.476-1.47-1.477zM77.489 26.117L8.679 10.6a1.478 1.478 0 0 0-1.764 1.12l-3.44 15.518a1.475 1.475 0 1 0 2.88.641l3.118-14.07L76.842 29a1.476 1.476 0 0 0 1.797-1.444 1.477 1.477 0 0 0-1.15-1.439zM69.133 17.567L27.847.327a1.478 1.478 0 0 0-1.892.704l-3.44 6.897c-.389.72-.121 1.62.597 2.01a1.478 1.478 0 0 0 2.048-.686v.003l2.823-5.662 40.012 16.709a1.477 1.477 0 0 0 1.933-.797 1.483 1.483 0 0 0-.795-1.938z"/>
        <path d="M70.176 39.874H56.522c-.814 0-1.474.662-1.474 1.478s.66 1.478 1.474 1.478h13.654c.814 0 1.474-.662 1.474-1.478s-.66-1.478-1.474-1.478zM42.76 39.973c-8.36 0-15.138 6.793-15.138 15.172.009 8.376 6.781 15.164 15.138 15.172 8.36 0 15.138-6.792 15.138-15.172S51.121 39.973 42.76 39.973zm0 27.586c-6.84 0-12.386-5.558-12.386-12.414.008-6.853 5.549-12.406 12.386-12.414 6.84 0 12.386 5.558 12.386 12.414S49.601 67.559 42.76 67.559zM84.046 44.8c-9.117 0-18.922 2.159-18.922 6.897v41.38c0 4.737 9.805 6.896 18.922 6.896 9.118 0 18.923-2.159 18.923-6.897v-41.38c0-4.737-9.805-6.896-18.923-6.896zM99.53 93.05c-.26.957-5.42 3.474-15.483 3.474s-15.222-2.517-15.482-3.448v-2.71c3.66 1.848 9.707 2.71 15.482 2.71 5.775 0 11.824-.87 15.483-2.712v2.686zm0-6.896c-.26.957-5.42 3.474-15.483 3.474S68.824 87.11 68.564 86.18v-2.71c3.66 1.847 9.707 2.71 15.482 2.71 5.775 0 11.824-.871 15.483-2.713v2.687zm0-6.897c-.26.957-5.42 3.474-15.483 3.474s-15.222-2.517-15.482-3.448v-2.71c3.66 1.848 9.707 2.71 15.482 2.71 5.775 0 11.824-.87 15.483-2.712v2.686zm0-6.896c-.26.956-5.42 3.474-15.483 3.474s-15.222-2.518-15.482-3.449v-2.71c3.66 1.848 9.707 2.71 15.482 2.71 5.775 0 11.824-.87 15.483-2.712v2.687zm0-6.897c-.26.957-5.42 3.474-15.483 3.474s-15.222-2.517-15.482-3.448v-2.71c3.66 1.84 9.707 2.71 15.482 2.71 5.775 0 11.824-.87 15.483-2.712v2.686zm0-6.897c-.26.957-5.42 3.475-15.483 3.475s-15.222-2.518-15.482-3.449v-2.71c3.66 1.84 9.707 2.71 15.482 2.71 5.775 0 11.824-.87 15.483-2.712v2.686zm-15.483-3.422c-10.048 0-15.205-2.51-15.482-3.417v-.01c.277-.96 5.434-3.47 15.482-3.47 9.978 0 15.138 2.473 15.483 3.449-.345.976-5.505 3.448-15.483 3.448z"/>
        <path d="M28.998 67.459H15.995L9.83 60.7V49.493l6.808-6.663h12.36c.814 0 1.475-.662 1.475-1.478s-.66-1.478-1.475-1.478H16.04c-.386 0-.756.15-1.033.42l-7.684 7.511a1.855 1.855 0 0 0-.444 1.207v12.262c0 .37.138.724.386.997l6.989 7.662c.28.306.675.481 1.089.481h13.655c.814 0 1.475-.662 1.475-1.478s-.66-1.477-1.475-1.477zM43.62 53.42H41.9c-.535 0-.86-.3-.86-.43 0-.131.325-.431.86-.431h4.3c.95 0 1.721-.772 1.721-1.724s-.77-1.724-1.72-1.724h-1.72c0-.953-.77-1.725-1.72-1.725s-1.721.772-1.721 1.725v.077a4.01 4.01 0 0 0-3.44 3.793 4.112 4.112 0 0 0 4.3 3.888h1.72c.535 0 .86.3.86.431s-.325.431-.86.431h-4.3c-.95 0-1.72.772-1.72 1.724 0 .953.77 1.725 1.72 1.725h1.72c0 .952.77 1.724 1.72 1.724s1.72-.772 1.72-1.724v-.078a4.01 4.01 0 0 0 3.441-3.793 4.112 4.112 0 0 0-4.3-3.888z"/>
    </g>
</svg>
