<svg xmlns="http://www.w3.org/2000/svg" width="118" height="100" viewBox="0 0 118 100">
    <g fill="#00440A" fill-rule="nonzero">
        <path d="M95.9 10.313L94.66 1.467a1.682 1.682 0 0 0-1.92-1.429l-9.745 1.493a1.682 1.682 0 1 0 .509 3.324l5.679-.87c-7.595 9.39-15.763 17.387-24.318 23.795-7.444 5.576-15.196 9.971-23.04 13.064-13.35 5.262-22.466 4.916-22.555 4.913a1.682 1.682 0 1 0-.16 3.36c.054.002.283.012.677.012 2.423 0 11.043-.372 23.06-5.074 8.15-3.188 16.192-7.726 23.904-13.485 8.863-6.62 17.31-14.885 25.145-24.59l.672 4.8a1.682 1.682 0 0 0 3.33-.467z"/>
        <path d="M114.87 90.724h-13.59a20.466 20.466 0 0 0 3.143-2.574 20.141 20.141 0 0 0 5.938-14.336 20.14 20.14 0 0 0-5.938-14.336 20.21 20.21 0 0 0-4.486-3.38v-6.79a1.682 1.682 0 0 0-3.363 0v5.296a20.22 20.22 0 0 0-14.096.415V34.362c0-.217.177-.394.394-.394H96.18c.218 0 .395.177.395.394v4.174a1.682 1.682 0 0 0 3.363 0v-4.174a3.762 3.762 0 0 0-3.758-3.757H82.872a3.762 3.762 0 0 0-3.758 3.757v22.406a20.244 20.244 0 0 0-3.362 2.71 20.141 20.141 0 0 0-5.938 14.335 20.14 20.14 0 0 0 5.938 14.336 20.48 20.48 0 0 0 3.143 2.575H68.276V49.621a3.762 3.762 0 0 0-3.758-3.758H51.212a3.762 3.762 0 0 0-3.758 3.758v41.103H36.616v-27.27a3.762 3.762 0 0 0-3.758-3.757H19.551a3.762 3.762 0 0 0-3.758 3.758v27.27H8.866V4.24a3.106 3.106 0 0 0-3.103-3.103h-2.66A3.106 3.106 0 0 0 0 4.241v11.94a1.682 1.682 0 0 0 3.363 0V4.5h2.14v86.484a3.107 3.107 0 0 0 3.103 3.103h106.003v2.53H3.363V26.807a1.682 1.682 0 0 0-3.363 0v70.072a3.106 3.106 0 0 0 3.103 3.103h111.766a3.106 3.106 0 0 0 3.103-3.103v-3.052a3.106 3.106 0 0 0-3.103-3.103zm-81.617 0H19.157v-27.27c0-.217.177-.394.394-.394h13.307c.218 0 .395.177.395.395v27.27zm17.564 0V49.621c0-.217.177-.394.395-.394h13.306c.218 0 .395.177.395.394v41.103H50.817zm46.7-1.719a17.012 17.012 0 0 1-5.44 1.6l-.095.011a16.76 16.76 0 0 1-.978.083l-.187.008c-.243.01-.485.017-.73.017a17.503 17.503 0 0 1-2.742-.224l-.06-.01a16.885 16.885 0 0 1-5.648-2.027l-.028-.014a16.994 16.994 0 0 1-3.479-2.678 16.8 16.8 0 0 1-4.953-11.957 16.8 16.8 0 0 1 4.953-11.958 16.854 16.854 0 0 1 4.044-2.987c.04-.022.082-.043.123-.064a16.974 16.974 0 0 1 14.088-.683l.106.041c.21.086.417.177.624.27l.246.116a16.827 16.827 0 0 1 4.684 3.307c6.593 6.593 6.593 17.321 0 23.915a16.926 16.926 0 0 1-4.467 3.209c-.02.009-.042.015-.062.025z"/>
        <path d="M90.87 72.186v-5.99c2.065.148 2.832 1.092 3.54 1.092.885 0 1.298-1.121 1.298-1.682 0-1.446-2.832-2.065-4.839-2.124v-.797c0-.354-.442-.679-.885-.679-.501 0-.855.325-.855.679v.856c-2.804.295-5.607 1.77-5.607 5.488 0 3.777 2.951 4.839 5.607 5.783v6.934c-3.01-.236-3.807-2.302-4.78-2.302-.738 0-1.358.974-1.358 1.682 0 1.446 2.479 3.423 6.138 3.482v.915c0 .354.353.678.855.678.442 0 .885-.324.885-.678v-1.004c3.187-.442 5.37-2.449 5.37-6.078 0-4.013-2.803-5.311-5.37-6.255zm-1.564-.56c-1.564-.591-2.833-1.21-2.833-2.892 0-1.535 1.18-2.272 2.833-2.479v5.37zm1.386 10.06v-6.225c1.446.62 2.597 1.446 2.597 3.305 0 1.682-1.003 2.626-2.597 2.92z"/>
    </g>
</svg>
