<svg xmlns="http://www.w3.org/2000/svg" width="100" height="100" viewBox="0 0 100 100">
    <g fill="#0278BE" fill-rule="nonzero">
        <path d="M16.616 88.854a1.966 1.966 0 0 0-1.381-.573c-.514 0-1.018.21-1.38.573a1.968 1.968 0 0 0-.573 1.38c0 .514.209 1.018.572 1.381.363.364.867.573 1.381.573s1.018-.21 1.38-.573c.364-.363.573-.867.573-1.38 0-.514-.209-1.018-.572-1.381zM91.704 35.73a1.964 1.964 0 0 0-1.381-.572c-.514 0-1.018.209-1.38.572a1.969 1.969 0 0 0-.573 1.38c0 .515.209 1.019.572 1.382s.867.572 1.381.572c.516 0 1.018-.209 1.38-.572.366-.363.575-.867.575-1.381s-.21-1.018-.574-1.38z"/>
        <path d="M99.427.572A1.954 1.954 0 0 0 98.045 0L50 .003a1.953 1.953 0 0 0-1.953 1.953V7.54l-18.514 4.96a1.953 1.953 0 0 0-1.38 2.393l9.594 35.809-8.3 8.3a5.857 5.857 0 0 0-4.837-2.557H5.86a5.866 5.866 0 0 0-5.859 5.86V94.14c0 3.23 2.629 5.86 5.86 5.86h18.75a5.87 5.87 0 0 0 5.686-4.45l2.322 2.025A9.84 9.84 0 0 0 39.087 100h58.959a1.953 1.953 0 0 0 1.953-1.953V1.953c0-.518-.206-1.015-.572-1.38zM26.563 94.141a1.956 1.956 0 0 1-1.953 1.953H5.86a1.955 1.955 0 0 1-1.953-1.953V62.306c0-1.077.876-1.953 1.953-1.953h7.422v22.499a1.953 1.953 0 0 0 3.906 0v-22.5h7.422c1.077 0 1.953.877 1.953 1.954V94.14zm5.868-78.372l15.616-4.184v7.237l-1.31.351a1.953 1.953 0 0 0-1.38 2.392 5.265 5.265 0 0 1-3.719 6.44 1.953 1.953 0 0 0-1.38 2.397l7.613 28.19h-3.92l-2.02-7.902a1.95 1.95 0 0 0-.327-.685L32.43 15.769zm15.616 12.01v16.48l-3.563-13.19a9.15 9.15 0 0 0 3.563-3.29zm28.06 68.315h-37.02c-1.435 0-2.82-.52-3.901-1.462l-4.717-4.114V63.505l8.527-8.527 1.547 6.051c.22.865 1 1.47 1.892 1.47l38.399.002a2.737 2.737 0 0 1 2.734 2.734 2.737 2.737 0 0 1-2.734 2.735H61.158a1.953 1.953 0 0 0 0 3.906h25.79a2.737 2.737 0 0 1 2.734 2.734 2.737 2.737 0 0 1-2.735 2.735H61.158a1.953 1.953 0 0 0 0 3.906h21.61a2.737 2.737 0 0 1 2.735 2.734 2.737 2.737 0 0 1-2.735 2.735h-21.61a1.953 1.953 0 0 0 0 3.906h14.948a2.737 2.737 0 0 1 2.734 2.734 2.737 2.737 0 0 1-2.734 2.734zm19.986 0H82.155a6.6 6.6 0 0 0 .591-2.735 6.6 6.6 0 0 0-.59-2.734h.612a6.648 6.648 0 0 0 6.64-6.64 6.597 6.597 0 0 0-.704-2.972c2.811-.773 4.884-3.35 4.884-6.403 0-1.481-.488-2.85-1.311-3.956V45.9a1.953 1.953 0 0 0-3.906 0v22.225a6.642 6.642 0 0 0-1.424-.155h-.064a6.6 6.6 0 0 0 .591-2.735 6.648 6.648 0 0 0-6.64-6.64h-3.14c3.334-1.43 5.675-4.744 5.675-8.595 0-5.154-4.193-9.347-9.347-9.347S64.675 44.846 64.675 50c0 3.851 2.342 7.165 5.675 8.595H59.674V21.458a9.194 9.194 0 0 0 7.002-7.003h14.692a9.194 9.194 0 0 0 7.002 7.003v6.072a1.953 1.953 0 0 0 3.907 0v-7.816a1.953 1.953 0 0 0-1.954-1.953c-2.9 0-5.258-2.36-5.258-5.259a1.953 1.953 0 0 0-1.953-1.953h-18.18a1.953 1.953 0 0 0-1.952 1.953c0 2.9-2.36 5.259-5.259 5.259a1.953 1.953 0 0 0-1.953 1.953v38.88h-3.815V3.909l44.14-.002v92.188zM74.023 55.44c-3 0-5.441-2.44-5.441-5.44 0-3 2.44-5.442 5.44-5.442 3 0 5.441 2.441 5.441 5.441s-2.44 5.441-5.44 5.441z"/>
    </g>
</svg>
